<mxfile host="65bd71144e">
    <diagram id="aD0Uwyxxb3KBKMsiexIJ" name="Page-1">
        <mxGraphModel dx="2536" dy="1112" grid="1" gridSize="10" guides="1" tooltips="1" connect="1" arrows="1" fold="1" page="1" pageScale="1" pageWidth="850" pageHeight="1100" math="0" shadow="0">
            <root>
                <mxCell id="0"/>
                <mxCell id="1" parent="0"/>
                <mxCell id="2" value="&lt;font color=&quot;#000000&quot; face=&quot;Tahoma&quot; style=&quot;font-size: 15px;&quot;&gt;Maintain the user's state within the backend server itself.&lt;/font&gt;" style="rounded=0;whiteSpace=wrap;html=1;fillColor=#fad7ac;strokeColor=#b46504;" parent="1" vertex="1">
                    <mxGeometry x="10" y="20" width="440" height="40" as="geometry"/>
                </mxCell>
                <mxCell id="3" value="&lt;br&gt;&lt;br&gt;&lt;br&gt;user&lt;br&gt;(Browser)" style="rounded=0;whiteSpace=wrap;html=1;fontFamily=Tahoma;fontSize=15;fontColor=#FFFFFF;" parent="1" vertex="1">
                    <mxGeometry x="20" y="150" width="120" height="150" as="geometry"/>
                </mxCell>
                <mxCell id="4" value="Single Server" style="text;html=1;align=center;verticalAlign=middle;resizable=0;points=[];autosize=1;strokeColor=none;fillColor=none;fontSize=15;fontFamily=Tahoma;fontColor=#FFFFFF;" parent="1" vertex="1">
                    <mxGeometry x="10" y="90" width="110" height="30" as="geometry"/>
                </mxCell>
                <mxCell id="13" style="edgeStyle=none;html=1;exitX=1;exitY=0.5;exitDx=0;exitDy=0;entryX=0;entryY=0.5;entryDx=0;entryDy=0;fontFamily=Tahoma;fontSize=15;fontColor=#FFFFFF;" parent="1" source="5" target="7" edge="1">
                    <mxGeometry relative="1" as="geometry"/>
                </mxCell>
                <mxCell id="5" value="&lt;br&gt;&lt;br&gt;&lt;br&gt;&lt;br&gt;Server" style="whiteSpace=wrap;html=1;fontFamily=Tahoma;fontSize=15;fontColor=#FFFFFF;" parent="1" vertex="1">
                    <mxGeometry x="260" y="120" width="160" height="170" as="geometry"/>
                </mxCell>
                <mxCell id="14" style="edgeStyle=none;html=1;exitX=0;exitY=0.75;exitDx=0;exitDy=0;entryX=1;entryY=0.75;entryDx=0;entryDy=0;fontFamily=Tahoma;fontSize=15;fontColor=#FFFFFF;" parent="1" source="7" target="5" edge="1">
                    <mxGeometry relative="1" as="geometry"/>
                </mxCell>
                <mxCell id="7" value="DB" style="rounded=1;whiteSpace=wrap;html=1;fontFamily=Tahoma;fontSize=15;fontColor=#FFFFFF;" parent="1" vertex="1">
                    <mxGeometry x="480" y="110" width="120" height="130" as="geometry"/>
                </mxCell>
                <mxCell id="8" value="" style="endArrow=classic;html=1;fontFamily=Tahoma;fontSize=15;fontColor=#FFFFFF;exitX=1;exitY=0.25;exitDx=0;exitDy=0;entryX=0;entryY=0.25;entryDx=0;entryDy=0;" parent="1" source="3" target="5" edge="1">
                    <mxGeometry width="50" height="50" relative="1" as="geometry">
                        <mxPoint x="180" y="210" as="sourcePoint"/>
                        <mxPoint x="230" y="160" as="targetPoint"/>
                    </mxGeometry>
                </mxCell>
                <mxCell id="9" value="" style="whiteSpace=wrap;html=1;fontFamily=Tahoma;fontSize=15;fontColor=#FFFFFF;" parent="1" vertex="1">
                    <mxGeometry x="270" y="130" width="130" height="90" as="geometry"/>
                </mxCell>
                <mxCell id="10" value="" style="endArrow=classic;html=1;fontFamily=Tahoma;fontSize=15;fontColor=#FFFFFF;entryX=1;entryY=0.75;entryDx=0;entryDy=0;exitX=0;exitY=0.5;exitDx=0;exitDy=0;" parent="1" source="5" target="3" edge="1">
                    <mxGeometry width="50" height="50" relative="1" as="geometry">
                        <mxPoint x="300" y="240" as="sourcePoint"/>
                        <mxPoint x="350" y="190" as="targetPoint"/>
                    </mxGeometry>
                </mxCell>
                <mxCell id="11" value="req" style="text;html=1;align=center;verticalAlign=middle;resizable=0;points=[];autosize=1;strokeColor=none;fillColor=none;fontSize=15;fontFamily=Tahoma;fontColor=#FFFFFF;" parent="1" vertex="1">
                    <mxGeometry x="170" y="140" width="50" height="30" as="geometry"/>
                </mxCell>
                <mxCell id="12" value="res" style="text;html=1;align=center;verticalAlign=middle;resizable=0;points=[];autosize=1;strokeColor=none;fillColor=none;fontSize=15;fontFamily=Tahoma;fontColor=#FFFFFF;" parent="1" vertex="1">
                    <mxGeometry x="180" y="200" width="40" height="30" as="geometry"/>
                </mxCell>
                <mxCell id="15" value="memory" style="text;html=1;align=center;verticalAlign=middle;resizable=0;points=[];autosize=1;strokeColor=none;fillColor=none;fontSize=9;fontFamily=Tahoma;fontColor=#FFFFFF;" parent="1" vertex="1">
                    <mxGeometry x="264" y="131" width="60" height="20" as="geometry"/>
                </mxCell>
                <mxCell id="16" value="" style="rounded=0;whiteSpace=wrap;html=1;fontFamily=Tahoma;fontSize=9;fontColor=#FFFFFF;" parent="1" vertex="1">
                    <mxGeometry x="282.5" y="151" width="105" height="60" as="geometry"/>
                </mxCell>
                <mxCell id="17" value="" style="endArrow=none;html=1;fontFamily=Tahoma;fontSize=9;fontColor=#FFFFFF;entryX=0.5;entryY=0;entryDx=0;entryDy=0;exitX=0.5;exitY=1;exitDx=0;exitDy=0;" parent="1" source="16" target="16" edge="1">
                    <mxGeometry width="50" height="50" relative="1" as="geometry">
                        <mxPoint x="290" y="220" as="sourcePoint"/>
                        <mxPoint x="340" y="170" as="targetPoint"/>
                    </mxGeometry>
                </mxCell>
                <mxCell id="18" value="token" style="text;html=1;align=center;verticalAlign=middle;resizable=0;points=[];autosize=1;strokeColor=none;fillColor=none;fontSize=9;fontFamily=Tahoma;fontColor=#FFFFFF;" parent="1" vertex="1">
                    <mxGeometry x="285" y="150" width="50" height="20" as="geometry"/>
                </mxCell>
                <mxCell id="19" value="userId" style="text;html=1;align=center;verticalAlign=middle;resizable=0;points=[];autosize=1;strokeColor=none;fillColor=none;fontSize=9;fontFamily=Tahoma;fontColor=#FFFFFF;" parent="1" vertex="1">
                    <mxGeometry x="330" y="150" width="50" height="20" as="geometry"/>
                </mxCell>
                <mxCell id="20" value="&lt;br&gt;token" style="rounded=0;whiteSpace=wrap;html=1;fontFamily=Tahoma;fontSize=9;fontColor=#FFFFFF;align=left;" parent="1" vertex="1">
                    <mxGeometry x="27.5" y="160" width="102.5" height="50" as="geometry"/>
                </mxCell>
                <mxCell id="21" value="cookie" style="text;html=1;align=center;verticalAlign=middle;resizable=0;points=[];autosize=1;strokeColor=none;fillColor=none;fontSize=9;fontFamily=Tahoma;fontColor=#FFFFFF;" parent="1" vertex="1">
                    <mxGeometry x="18" y="158" width="50" height="20" as="geometry"/>
                </mxCell>
                <mxCell id="22" value="" style="endArrow=none;html=1;fontFamily=Tahoma;fontSize=9;fontColor=#FFFFFF;" parent="1" edge="1">
                    <mxGeometry width="50" height="50" relative="1" as="geometry">
                        <mxPoint x="128.75" y="180.68" as="sourcePoint"/>
                        <mxPoint x="28.75" y="180.68" as="targetPoint"/>
                    </mxGeometry>
                </mxCell>
                <mxCell id="23" value="" style="endArrow=none;html=1;fontFamily=Tahoma;fontSize=9;fontColor=#FFFFFF;entryX=0.5;entryY=0;entryDx=0;entryDy=0;exitX=0.5;exitY=1;exitDx=0;exitDy=0;" parent="1" source="20" edge="1">
                    <mxGeometry width="50" height="50" relative="1" as="geometry">
                        <mxPoint x="80" y="210" as="sourcePoint"/>
                        <mxPoint x="78.43" y="180" as="targetPoint"/>
                    </mxGeometry>
                </mxCell>
                <mxCell id="24" value="1231noioadhs" style="text;html=1;align=center;verticalAlign=middle;resizable=0;points=[];autosize=1;strokeColor=none;fillColor=none;fontSize=7;fontFamily=Tahoma;fontColor=#FFFFFF;" parent="1" vertex="1">
                    <mxGeometry x="70" y="180" width="70" height="20" as="geometry"/>
                </mxCell>
                <mxCell id="26" value="1231noioadhs" style="text;html=1;align=center;verticalAlign=middle;resizable=0;points=[];autosize=1;strokeColor=none;fillColor=none;fontSize=7;fontFamily=Tahoma;fontColor=#FFFFFF;" parent="1" vertex="1">
                    <mxGeometry x="275" y="165" width="70" height="20" as="geometry"/>
                </mxCell>
                <mxCell id="27" value="user101" style="text;html=1;align=center;verticalAlign=middle;resizable=0;points=[];autosize=1;strokeColor=none;fillColor=none;fontSize=8;fontFamily=Tahoma;fontColor=#FFFFFF;" parent="1" vertex="1">
                    <mxGeometry x="330" y="165" width="50" height="20" as="geometry"/>
                </mxCell>
                <mxCell id="28" value="Multi server" style="text;html=1;align=center;verticalAlign=middle;resizable=0;points=[];autosize=1;strokeColor=none;fillColor=none;fontSize=15;fontFamily=Tahoma;fontColor=#FFFFFF;" parent="1" vertex="1">
                    <mxGeometry x="15" y="463" width="100" height="30" as="geometry"/>
                </mxCell>
                <mxCell id="29" value="&lt;br&gt;&lt;br&gt;&lt;br&gt;user&lt;br&gt;(Browser)" style="rounded=0;whiteSpace=wrap;html=1;fontFamily=Tahoma;fontSize=15;fontColor=#FFFFFF;" parent="1" vertex="1">
                    <mxGeometry x="18" y="503" width="120" height="150" as="geometry"/>
                </mxCell>
                <mxCell id="30" value="&lt;br&gt;token" style="rounded=0;whiteSpace=wrap;html=1;fontFamily=Tahoma;fontSize=9;fontColor=#FFFFFF;align=left;" parent="1" vertex="1">
                    <mxGeometry x="26.75" y="513" width="102.5" height="50" as="geometry"/>
                </mxCell>
                <mxCell id="31" value="cookie" style="text;html=1;align=center;verticalAlign=middle;resizable=0;points=[];autosize=1;strokeColor=none;fillColor=none;fontSize=9;fontFamily=Tahoma;fontColor=#FFFFFF;" parent="1" vertex="1">
                    <mxGeometry x="16" y="510" width="50" height="20" as="geometry"/>
                </mxCell>
                <mxCell id="32" value="" style="endArrow=none;html=1;fontFamily=Tahoma;fontSize=9;fontColor=#FFFFFF;entryX=0.5;entryY=0;entryDx=0;entryDy=0;exitX=0.5;exitY=1;exitDx=0;exitDy=0;" parent="1" edge="1">
                    <mxGeometry width="50" height="50" relative="1" as="geometry">
                        <mxPoint x="76.75" y="562" as="sourcePoint"/>
                        <mxPoint x="76.43000000000006" y="532" as="targetPoint"/>
                    </mxGeometry>
                </mxCell>
                <mxCell id="36" style="edgeStyle=none;html=1;fontFamily=Tahoma;fontSize=8;fontColor=#FFFFFF;" parent="1" source="33" edge="1">
                    <mxGeometry relative="1" as="geometry">
                        <mxPoint x="260" y="542" as="targetPoint"/>
                    </mxGeometry>
                </mxCell>
                <mxCell id="33" value="1231noioadhs" style="text;html=1;align=center;verticalAlign=middle;resizable=0;points=[];autosize=1;strokeColor=none;fillColor=none;fontSize=7;fontFamily=Tahoma;fontColor=#FFFFFF;" parent="1" vertex="1">
                    <mxGeometry x="68" y="532" width="70" height="20" as="geometry"/>
                </mxCell>
                <mxCell id="34" value="" style="endArrow=none;html=1;fontFamily=Tahoma;fontSize=9;fontColor=#FFFFFF;" parent="1" edge="1">
                    <mxGeometry width="50" height="50" relative="1" as="geometry">
                        <mxPoint x="128" y="531" as="sourcePoint"/>
                        <mxPoint x="28" y="531" as="targetPoint"/>
                    </mxGeometry>
                </mxCell>
                <mxCell id="37" style="edgeStyle=none;html=1;fontFamily=Tahoma;fontSize=8;fontColor=#FFFFFF;" parent="1" edge="1">
                    <mxGeometry relative="1" as="geometry">
                        <mxPoint x="140" y="608" as="targetPoint"/>
                        <mxPoint x="264" y="608" as="sourcePoint"/>
                    </mxGeometry>
                </mxCell>
                <mxCell id="44" style="edgeStyle=none;html=1;exitX=1;exitY=0.25;exitDx=0;exitDy=0;entryX=-0.006;entryY=0.603;entryDx=0;entryDy=0;entryPerimeter=0;fontFamily=Tahoma;fontSize=8;fontColor=#FFFFFF;" parent="1" source="35" target="41" edge="1">
                    <mxGeometry relative="1" as="geometry"/>
                </mxCell>
                <mxCell id="45" style="edgeStyle=none;html=1;exitX=1;exitY=0.5;exitDx=0;exitDy=0;entryX=0;entryY=0.5;entryDx=0;entryDy=0;fontFamily=Tahoma;fontSize=8;fontColor=#FFFFFF;" parent="1" source="35" target="42" edge="1">
                    <mxGeometry relative="1" as="geometry"/>
                </mxCell>
                <mxCell id="46" style="edgeStyle=none;html=1;exitX=1;exitY=0.75;exitDx=0;exitDy=0;entryX=0;entryY=0.5;entryDx=0;entryDy=0;fontFamily=Tahoma;fontSize=8;fontColor=#FFFFFF;" parent="1" source="35" target="43" edge="1">
                    <mxGeometry relative="1" as="geometry"/>
                </mxCell>
                <mxCell id="35" value="Load-Balancer" style="whiteSpace=wrap;html=1;fontFamily=Tahoma;fontSize=15;fontColor=#FFFFFF;" parent="1" vertex="1">
                    <mxGeometry x="264" y="459" width="105" height="290" as="geometry"/>
                </mxCell>
                <mxCell id="38" value="req" style="text;html=1;align=center;verticalAlign=middle;resizable=0;points=[];autosize=1;strokeColor=none;fillColor=none;fontSize=15;fontFamily=Tahoma;fontColor=#FFFFFF;" parent="1" vertex="1">
                    <mxGeometry x="170" y="510" width="50" height="30" as="geometry"/>
                </mxCell>
                <mxCell id="39" value="res" style="text;html=1;align=center;verticalAlign=middle;resizable=0;points=[];autosize=1;strokeColor=none;fillColor=none;fontSize=15;fontFamily=Tahoma;fontColor=#FFFFFF;" parent="1" vertex="1">
                    <mxGeometry x="175" y="573" width="40" height="30" as="geometry"/>
                </mxCell>
                <mxCell id="40" value="&lt;font face=&quot;Tahoma&quot; color=&quot;#000000&quot;&gt;&lt;span style=&quot;font-size: 15px;&quot;&gt;Store the user's state in the database where actual data is stored.&lt;/span&gt;&lt;/font&gt;" style="rounded=0;whiteSpace=wrap;html=1;fillColor=#fad7ac;strokeColor=#b46504;" parent="1" vertex="1">
                    <mxGeometry x="10" y="370" width="440" height="40" as="geometry"/>
                </mxCell>
                <mxCell id="56" style="edgeStyle=none;html=1;entryX=0;entryY=0.25;entryDx=0;entryDy=0;fontFamily=Tahoma;fontSize=8;fontColor=#FFFFFF;" parent="1" source="41" target="47" edge="1">
                    <mxGeometry relative="1" as="geometry"/>
                </mxCell>
                <mxCell id="41" value="Server-1" style="whiteSpace=wrap;html=1;fontFamily=Tahoma;fontSize=15;fontColor=#FFFFFF;" parent="1" vertex="1">
                    <mxGeometry x="450" y="459" width="110" height="81" as="geometry"/>
                </mxCell>
                <mxCell id="57" style="edgeStyle=none;html=1;entryX=0;entryY=0.5;entryDx=0;entryDy=0;fontFamily=Tahoma;fontSize=8;fontColor=#FFFFFF;" parent="1" source="42" target="47" edge="1">
                    <mxGeometry relative="1" as="geometry"/>
                </mxCell>
                <mxCell id="42" value="Server-2" style="whiteSpace=wrap;html=1;fontFamily=Tahoma;fontSize=15;fontColor=#FFFFFF;" parent="1" vertex="1">
                    <mxGeometry x="450" y="573" width="110" height="81" as="geometry"/>
                </mxCell>
                <mxCell id="58" style="edgeStyle=none;html=1;entryX=0;entryY=0.75;entryDx=0;entryDy=0;fontFamily=Tahoma;fontSize=8;fontColor=#FFFFFF;" parent="1" source="43" target="47" edge="1">
                    <mxGeometry relative="1" as="geometry"/>
                </mxCell>
                <mxCell id="43" value="Server-3" style="whiteSpace=wrap;html=1;fontFamily=Tahoma;fontSize=15;fontColor=#FFFFFF;" parent="1" vertex="1">
                    <mxGeometry x="450" y="680" width="110" height="81" as="geometry"/>
                </mxCell>
                <mxCell id="47" value="&lt;br&gt;&lt;br&gt;&lt;br&gt;&lt;br&gt;&lt;br&gt;&lt;br&gt;&lt;br&gt;DB" style="rounded=1;whiteSpace=wrap;html=1;fontFamily=Tahoma;fontSize=15;fontColor=#FFFFFF;" parent="1" vertex="1">
                    <mxGeometry x="690" y="513.5" width="160" height="200" as="geometry"/>
                </mxCell>
                <mxCell id="48" value="" style="whiteSpace=wrap;html=1;fontFamily=Tahoma;fontSize=15;fontColor=#FFFFFF;" parent="1" vertex="1">
                    <mxGeometry x="706" y="540" width="130" height="90" as="geometry"/>
                </mxCell>
                <mxCell id="50" value="" style="rounded=0;whiteSpace=wrap;html=1;fontFamily=Tahoma;fontSize=9;fontColor=#FFFFFF;" parent="1" vertex="1">
                    <mxGeometry x="718.5" y="556" width="105" height="60" as="geometry"/>
                </mxCell>
                <mxCell id="51" value="" style="endArrow=none;html=1;fontFamily=Tahoma;fontSize=9;fontColor=#FFFFFF;entryX=0.5;entryY=0;entryDx=0;entryDy=0;" parent="1" target="50" edge="1">
                    <mxGeometry width="50" height="50" relative="1" as="geometry">
                        <mxPoint x="771" y="615" as="sourcePoint"/>
                        <mxPoint x="776" y="575" as="targetPoint"/>
                    </mxGeometry>
                </mxCell>
                <mxCell id="52" value="token" style="text;html=1;align=center;verticalAlign=middle;resizable=0;points=[];autosize=1;strokeColor=none;fillColor=none;fontSize=9;fontFamily=Tahoma;fontColor=#FFFFFF;" parent="1" vertex="1">
                    <mxGeometry x="721" y="540" width="50" height="20" as="geometry"/>
                </mxCell>
                <mxCell id="53" value="userId" style="text;html=1;align=center;verticalAlign=middle;resizable=0;points=[];autosize=1;strokeColor=none;fillColor=none;fontSize=9;fontFamily=Tahoma;fontColor=#FFFFFF;" parent="1" vertex="1">
                    <mxGeometry x="766" y="540" width="50" height="20" as="geometry"/>
                </mxCell>
                <mxCell id="54" value="1231noioadhs" style="text;html=1;align=center;verticalAlign=middle;resizable=0;points=[];autosize=1;strokeColor=none;fillColor=none;fontSize=7;fontFamily=Tahoma;fontColor=#FFFFFF;" parent="1" vertex="1">
                    <mxGeometry x="706" y="555" width="70" height="20" as="geometry"/>
                </mxCell>
                <mxCell id="55" value="user101" style="text;html=1;align=center;verticalAlign=middle;resizable=0;points=[];autosize=1;strokeColor=none;fillColor=none;fontSize=8;fontFamily=Tahoma;fontColor=#FFFFFF;" parent="1" vertex="1">
                    <mxGeometry x="766" y="555" width="50" height="20" as="geometry"/>
                </mxCell>
                <mxCell id="59" value="Multi server" style="text;html=1;align=center;verticalAlign=middle;resizable=0;points=[];autosize=1;strokeColor=none;fillColor=none;fontSize=15;fontFamily=Tahoma;fontColor=#FFFFFF;" parent="1" vertex="1">
                    <mxGeometry x="680" y="64" width="100" height="30" as="geometry"/>
                </mxCell>
                <mxCell id="60" value="&lt;br&gt;&lt;br&gt;&lt;br&gt;user&lt;br&gt;(Browser)" style="rounded=0;whiteSpace=wrap;html=1;fontFamily=Tahoma;fontSize=15;fontColor=#FFFFFF;" parent="1" vertex="1">
                    <mxGeometry x="683" y="104" width="120" height="150" as="geometry"/>
                </mxCell>
                <mxCell id="61" value="&lt;br&gt;token" style="rounded=0;whiteSpace=wrap;html=1;fontFamily=Tahoma;fontSize=9;fontColor=#FFFFFF;align=left;" parent="1" vertex="1">
                    <mxGeometry x="691.75" y="114" width="102.5" height="50" as="geometry"/>
                </mxCell>
                <mxCell id="62" value="cookie" style="text;html=1;align=center;verticalAlign=middle;resizable=0;points=[];autosize=1;strokeColor=none;fillColor=none;fontSize=9;fontFamily=Tahoma;fontColor=#FFFFFF;" parent="1" vertex="1">
                    <mxGeometry x="681" y="111" width="50" height="20" as="geometry"/>
                </mxCell>
                <mxCell id="63" value="" style="endArrow=none;html=1;fontFamily=Tahoma;fontSize=9;fontColor=#FFFFFF;entryX=0.5;entryY=0;entryDx=0;entryDy=0;exitX=0.5;exitY=1;exitDx=0;exitDy=0;" parent="1" edge="1">
                    <mxGeometry width="50" height="50" relative="1" as="geometry">
                        <mxPoint x="741.75" y="163" as="sourcePoint"/>
                        <mxPoint x="741.4300000000001" y="133" as="targetPoint"/>
                    </mxGeometry>
                </mxCell>
                <mxCell id="64" style="edgeStyle=none;html=1;fontFamily=Tahoma;fontSize=8;fontColor=#FFFFFF;" parent="1" source="65" edge="1">
                    <mxGeometry relative="1" as="geometry">
                        <mxPoint x="925" y="143" as="targetPoint"/>
                    </mxGeometry>
                </mxCell>
                <mxCell id="65" value="1231noioadhs" style="text;html=1;align=center;verticalAlign=middle;resizable=0;points=[];autosize=1;strokeColor=none;fillColor=none;fontSize=7;fontFamily=Tahoma;fontColor=#FFFFFF;" parent="1" vertex="1">
                    <mxGeometry x="733" y="133" width="70" height="20" as="geometry"/>
                </mxCell>
                <mxCell id="66" value="" style="endArrow=none;html=1;fontFamily=Tahoma;fontSize=9;fontColor=#FFFFFF;" parent="1" edge="1">
                    <mxGeometry width="50" height="50" relative="1" as="geometry">
                        <mxPoint x="793" y="132" as="sourcePoint"/>
                        <mxPoint x="693" y="132" as="targetPoint"/>
                    </mxGeometry>
                </mxCell>
                <mxCell id="67" style="edgeStyle=none;html=1;fontFamily=Tahoma;fontSize=8;fontColor=#FFFFFF;" parent="1" edge="1">
                    <mxGeometry relative="1" as="geometry">
                        <mxPoint x="805" y="209" as="targetPoint"/>
                        <mxPoint x="929" y="209" as="sourcePoint"/>
                    </mxGeometry>
                </mxCell>
                <mxCell id="68" style="edgeStyle=none;html=1;exitX=1;exitY=0.25;exitDx=0;exitDy=0;entryX=-0.006;entryY=0.603;entryDx=0;entryDy=0;entryPerimeter=0;fontFamily=Tahoma;fontSize=8;fontColor=#FFFFFF;" parent="1" source="71" target="75" edge="1">
                    <mxGeometry relative="1" as="geometry"/>
                </mxCell>
                <mxCell id="69" style="edgeStyle=none;html=1;exitX=1;exitY=0.5;exitDx=0;exitDy=0;entryX=0;entryY=0.5;entryDx=0;entryDy=0;fontFamily=Tahoma;fontSize=8;fontColor=#FFFFFF;" parent="1" source="71" target="77" edge="1">
                    <mxGeometry relative="1" as="geometry"/>
                </mxCell>
                <mxCell id="70" style="edgeStyle=none;html=1;exitX=1;exitY=0.75;exitDx=0;exitDy=0;entryX=0;entryY=0.5;entryDx=0;entryDy=0;fontFamily=Tahoma;fontSize=8;fontColor=#FFFFFF;" parent="1" source="71" target="79" edge="1">
                    <mxGeometry relative="1" as="geometry"/>
                </mxCell>
                <mxCell id="71" value="Load-Balancer" style="whiteSpace=wrap;html=1;fontFamily=Tahoma;fontSize=15;fontColor=#FFFFFF;" parent="1" vertex="1">
                    <mxGeometry x="929" y="60" width="105" height="290" as="geometry"/>
                </mxCell>
                <mxCell id="72" value="req" style="text;html=1;align=center;verticalAlign=middle;resizable=0;points=[];autosize=1;strokeColor=none;fillColor=none;fontSize=15;fontFamily=Tahoma;fontColor=#FFFFFF;" parent="1" vertex="1">
                    <mxGeometry x="835" y="111" width="50" height="30" as="geometry"/>
                </mxCell>
                <mxCell id="73" value="res" style="text;html=1;align=center;verticalAlign=middle;resizable=0;points=[];autosize=1;strokeColor=none;fillColor=none;fontSize=15;fontFamily=Tahoma;fontColor=#FFFFFF;" parent="1" vertex="1">
                    <mxGeometry x="840" y="174" width="40" height="30" as="geometry"/>
                </mxCell>
                <mxCell id="74" style="edgeStyle=none;html=1;entryX=0;entryY=0.25;entryDx=0;entryDy=0;fontFamily=Tahoma;fontSize=8;fontColor=#FFFFFF;" parent="1" source="75" target="80" edge="1">
                    <mxGeometry relative="1" as="geometry"/>
                </mxCell>
                <mxCell id="75" value="&lt;br&gt;&lt;br&gt;&lt;br&gt;&lt;br&gt;&lt;br&gt;Server-1" style="whiteSpace=wrap;html=1;fontFamily=Tahoma;fontSize=15;fontColor=#FFFFFF;" parent="1" vertex="1">
                    <mxGeometry x="1115" y="60" width="165" height="150" as="geometry"/>
                </mxCell>
                <mxCell id="76" style="edgeStyle=none;html=1;entryX=0;entryY=0.5;entryDx=0;entryDy=0;fontFamily=Tahoma;fontSize=8;fontColor=#FFFFFF;" parent="1" source="77" target="80" edge="1">
                    <mxGeometry relative="1" as="geometry"/>
                </mxCell>
                <mxCell id="77" value="Server-2" style="whiteSpace=wrap;html=1;fontFamily=Tahoma;fontSize=15;fontColor=#FFFFFF;" parent="1" vertex="1">
                    <mxGeometry x="1120" y="230" width="110" height="81" as="geometry"/>
                </mxCell>
                <mxCell id="78" style="edgeStyle=none;html=1;entryX=0;entryY=0.75;entryDx=0;entryDy=0;fontFamily=Tahoma;fontSize=8;fontColor=#FFFFFF;" parent="1" source="79" target="80" edge="1">
                    <mxGeometry relative="1" as="geometry"/>
                </mxCell>
                <mxCell id="79" value="Server-3" style="whiteSpace=wrap;html=1;fontFamily=Tahoma;fontSize=15;fontColor=#FFFFFF;" parent="1" vertex="1">
                    <mxGeometry x="1130" y="330" width="110" height="81" as="geometry"/>
                </mxCell>
                <mxCell id="80" value="DB" style="rounded=1;whiteSpace=wrap;html=1;fontFamily=Tahoma;fontSize=15;fontColor=#FFFFFF;" parent="1" vertex="1">
                    <mxGeometry x="1355" y="114.5" width="105" height="115.5" as="geometry"/>
                </mxCell>
                <mxCell id="88" value="" style="whiteSpace=wrap;html=1;fontFamily=Tahoma;fontSize=15;fontColor=#FFFFFF;" parent="1" vertex="1">
                    <mxGeometry x="1130" y="71" width="130" height="90" as="geometry"/>
                </mxCell>
                <mxCell id="89" value="" style="rounded=0;whiteSpace=wrap;html=1;fontFamily=Tahoma;fontSize=9;fontColor=#FFFFFF;" parent="1" vertex="1">
                    <mxGeometry x="1142.5" y="98" width="105" height="60" as="geometry"/>
                </mxCell>
                <mxCell id="90" value="" style="endArrow=none;html=1;fontFamily=Tahoma;fontSize=9;fontColor=#FFFFFF;entryX=0.5;entryY=0;entryDx=0;entryDy=0;" parent="1" target="89" edge="1">
                    <mxGeometry width="50" height="50" relative="1" as="geometry">
                        <mxPoint x="1195" y="156.99999999999994" as="sourcePoint"/>
                        <mxPoint x="1200" y="117" as="targetPoint"/>
                    </mxGeometry>
                </mxCell>
                <mxCell id="91" value="token" style="text;html=1;align=center;verticalAlign=middle;resizable=0;points=[];autosize=1;strokeColor=none;fillColor=none;fontSize=9;fontFamily=Tahoma;fontColor=#FFFFFF;" parent="1" vertex="1">
                    <mxGeometry x="1145" y="82" width="50" height="20" as="geometry"/>
                </mxCell>
                <mxCell id="92" value="userId" style="text;html=1;align=center;verticalAlign=middle;resizable=0;points=[];autosize=1;strokeColor=none;fillColor=none;fontSize=9;fontFamily=Tahoma;fontColor=#FFFFFF;" parent="1" vertex="1">
                    <mxGeometry x="1190" y="82" width="50" height="20" as="geometry"/>
                </mxCell>
                <mxCell id="93" value="1231noioadhs" style="text;html=1;align=center;verticalAlign=middle;resizable=0;points=[];autosize=1;strokeColor=none;fillColor=none;fontSize=7;fontFamily=Tahoma;fontColor=#FFFFFF;" parent="1" vertex="1">
                    <mxGeometry x="1130" y="97" width="70" height="20" as="geometry"/>
                </mxCell>
                <mxCell id="94" value="user101" style="text;html=1;align=center;verticalAlign=middle;resizable=0;points=[];autosize=1;strokeColor=none;fillColor=none;fontSize=8;fontFamily=Tahoma;fontColor=#FFFFFF;" parent="1" vertex="1">
                    <mxGeometry x="1190" y="97" width="50" height="20" as="geometry"/>
                </mxCell>
                <mxCell id="95" value="memory" style="text;html=1;align=center;verticalAlign=middle;resizable=0;points=[];autosize=1;strokeColor=none;fillColor=none;fontSize=9;fontFamily=Tahoma;fontColor=#FF0080;" parent="1" vertex="1">
                    <mxGeometry x="1120" y="68" width="60" height="20" as="geometry"/>
                </mxCell>
                <mxCell id="96" value="&lt;font face=&quot;Tahoma&quot; color=&quot;#000000&quot;&gt;&lt;span style=&quot;font-size: 15px;&quot;&gt;Use a separate database specifically for managing user states.&lt;/span&gt;&lt;/font&gt;" style="rounded=0;whiteSpace=wrap;html=1;fillColor=#fad7ac;strokeColor=#b46504;" parent="1" vertex="1">
                    <mxGeometry x="10" y="820" width="440" height="40" as="geometry"/>
                </mxCell>
                <mxCell id="97" value="Multi server" style="text;html=1;align=center;verticalAlign=middle;resizable=0;points=[];autosize=1;strokeColor=none;fillColor=none;fontSize=15;fontFamily=Tahoma;fontColor=#FFFFFF;" parent="1" vertex="1">
                    <mxGeometry x="20" y="904" width="100" height="30" as="geometry"/>
                </mxCell>
                <mxCell id="98" value="&lt;br&gt;&lt;br&gt;&lt;br&gt;user&lt;br&gt;(Browser)" style="rounded=0;whiteSpace=wrap;html=1;fontFamily=Tahoma;fontSize=15;fontColor=#FFFFFF;" parent="1" vertex="1">
                    <mxGeometry x="23" y="944" width="120" height="150" as="geometry"/>
                </mxCell>
                <mxCell id="99" value="&lt;br&gt;token" style="rounded=0;whiteSpace=wrap;html=1;fontFamily=Tahoma;fontSize=9;fontColor=#FFFFFF;align=left;" parent="1" vertex="1">
                    <mxGeometry x="31.75" y="954" width="102.5" height="50" as="geometry"/>
                </mxCell>
                <mxCell id="100" value="cookie" style="text;html=1;align=center;verticalAlign=middle;resizable=0;points=[];autosize=1;strokeColor=none;fillColor=none;fontSize=9;fontFamily=Tahoma;fontColor=#FFFFFF;" parent="1" vertex="1">
                    <mxGeometry x="21" y="951" width="50" height="20" as="geometry"/>
                </mxCell>
                <mxCell id="101" value="" style="endArrow=none;html=1;fontFamily=Tahoma;fontSize=9;fontColor=#FFFFFF;entryX=0.5;entryY=0;entryDx=0;entryDy=0;exitX=0.5;exitY=1;exitDx=0;exitDy=0;" parent="1" edge="1">
                    <mxGeometry width="50" height="50" relative="1" as="geometry">
                        <mxPoint x="81.75" y="1003" as="sourcePoint"/>
                        <mxPoint x="81.43000000000006" y="973" as="targetPoint"/>
                    </mxGeometry>
                </mxCell>
                <mxCell id="102" style="edgeStyle=none;html=1;fontFamily=Tahoma;fontSize=8;fontColor=#FFFFFF;" parent="1" source="103" edge="1">
                    <mxGeometry relative="1" as="geometry">
                        <mxPoint x="265" y="983" as="targetPoint"/>
                    </mxGeometry>
                </mxCell>
                <mxCell id="103" value="1231noioadhs" style="text;html=1;align=center;verticalAlign=middle;resizable=0;points=[];autosize=1;strokeColor=none;fillColor=none;fontSize=7;fontFamily=Tahoma;fontColor=#FFFFFF;" parent="1" vertex="1">
                    <mxGeometry x="73" y="973" width="70" height="20" as="geometry"/>
                </mxCell>
                <mxCell id="104" value="" style="endArrow=none;html=1;fontFamily=Tahoma;fontSize=9;fontColor=#FFFFFF;" parent="1" edge="1">
                    <mxGeometry width="50" height="50" relative="1" as="geometry">
                        <mxPoint x="133" y="972" as="sourcePoint"/>
                        <mxPoint x="33" y="972" as="targetPoint"/>
                    </mxGeometry>
                </mxCell>
                <mxCell id="105" style="edgeStyle=none;html=1;fontFamily=Tahoma;fontSize=8;fontColor=#FFFFFF;" parent="1" edge="1">
                    <mxGeometry relative="1" as="geometry">
                        <mxPoint x="145" y="1049" as="targetPoint"/>
                        <mxPoint x="269" y="1049" as="sourcePoint"/>
                    </mxGeometry>
                </mxCell>
                <mxCell id="106" style="edgeStyle=none;html=1;exitX=1;exitY=0.25;exitDx=0;exitDy=0;entryX=-0.006;entryY=0.603;entryDx=0;entryDy=0;entryPerimeter=0;fontFamily=Tahoma;fontSize=8;fontColor=#FFFFFF;" parent="1" source="109" target="113" edge="1">
                    <mxGeometry relative="1" as="geometry"/>
                </mxCell>
                <mxCell id="107" style="edgeStyle=none;html=1;exitX=1;exitY=0.5;exitDx=0;exitDy=0;entryX=0;entryY=0.5;entryDx=0;entryDy=0;fontFamily=Tahoma;fontSize=8;fontColor=#FFFFFF;" parent="1" source="109" target="115" edge="1">
                    <mxGeometry relative="1" as="geometry"/>
                </mxCell>
                <mxCell id="108" style="edgeStyle=none;html=1;exitX=1;exitY=0.75;exitDx=0;exitDy=0;entryX=0;entryY=0.5;entryDx=0;entryDy=0;fontFamily=Tahoma;fontSize=8;fontColor=#FFFFFF;" parent="1" source="109" target="117" edge="1">
                    <mxGeometry relative="1" as="geometry"/>
                </mxCell>
                <mxCell id="109" value="Load-Balancer" style="whiteSpace=wrap;html=1;fontFamily=Tahoma;fontSize=15;fontColor=#FFFFFF;" parent="1" vertex="1">
                    <mxGeometry x="269" y="900" width="105" height="290" as="geometry"/>
                </mxCell>
                <mxCell id="110" value="req" style="text;html=1;align=center;verticalAlign=middle;resizable=0;points=[];autosize=1;strokeColor=none;fillColor=none;fontSize=15;fontFamily=Tahoma;fontColor=#FFFFFF;" parent="1" vertex="1">
                    <mxGeometry x="175" y="951" width="50" height="30" as="geometry"/>
                </mxCell>
                <mxCell id="111" value="res" style="text;html=1;align=center;verticalAlign=middle;resizable=0;points=[];autosize=1;strokeColor=none;fillColor=none;fontSize=15;fontFamily=Tahoma;fontColor=#FFFFFF;" parent="1" vertex="1">
                    <mxGeometry x="180" y="1014" width="40" height="30" as="geometry"/>
                </mxCell>
                <mxCell id="112" style="edgeStyle=none;html=1;entryX=0;entryY=0.25;entryDx=0;entryDy=0;fontFamily=Tahoma;fontSize=8;fontColor=#FFFFFF;" parent="1" source="113" target="118" edge="1">
                    <mxGeometry relative="1" as="geometry"/>
                </mxCell>
                <mxCell id="136" style="edgeStyle=none;html=1;entryX=1;entryY=0.5;entryDx=0;entryDy=0;fontFamily=Tahoma;fontSize=15;fontColor=#FF0080;" parent="1" source="113" target="126" edge="1">
                    <mxGeometry relative="1" as="geometry">
                        <Array as="points">
                            <mxPoint x="840" y="940"/>
                        </Array>
                    </mxGeometry>
                </mxCell>
                <mxCell id="113" value="Server-1" style="whiteSpace=wrap;html=1;fontFamily=Tahoma;fontSize=15;fontColor=#FFFFFF;" parent="1" vertex="1">
                    <mxGeometry x="455" y="900" width="110" height="81" as="geometry"/>
                </mxCell>
                <mxCell id="114" style="edgeStyle=none;html=1;entryX=0;entryY=0.5;entryDx=0;entryDy=0;fontFamily=Tahoma;fontSize=8;fontColor=#FFFFFF;" parent="1" source="115" target="118" edge="1">
                    <mxGeometry relative="1" as="geometry"/>
                </mxCell>
                <mxCell id="135" style="edgeStyle=none;html=1;entryX=0.438;entryY=0.01;entryDx=0;entryDy=0;entryPerimeter=0;fontFamily=Tahoma;fontSize=15;fontColor=#FF0080;" parent="1" source="115" target="126" edge="1">
                    <mxGeometry relative="1" as="geometry">
                        <Array as="points">
                            <mxPoint x="674" y="1150"/>
                        </Array>
                    </mxGeometry>
                </mxCell>
                <mxCell id="115" value="Server-2" style="whiteSpace=wrap;html=1;fontFamily=Tahoma;fontSize=15;fontColor=#FFFFFF;" parent="1" vertex="1">
                    <mxGeometry x="455" y="1014" width="105" height="81" as="geometry"/>
                </mxCell>
                <mxCell id="116" style="edgeStyle=none;html=1;entryX=0;entryY=0.75;entryDx=0;entryDy=0;fontFamily=Tahoma;fontSize=8;fontColor=#FFFFFF;" parent="1" source="117" target="118" edge="1">
                    <mxGeometry relative="1" as="geometry"/>
                </mxCell>
                <mxCell id="134" style="edgeStyle=none;html=1;exitX=0.5;exitY=1;exitDx=0;exitDy=0;entryX=-0.013;entryY=0.582;entryDx=0;entryDy=0;entryPerimeter=0;fontFamily=Tahoma;fontSize=15;fontColor=#FF0080;" parent="1" source="117" target="126" edge="1">
                    <mxGeometry relative="1" as="geometry">
                        <Array as="points">
                            <mxPoint x="510" y="1320"/>
                        </Array>
                    </mxGeometry>
                </mxCell>
                <mxCell id="117" value="Server-3" style="whiteSpace=wrap;html=1;fontFamily=Tahoma;fontSize=15;fontColor=#FFFFFF;" parent="1" vertex="1">
                    <mxGeometry x="455" y="1121" width="110" height="81" as="geometry"/>
                </mxCell>
                <mxCell id="118" value="DB" style="rounded=1;whiteSpace=wrap;html=1;fontFamily=Tahoma;fontSize=15;fontColor=#FFFFFF;" parent="1" vertex="1">
                    <mxGeometry x="695" y="954.5" width="105" height="105.5" as="geometry"/>
                </mxCell>
                <mxCell id="126" value="&lt;font style=&quot;font-size: 15px;&quot;&gt;&lt;br&gt;&lt;br&gt;&lt;br&gt;&lt;br&gt;&lt;br&gt;&lt;br&gt;&lt;br&gt;Db (User's state)&lt;/font&gt;" style="rounded=1;whiteSpace=wrap;html=1;fontFamily=Tahoma;fontSize=8;fontColor=#FF0080;" parent="1" vertex="1">
                    <mxGeometry x="598.5" y="1230" width="171.5" height="170" as="geometry"/>
                </mxCell>
                <mxCell id="127" value="" style="whiteSpace=wrap;html=1;fontFamily=Tahoma;fontSize=15;fontColor=#FFFFFF;" parent="1" vertex="1">
                    <mxGeometry x="620" y="1250" width="130" height="90" as="geometry"/>
                </mxCell>
                <mxCell id="128" value="" style="rounded=0;whiteSpace=wrap;html=1;fontFamily=Tahoma;fontSize=9;fontColor=#FFFFFF;" parent="1" vertex="1">
                    <mxGeometry x="632.5" y="1266" width="105" height="60" as="geometry"/>
                </mxCell>
                <mxCell id="129" value="" style="endArrow=none;html=1;fontFamily=Tahoma;fontSize=9;fontColor=#FFFFFF;entryX=0.5;entryY=0;entryDx=0;entryDy=0;" parent="1" target="128" edge="1">
                    <mxGeometry width="50" height="50" relative="1" as="geometry">
                        <mxPoint x="685" y="1325" as="sourcePoint"/>
                        <mxPoint x="690" y="1285" as="targetPoint"/>
                    </mxGeometry>
                </mxCell>
                <mxCell id="130" value="token" style="text;html=1;align=center;verticalAlign=middle;resizable=0;points=[];autosize=1;strokeColor=none;fillColor=none;fontSize=9;fontFamily=Tahoma;fontColor=#FFFFFF;" parent="1" vertex="1">
                    <mxGeometry x="635" y="1250" width="50" height="20" as="geometry"/>
                </mxCell>
                <mxCell id="131" value="userId" style="text;html=1;align=center;verticalAlign=middle;resizable=0;points=[];autosize=1;strokeColor=none;fillColor=none;fontSize=9;fontFamily=Tahoma;fontColor=#FFFFFF;" parent="1" vertex="1">
                    <mxGeometry x="680" y="1250" width="50" height="20" as="geometry"/>
                </mxCell>
                <mxCell id="132" value="1231noioadhs" style="text;html=1;align=center;verticalAlign=middle;resizable=0;points=[];autosize=1;strokeColor=none;fillColor=none;fontSize=7;fontFamily=Tahoma;fontColor=#FFFFFF;" parent="1" vertex="1">
                    <mxGeometry x="620" y="1265" width="70" height="20" as="geometry"/>
                </mxCell>
                <mxCell id="133" value="user101" style="text;html=1;align=center;verticalAlign=middle;resizable=0;points=[];autosize=1;strokeColor=none;fillColor=none;fontSize=8;fontFamily=Tahoma;fontColor=#FFFFFF;" parent="1" vertex="1">
                    <mxGeometry x="680" y="1265" width="50" height="20" as="geometry"/>
                </mxCell>
                <mxCell id="137" value="&lt;font face=&quot;Tahoma&quot; color=&quot;#000000&quot;&gt;&lt;span style=&quot;font-size: 15px;&quot;&gt;Working of JWT tokens&lt;/span&gt;&lt;/font&gt;" style="rounded=0;whiteSpace=wrap;html=1;fillColor=#fad7ac;strokeColor=#b46504;" parent="1" vertex="1">
                    <mxGeometry x="1115" y="613" width="195" height="40" as="geometry"/>
                </mxCell>
                <mxCell id="138" value="Multi server" style="text;html=1;align=center;verticalAlign=middle;resizable=0;points=[];autosize=1;strokeColor=none;fillColor=none;fontSize=15;fontFamily=Tahoma;fontColor=#FFFFFF;" parent="1" vertex="1">
                    <mxGeometry x="1115" y="706" width="100" height="30" as="geometry"/>
                </mxCell>
                <mxCell id="139" value="&lt;br&gt;&lt;br&gt;&lt;br&gt;user&lt;br&gt;(Browser)" style="rounded=0;whiteSpace=wrap;html=1;fontFamily=Tahoma;fontSize=15;fontColor=#FFFFFF;" parent="1" vertex="1">
                    <mxGeometry x="1118" y="746" width="120" height="150" as="geometry"/>
                </mxCell>
                <mxCell id="140" value="&lt;br&gt;token" style="rounded=0;whiteSpace=wrap;html=1;fontFamily=Tahoma;fontSize=9;fontColor=#FFFFFF;align=left;" parent="1" vertex="1">
                    <mxGeometry x="1126.75" y="756" width="102.5" height="50" as="geometry"/>
                </mxCell>
                <mxCell id="141" value="cookie" style="text;html=1;align=center;verticalAlign=middle;resizable=0;points=[];autosize=1;strokeColor=none;fillColor=none;fontSize=9;fontFamily=Tahoma;fontColor=#FFFFFF;" parent="1" vertex="1">
                    <mxGeometry x="1116" y="753" width="50" height="20" as="geometry"/>
                </mxCell>
                <mxCell id="142" value="" style="endArrow=none;html=1;fontFamily=Tahoma;fontSize=9;fontColor=#FFFFFF;entryX=0.5;entryY=0;entryDx=0;entryDy=0;exitX=0.5;exitY=1;exitDx=0;exitDy=0;" parent="1" edge="1">
                    <mxGeometry width="50" height="50" relative="1" as="geometry">
                        <mxPoint x="1176.75" y="805" as="sourcePoint"/>
                        <mxPoint x="1176.43" y="775" as="targetPoint"/>
                    </mxGeometry>
                </mxCell>
                <mxCell id="143" style="edgeStyle=none;html=1;fontFamily=Tahoma;fontSize=8;fontColor=#FFFFFF;" parent="1" source="144" edge="1">
                    <mxGeometry relative="1" as="geometry">
                        <mxPoint x="1360" y="785" as="targetPoint"/>
                    </mxGeometry>
                </mxCell>
                <mxCell id="144" value="1231noioadhs" style="text;html=1;align=center;verticalAlign=middle;resizable=0;points=[];autosize=1;strokeColor=none;fillColor=none;fontSize=7;fontFamily=Tahoma;fontColor=#FFFFFF;" parent="1" vertex="1">
                    <mxGeometry x="1168" y="775" width="70" height="20" as="geometry"/>
                </mxCell>
                <mxCell id="145" value="" style="endArrow=none;html=1;fontFamily=Tahoma;fontSize=9;fontColor=#FFFFFF;" parent="1" edge="1">
                    <mxGeometry width="50" height="50" relative="1" as="geometry">
                        <mxPoint x="1228" y="774" as="sourcePoint"/>
                        <mxPoint x="1128" y="774" as="targetPoint"/>
                    </mxGeometry>
                </mxCell>
                <mxCell id="146" style="edgeStyle=none;html=1;fontFamily=Tahoma;fontSize=8;fontColor=#FFFFFF;" parent="1" edge="1">
                    <mxGeometry relative="1" as="geometry">
                        <mxPoint x="1240" y="851" as="targetPoint"/>
                        <mxPoint x="1364" y="851" as="sourcePoint"/>
                    </mxGeometry>
                </mxCell>
                <mxCell id="147" style="edgeStyle=none;html=1;exitX=1;exitY=0.25;exitDx=0;exitDy=0;entryX=-0.006;entryY=0.603;entryDx=0;entryDy=0;entryPerimeter=0;fontFamily=Tahoma;fontSize=8;fontColor=#FFFFFF;" parent="1" source="150" target="154" edge="1">
                    <mxGeometry relative="1" as="geometry"/>
                </mxCell>
                <mxCell id="148" style="edgeStyle=none;html=1;exitX=1;exitY=0.5;exitDx=0;exitDy=0;entryX=0;entryY=0.5;entryDx=0;entryDy=0;fontFamily=Tahoma;fontSize=8;fontColor=#FFFFFF;" parent="1" source="150" target="156" edge="1">
                    <mxGeometry relative="1" as="geometry"/>
                </mxCell>
                <mxCell id="149" style="edgeStyle=none;html=1;exitX=1;exitY=0.75;exitDx=0;exitDy=0;entryX=0;entryY=0.5;entryDx=0;entryDy=0;fontFamily=Tahoma;fontSize=8;fontColor=#FFFFFF;" parent="1" source="150" target="158" edge="1">
                    <mxGeometry relative="1" as="geometry"/>
                </mxCell>
                <mxCell id="150" value="Load-Balancer" style="whiteSpace=wrap;html=1;fontFamily=Tahoma;fontSize=15;fontColor=#FFFFFF;" parent="1" vertex="1">
                    <mxGeometry x="1364" y="702" width="105" height="290" as="geometry"/>
                </mxCell>
                <mxCell id="151" value="req" style="text;html=1;align=center;verticalAlign=middle;resizable=0;points=[];autosize=1;strokeColor=none;fillColor=none;fontSize=15;fontFamily=Tahoma;fontColor=#FFFFFF;" parent="1" vertex="1">
                    <mxGeometry x="1270" y="753" width="50" height="30" as="geometry"/>
                </mxCell>
                <mxCell id="152" value="res" style="text;html=1;align=center;verticalAlign=middle;resizable=0;points=[];autosize=1;strokeColor=none;fillColor=none;fontSize=15;fontFamily=Tahoma;fontColor=#FFFFFF;" parent="1" vertex="1">
                    <mxGeometry x="1275" y="816" width="40" height="30" as="geometry"/>
                </mxCell>
                <mxCell id="153" style="edgeStyle=none;html=1;entryX=0;entryY=0.25;entryDx=0;entryDy=0;fontFamily=Tahoma;fontSize=8;fontColor=#FFFFFF;" parent="1" source="154" target="159" edge="1">
                    <mxGeometry relative="1" as="geometry"/>
                </mxCell>
                <mxCell id="154" value="&lt;br&gt;&lt;br&gt;&lt;br&gt;Server-1" style="whiteSpace=wrap;html=1;fontFamily=Tahoma;fontSize=15;fontColor=#FFFFFF;" parent="1" vertex="1">
                    <mxGeometry x="1550" y="702" width="160" height="108" as="geometry"/>
                </mxCell>
                <mxCell id="155" style="edgeStyle=none;html=1;entryX=0;entryY=0.5;entryDx=0;entryDy=0;fontFamily=Tahoma;fontSize=8;fontColor=#FFFFFF;" parent="1" source="156" target="159" edge="1">
                    <mxGeometry relative="1" as="geometry"/>
                </mxCell>
                <mxCell id="156" value="&lt;br&gt;&lt;br&gt;&lt;br&gt;Server-2" style="whiteSpace=wrap;html=1;fontFamily=Tahoma;fontSize=15;fontColor=#FFFFFF;" parent="1" vertex="1">
                    <mxGeometry x="1550" y="830" width="160" height="114" as="geometry"/>
                </mxCell>
                <mxCell id="157" style="edgeStyle=none;html=1;entryX=0;entryY=0.75;entryDx=0;entryDy=0;fontFamily=Tahoma;fontSize=8;fontColor=#FFFFFF;" parent="1" source="158" target="159" edge="1">
                    <mxGeometry relative="1" as="geometry">
                        <Array as="points">
                            <mxPoint x="1760" y="960"/>
                        </Array>
                    </mxGeometry>
                </mxCell>
                <mxCell id="158" value="&lt;br&gt;&lt;br&gt;Server-3" style="whiteSpace=wrap;html=1;fontFamily=Tahoma;fontSize=15;fontColor=#FFFFFF;" parent="1" vertex="1">
                    <mxGeometry x="1550" y="960" width="160" height="107" as="geometry"/>
                </mxCell>
                <mxCell id="159" value="DB" style="rounded=1;whiteSpace=wrap;html=1;fontFamily=Tahoma;fontSize=15;fontColor=#FFFFFF;" parent="1" vertex="1">
                    <mxGeometry x="1790" y="756.5" width="90" height="83.5" as="geometry"/>
                </mxCell>
                <mxCell id="167" value="program to generate, &lt;br style=&quot;font-size: 13px;&quot;&gt;calculate and compare &lt;br style=&quot;font-size: 13px;&quot;&gt;the tokens" style="text;html=1;align=center;verticalAlign=middle;resizable=0;points=[];autosize=1;strokeColor=none;fillColor=none;fontSize=13;fontFamily=Tahoma;fontColor=#FF0080;" parent="1" vertex="1">
                    <mxGeometry x="1555" y="708.5" width="150" height="60" as="geometry"/>
                </mxCell>
                <mxCell id="168" value="program to generate, &lt;br style=&quot;font-size: 13px;&quot;&gt;calculate and compare &lt;br style=&quot;font-size: 13px;&quot;&gt;the tokens" style="text;html=1;align=center;verticalAlign=middle;resizable=0;points=[];autosize=1;strokeColor=none;fillColor=none;fontSize=13;fontFamily=Tahoma;fontColor=#FF0080;" parent="1" vertex="1">
                    <mxGeometry x="1555" y="836" width="150" height="60" as="geometry"/>
                </mxCell>
                <mxCell id="169" value="program to generate, &lt;br style=&quot;font-size: 13px;&quot;&gt;calculate and compare &lt;br style=&quot;font-size: 13px;&quot;&gt;the tokens" style="text;html=1;align=center;verticalAlign=middle;resizable=0;points=[];autosize=1;strokeColor=none;fillColor=none;fontSize=13;fontFamily=Tahoma;fontColor=#FF0080;" parent="1" vertex="1">
                    <mxGeometry x="1555" y="960" width="150" height="60" as="geometry"/>
                </mxCell>
                <mxCell id="170" value="" style="shape=image;verticalLabelPosition=bottom;labelBackgroundColor=default;verticalAlign=top;aspect=fixed;imageAspect=0;image=data:image/png,iVBORw0KGgoAAAANSUhEUgAABUwAAAGmCAYAAACnaM45AAAgAElEQVR4Aey9C7gV1ZXva7r73O7b96b79Dmnb+fm3j433ee6NQESFB88tgpqFDGaxEcSI3aMJESw8dG2kghBIiAokIgoKgqKRAR0p+ODkAQVAyjGgG2Sz93aUdFoR4zxpNEkEm0c945ZNWqOOWtWraq1116r1lp/vm99VWvWnGOO+Z+j9qr5Y1TVfqNGn0TFPh+jUaPxgQaIAcQAYgAxgBhADCAGEANVj4Gi17e1633ik1+k/fcfgk+XaYB5R8zjvEcMIAYQA4iB7o6B/WrD0qpfEMM/LNoQA4gBxABiADGAGEAMIAZCMVAbiNa6FgY4687FEua9O+cdcATzjhhADCAGEAMSAznANHTROdCyE2nUaHygAWIAMYAYQAwgBhADiAHEQFYMDPR6M9S+fnDK4GzMmHH4dJkGAKZYMMuCGVvEAmIAMYAY6M4YyACmoQvNomXexe+oE2kUPtAAMYAYQAwgBhADiAHEAGKgbAyk/qO96PVoqF590BTAtDthMYBpdy6OAUUw74gBxABiADEgMRAApqELzLwyBUgDF8EjR51I+EADxABiADGAGEAMIAYQA4iBsjEQ/E93B6LmXaOGjpWHpgCmAKaycJLtR4Z9kEYfdgCNHdND43rxgQaIAcQAYgAxgBhoxxjg33H+PeffdfmN11sPmIYuLLPKYlCqIGnZi2DUx8IJMYAYQAwgBhADiAHEAGKgTAw4EDWBp1nXq6HyctAUwBTAVC+eDjn4QEBSQGLEAGIAMYAYQAx0WAzw77v+ved9BUxDF5ShMheU1r7AnUAjR+EDDRADiAHEAGIAMYAYQAwgBsrGQD5MTuBpaXBaHJoCmAKYygKKM1DaMYMGPiPzCzGAGEAMIAYQA7VjwM80jYFpCIz6ZUVAadmLYNTHwgkxgBhADCAGEAOIAcQAYqBMDKQhan3gtBg0BTAFMBVgyrftYcFZe8EJjaARYgAxgBhADLRjDPDvvPzmxxmmPhgNfbcvbkpnlJa5wM2rewKNHIUPNEAMIAYQA4gBxABiADHQ+TGQd01Y5pgLT11wGrqm9ctqQ9NWAdPe3qPpjM98jng7psveUF+F8fK860UT7+OZpQAA7QgA4DPiFjGAGEAMFIsB/p3Xv/37jRrtXzj63wcKS7Ho6fxFD+YYc4wYQAwgBhADiAHEwGDEQBF4OhBoOrjAdCCw88vTZ9Fjj+yk6ZfMNMCU94t+qgAc292HEDDFgrPYgrM7dBpPO3avpz3bxrcw67gKPrRvTCzbtpL27Z5By1r4HMYq+NAO5+v9/etpV1/7xlo7aAwfbXyVAKZZsDTv4nUwLpZhE4swxABiADGAGEAMIAYQA4iBvGtQC07LZZrmQ9OBZJiecMLH6fbb1tKpp5xROkv0jM/8Ha1ZvZ4+/amzTNuvzZ5PRT/1wsoVN9+eQFner9dOJ7RrHTCdTLveXE/7zGcR3W9gTgTGojI+tpJ2LLaLu3G9uo0FCwbGvCk2eoihgwVE2qZvT9u2+5E98W097euf3EJYaP0qu9DncRQHnVpbrVNZWKns5EI6rmfnLH9sZX2oX7MsP8pp2fj+2a96fTDxnDsX9fjLc6LjJN/G4PiQ32dqLhfPoD2pvzklbQwidDYa6b81fYucv4HmeOFzpnXjOmf5Htq8hcxn9fxB9GP+s0k/9y1f4PyNnrWOqLF930WrtzxLs3Lnv0idWI9p2+k+o1Etm4OoX2/hDNMysLToAmY8jRyFDzRADCAGEAOIAcQAYgAxgBjIioGi15UheFoPNB1cYMpZoY9u3UHTL/1qpQEkA9L77/1epX1sJohtLTD1gZkHYQzgECjjQTN1jEHCnt2LYrg6mXb1L6JdKUDk2c5Z+Bp7SUZlBADbMevLHUf+wrtM3RSICmnJ85OaA+1DGWCq27Vmv+H6hDSrUVYFH+zcFz+fbJvWzJ30X+nsTfP3zPt72LeI9uxeGWecjqcd5u+aV6dGzMjYW7FtPLQMxw8D2ioA05AfQd0Z9G7cTucYaFp5YJqGpcOHj6bwZxQNH44PNEAMIAYQA4gBxABiADGAGGh2DISvT+WZ+8UzTbOh6UAzTPVt9DfftIo+duInKwklNz+wrZJ+NROS6r4qDUx7o2xRkyUZAHACkAwI2TaDdjHk7FtEu/pCMK444BG7sthl+0mmpsn6stmnGqRyO5sdq8FGBHuTY3EWWQjg2DK3TdJ/kmk4w2boajDp+afbyXhCW9uvghLKVtqO65/WwdgPzNe4XrfNviLZcrk+RDBbdE37qMYSg6X7+1fSjm2cuRfNodNG9ZX4ZkCWne+onUD8tH1XW9c/q1FO+e4ZtIMzpI1/cT+1fHD8tpnXTka2jhFzXuXo4PSn4zjO3k6yNIvooMZaxocsEOj4ps7LrPpJOcdeyF/l35tau7h+Kla4/iLaZebIaqjjKPo74OrmxkU6bvy/OVw/KptBu/jvxWL++zZZjcE9l2z/WX7HfepY8eajlo9lj4eAqc4+NdAwmZ8eGqcyRjerbE62Ixmrulz8CYFK0/dyyeIkB6hm+7CAlm5Ufa27y2Stuv3Hx+Nj4sO43ozs0jiTNJjt2k7AVC42ecuwFP+gABSAAlAACkABKAAFoECVFfgf/2MoNfLTSGDK8PThBx+lCy+4tCacPPdL02jbD35IvGWQx7fnF/1o8Fdk/6szrjDZpZxhKoB38hfPS/ko9dbd+S1Tj+tzPWmjb+PnulLOW/FD3/bPdrhc1xVw+/XF1zntuY7YkP7ZLtuTNnxc29cZs3psbFtsZW2rDkwNfGBgwAt9fbsqL7TjMgPBFnMGFsMmBhUMDXxgEYME5xb/NLjgBbALLxiQhEALt43gSfQ4Ab3v2Q35HvdjIBpDIAMvrI8OpI1BowA3o4mCjQnsNDDJjtsdh+dTDCoiWwLo4q2nc8hO0qexE9AoGZPt1x1Tjl4aoig/LRSKbIb8sgDD9qvL2IfkcQ1aL73PffKcKaBUvi+eSw3gxB+/XGvH+xYCmrlRc1HMh4CuGXORjM8Zu9de6eD6Y2NV65u5X8oH0arWtpgPZs4TyBvFeBRLeXMRHbN/c0QXO0dJLHnnt9FJnZ+ZmiRxHh4H2+Fz/v7+RQby8+NJor916j+SjA09jiy/ewx01Vnf7nzW0rr88RQwlczKeNwGXAp4LAoP2Ya0UXZCGaYJXNW283wI2LZzlwFEZQ6z2rY3MI2ySzUsHTlqAoBplVcG8A0KQAEoAAWgABSAAlDAKNBIWMq2GglMNz+wlc6f9o81YR1DvKlTLjTA8NwvnW/qF4WlXC8LAmaVC7AUKMlAUUNIaSf1BDhyHakn4JTr8r6U83dux5DTLxe7XJePyXd/y+0Ffvq+sV3pi48JhGUbDE+5zC/37Ye+dw4wjUBnBDgYGlhwGC16w1DCLogtEIiAh4WIAipNXQOX7LEkEzHJngzAVWmjABzb4n4Y3CzbxrfeatCb9lXq6na+77pOXj2/HX9n+OOMU0CA8tO2i6CRZGk62ZDSLgXIBDiJzv53KQ9v/bEZXxhUMQhTUNH6GLbjjlP54EEvF4bbuaplPzmeGr/4o/qMtbI+ecc8n4IasA2JrwQKerEf8MX2yX6pfkXTxJYAZj8m/e8yvoxtGR8khoJb9lWff4HzLdgu5K8ad9zG6hKq72qV1PXmKYmBoB8hfcJ98Xybc5Ltx387kv8c8rJlbWyEbbFPXMc9Z8udO2XH5QPTVCYow0S+Nb23h1LHlHZORig/97MgMLVZnRZ2pvpRPoyL4WYq89X4Ym2kdeDM1D20dFpobnPKTH+VviXfB6bR86GQYYpVCBSAAlAACkABKAAFoEDVFagqMF1+4600YcInMqFgCNo1q0wDSelTZ4VKmV+P4STDSDku4JPLdHYp7wvU5K3AT2nHdkL9cV2xI238PjWEFTvShrdcxnV4nwGq9FlrW3VgylDCZIMFgItAAsm6sgvZEDQIlYUXs2LX2pN6bMNmADqgKVngR3XSL6xSYEvAaQxaOIPsfnmUgDmW9lX7pPe1j365/13X9fcT+JOMQ8YcgoVp0OTbMxBPxmls+m3877a/lK0gtFX1BfIVAKfuOJUPKeiljtXqP6BZevzir2uXx2p98o55PoXns0BMBs4d2yf7pfr1+rRz4cek/13Gl7Et40NIz7iM/baAvIwPobpq3Mp+9B8HofquVomGmZplaJEaX7gvnm//PzGiPtP1bWykj8kc2jpF/RpYvYYAUwMVFYwMZHKmIGhvD7l9W9iZqquBqcxLEJxaG6Jnsg34lBwTm6FttYGpD0v5wfkAplVfGMA/KAAFoAAUgAJQAApAgUiBqgHTR7f+iC75xxmFQV0tkDcYxzV0FPsMGGVftmWAKYNKaedv2Y7ATH2MyzRY5Xp8XPfLdqWcj2nf+ZgGuNo278vt+nl1pE2lgSmDiOTWVgYBKguSAYy5VT4ECIqWhYFANlhwfeB61j/XVgJTUgtlBWkMRFpknk0YATZ+edUMWqaf3Wracxs79kz/WC+BlEYfDXdd//wFfba/IWDq3xIcsJ0CZK523F+Wdr5v/D1zzKJvqr+ATw6c5OPeXCSxFmfjiZaSnVcAyFrf3Tmz5a4OUXaoZEkqf3hcHogz8ZbywbUXjMmANu586355X/xxNeQ28liEqJ9wPTtW1b6UD6qdzG+81T4YfTJ8TfvAOvn+utq5cxGq78ZMomFonlQspX1Jjy8U34l9pYGUOTqYOJa/D1l+y3/YeNnHynYRP8vUcaFl/IzSOKOU7fDxJFuUoaN6bmnSjwMV42eMDiDD1DwnNcsHRwsfkPJ3BW5V3dQ41THJWrXZrmrunbGpct1+kPf3338IyWe/UaM/RvbjA1P79lFkmGIZAgWgABSAAlAACkABKFB1BaoETE855TPEH4FwZbaf+tREWrXyDvr0p84y7b82ez4V/ZTpR+oyqBSQyFvJ6JTjvNXgkr/7gJJtMMCUjE7e6vZ6X4NOXS42ZCv9iD8MPWVfjnFd3me/ZV/b1PtcJw/mSt3qAVN9u623uGfoktyOK/AjBAiKloUXqSF4kSzgDcSNfNzDL5oSMOL4JrcxR/YjuGTHJdApAnYCodhnnT0XATe5hda2yYOHsQ3WaPcMuj++5T/xPWfxLSBG1/X9Zl9sxpvrnw9qxW+zFcintAu/mCs9H3k+sM+6H+tb2o6Myx2nBoUxJE3iy4u9GEpF/UnsZfdj+vNiIvEvq1wDXJ4rD8RJvKR8ULrmxiSPLZ6LPB0iEGm1TWJP+b3HeQFRjg6qTTJXRXzIilVtj59ZnIKgWb6E/iYIRLRjTebIPGIjNM82ZhINvXmKYtaPnyy/4nIzLrdNYl9pYcvc8y+Zo0y/o37888mOt4Z/ygc5l7K2BoTyrfPJx4JG55gCl2zLvfXe3qpu2+yhpcvtM0zd+lF/AiZdiOnCT2uPorfVx2Pz7fnPRXWOC7Rl6OmNw9HFQFEi8csci8usPgocl9DZ6afOdgJLeauAaTYsjZ5hOqrq18fwDwpAASgABaAAFIACUKDLFagSMBX4Vs/2K1+eZbIwp1/6VQMDOfuy6Kee/gRy6ixP305RYMrtGExqfxl06j74mGSKMuSUunLbvGSDcjkDTg1JeV/X15CU68ox3nIfvi/+uELfqwVMG7doTy8mM4BJnQvNtP3B9B22oTdioNNjwMBM+c8F/F0yb6iv+py7YLb9ztE6gOkJNHw4gGmXrz8wfCgABaAAFIACUAAKVF6BTgGmvb1H09+d9QXibQjooWyc0cWHuI3SpbXAVDK73Myqxi6SVdZl4dt322/h21jNMH7oiRhoRQzYDNL21P/mW7aozFKdZYp9J6M0yb6NdNmw8fWWAGIA08pf6sNBKAAFoAAUgAJQAApAgXoU6BRg2ijw1+l2OLtUslIbOdbWAdP2BAKtgCjoE7GCGEAMIAYQA42OgTAwHcUveJKPfXZp9NInZJjWc8GONlAACkABKAAFoAAUgALNVQDANMq8bCQ8rJItzijVt9wXeR5pPf4DmGIR3uhFOOwhphADiAHEQPVjIABM855fegKNHAVg2txLffQGBaAAFIACUAAKQAEoUI8CAKadDUzrgZ/1tAEwrf6iFuABc4QYQAwgBhADjY4BANN6rr7RBgpAASgABaAAFIACUKDyCgCYApjWA0j9Ni0Fpubt3oP5/FIssBu9wIY9P6bsW9Ohja8NviMmEANVjgEA08pf6sNBKAAFoAAUgAJQAApAgXoUADAFMPXhZz3f2xGY8otR9r0ZffZsG9/wl2Wcs3wP3bd8QabdzDcjT9tO923cTuc08w3XOX1m+tlM/1RfrKu8+GT1/GyQ4uq/gJZutC+MyWunwYTua/O6uzLn0ra5i1ZveZZmxf6a9kXnksH/7hm0TI3V2s0eJ+pAG8QAYqCVMQBgWs/VN9pAASgABaAAFIACUAAKVF4BAFMA03oAqd+mpcC0HsC0eAbtGWQ45QK79II+E0TmwMvBWhRXyZeiY8z02cSDCy65roXX7rHs/u6i1Qns5DZEtUGrsl3HPDLEHwx4nz3GdFyiLjRBDCAGysRAGpgmL3vilz7pFz5Fzy/FM0wrvzaAg1AACkABKAAFoAAUgAJENBjAVF88Y38IdYMGrQGm42nHbskSdW/JX7ZtJe3aNoP2xBmk+/onu9mBnM3nl/X2ELeTrNN0th/fNl0caEXAdLsBbSYjUjIU5z+bZEhKpuRmk5XoZkHKMQF9bG/18u1035Y4U1LsMSB0bO6hpdP0gj+CfWIntRDOAXtpKBnwUfxwfLBZluN63TaZfnjg22RnyljNVtvsobRvdswurOb+XU1021nr9tDS5XZOsvxL2rBeKouU9UyO9QowTfcp9WReN29xfTLz0gSQn5p/T3cct3EELaAFYqB2DOhrnP1Gjf4YjQIwxQIDCkABKAAFoAAUgAJQoAMUADDtDqCpFzSDsd8aYCoLufTzHyPwKRCVj6+kHYt7aBwDKYGoyTau590SbWw4ULU8MLVQjEGaC8gsZJNxxNsMgBkBRIGGEYSMMh7DcM4u9POBqQsXtS8C/2yZ8UEAqQaHel8AbpydyeO0EFL7be1aX5UGCZQMt8nUzwBarbXX3vhqs0XZzmYnk1S3FR/d+XP71jpF+0sZbnuPC3C0S/ko/ahYBch0/5MDekAPxEAlY0BfUwCYdsDCAEOAAlAACkABKAAFoAAUiBQAMAUw1YudeverCEztrc2ciRoDU1lwBzJMGZDaNjFcHcBt+y6ITENNF7oJMOuhcTnA1ILHHtL2DfQrdMu46sdooWGfe0zbF6DpQD8NSTm7VECqYzc97pBdsZ9ste04Q9UHkJn6pXyJNZVs1Y3baek6F5hq22m7EXDV2puMXhmv0x/rGWUAa5tRlq0GsWldorEHYlViFttKwqIkZjE/mJ8ujQF93bDfqNEnFsgwHU/Dh4/CdTgUgAJQAApAASgABaAAFKi0AgCmAKZ6sVPvPoCpCxsZorhgMA3I0mAutlEQmHJ7B+LFt4bzLd8urEv7JpDH9VHXywCpzm33qh8HGrIdaZ8ed3affv/2JU0ujI3qhfVL9ydjtVu3jmuHj6lxyeMEBI4mQITrRdm+5pb+5BEIMm7e5gFS1wfrWzpb2h7T+mAfuiAGEAPViAF93QBgWulLfjgHBaAAFIACUAAKQAEoUEaBTgWmw4cfRheefwndtvIOenDTVnpo0za6dcUdpoyP6Qt87A8cGncCMB3n3ZLPL+Bxn3Na/pZ8CzTTgCwEPA0AcLIr7YLYBY0+kMuqx+VcNw1X01mP1oaTQZlAQv2sTlWXj3s+s69ym7s7zsgXB+iatp5/KQDr9ec8N1Qdy4DNGqwY3xQAdYCpNw4+FoK1bI/trJ6vXwzFfvD44scmGLgsj1CItJN4MD44QDUeA55hiixFdb7puMW+Os+hUaXOE30NBWBa5gocdaEAFIACUAAKQAEoAAUqrUAnAtNPnX4mbfrew/SDhx6hK+cupEsvmWk+vP+Dh7bTpu8+TKef9llA0/0HDkplodQaYBoBzOQlTfxM0vgWevf2+sBtzoFb8hlIGEgqzzZN3Y7fWGAaQUbJorRgjf0woC6+tduFbFJfZ0FGENK+TMi1lQlMM6FkGu4msMZAQOuDzmaNIKAc0z64/sl4EpshYBpDXjsmCy61NtFxm8npwE8NVbTfCpb6Wttnzvov0orHlTzrVCCxB3o1MI2havRCL1vf+Lxue+pFVOwLx5/zWAg9BuxXChIl8Yt5wbx0eQzIdQBvAUwrfckP56AAFIACUAAKQAEoAAXKKNBpwHTOFQvosUd20vRLZtLQoSNSUPTDHz6EvjJ9lqnDdfWFPvbrB6itAabdlXHEQDIFG+teqNeAoh5UjOBQuo2BpMG6A5ub1Fi9zM8grCqQXRpqlwlZ69a2yNjTWvoZziFfUVZEW9RBnCAGmhkD+toJwLTMFTjqQgEoAAWgABSAAlAAClRagSoB056eoQMCmJ/7uy8aEPrFL5yX2BkxYhSdO3kafWHSVDrooMOT8innnm/qTjzz80mZvujHfjl4CmCaXqA72ZHywqE6t7z41RCxkbaL2hIfnPpxxqVTVucYtQ03+5azO6MsUl2nEfs8JgGmjbBX1Eb6cQh4dmkzAQ/6Sv+9gibQpN4Y0NdLAKaVvuSHc1AACkABKAAFoAAUgAJlFKgSMD300F5acfPtNG7s8aUh5mGH9dLDDz5Cc6+4Kml7RO+x9N0NDxkwylmn393wAB1xxDHJ8fnzFtGD399Chx46OinTF/5F9l9+8VVadeuautsX6aMd6gCYYrFd72Ib7RA7iAHEAGKgfWNAX6MAmJa5AkddKAAFoAAUgAJQAApAgUorUDVgymDz0a0/oqlTLioFIWde9jXa/MA25zb8FctX0Yb7NhFnmZ4w/uP0nfs20U03rEzsDv/IobRl82N02VdmJ2X6wj9v/+GHHiGGpTsf/wmA6f5DCMC0fRe7ABWYO8QAYgAxgBioNwb0tVIOMD2BRo6Sz3gaPnxUpS+O4RwUgAJQAApAASgABaAAFKgiMGVoyp/rly6nUSOPLAQz71p3D117zQ1OXX7p06yZc5Oy2bOuNFBVX9wvv+FWuvOOvqSOPlZkH8A0unUfwBSL7XoX22iH2EEMIAYQA+0bA/paCcAU6wooAAWgABSAAlAACkCBjlGgysCUoSlnjZ7z+XNrAk2GozMuczNF71r7bZNhytmlEyZ8wtySf+cddzu2GKI+tGmbU6Yv/mvt5wFTvlWfM1HFhv6+6OolJkOVs1Sf6X8+qcP2uIw/9357oynnulzOH11X7IoP0o7rSwYsl0k93rJNqcft5BjvS3k9jxgAMG3fxS5ABeYOMYAYQAwgBuqNAbmO4C2AaccsDzAQKAAFoAAUgAJQAApAgSoDU36+6OfPnpxAPX1R7u8zMJ054wqn7qmnnkHbt+1InmHKt/qf8slPO3U4A5WfferbK/pdYGWovgakfFx/Z/B5wfmXOP0y5NSwkm1zHYGrvA31w/UEpHJ7Bp9ih20KeNX9sx0u5zK/PNRHrTIAUyy2611sox1iBzGAGEAMtG8M6OsDAFOsK6AAFIACUAAKQAEoAAU6RoGqAtOlS24kfpGTvhDP2797/T103bXLU/VPPulUuvSSmeZz0sdOTR2/4fpbaP3af0qV5/Wlj9ULTCUDVNti6ClZnrJlmCkZprqu3mcfBKYyYBV4ynU0DJU+xTZvuYzb8L6AVW276D6AafsudgEqMHeIAcQAYgAxUG8M6OsEANOOWR5gIFAACkABKAAFoAAUgAJVA6acBTrl3PNLA0x+6RNnpH7wg8OTtkOHHkQTTvi4scfQ9LypF9Lw4Yclx4cMGU4PbtqaupVfX/zX2q8XmIpdBpUCOHnrZ51yvUYCUwao0re/ldv18+r4beR7ZwHTeXTWqr108Zx5VO8CEu0AHxADiAHEAGKgG2JArgN4C2CKdQUUgAJQAApAASgABaBAxyhQJWB61FEfJf7oi++i+4cffgRt+8EP6SvTZxFnlS75xjJi+CovkJItl/ExzjZlyMq34x96aPFMVt+fPGDKoFNgKLfjupzR6dsQUMrHQscbBUwZhGp/fD/4u2SkStYpl+l9f0xiA8C0HjCwhqbc3U+n9dbTtoVtPruFLr77NTrrsx0KliceS+9OHxHDcp6jvTTloh46belemrl0TTGIfsFWWvnAVprYwrlN/L2on2a2Y5zlajeMds45mXaeFJ8HTYzJiStep5UrriwWB7ljaPw5zL6t3f62+Sy5qrj9ho5pAHOxbOrJ9O7iM6JPcg7yOEbQC1K+WOa9znMza06uejrRrnXzW35MrNkbU4e1NB7lOoC3AKYdszzAQKAAFIACUAAKQAEoAAWqBEz1RXc9+/9w0fQEkPILnz73d1+gQw8dbQDl0CEH0zFHn0Bnf+6L1HfXvUm9Ii+UyvMlD5hyOz4ut8BrIMrgUsr1rfC6nI+zjUYBU7bFPki/vGXbDEl1GdfTkFTvdx4wZejH8K84XGhcxlA7A1MGvd0CTKP4SABkFnDR5RUBpiZLumuAaXNisqFwUcdMA/cv7nubWgtM65kLhqLH0oaADmEoyH8/6zg3A/b13/TWzm/5MYW1ae7vGV8zyAfAFOsKKAAFoAAUgAJQAApAgY5RoJOA6QEHDKU1q+8yMPSrM+cQ35IvF/Gy5bLLvzrX1Fl+w62p41IPW7sAKqJFe2aYRtk8zq33Bi7tpZl3p2/JP23pa3TWHM7W845zRtXSLeY2/uiYzRqdMOc1dWu/hbMGvsV2xF6R7MWL+16nuStCmVBX0twHoswyk2GWZDeupSXbn6YlfXzMtk0yqBjsxRlpa7c/TRfXgAkGLJgMsmiMPA7OvjTlJ42hN6aPoZ1z4gwxDT/4WJIhdoabEcUZnckxyR5jm5xFKLbOsFmfTgZo3Lcqc7LU5oyhZVjFDmUAACAASURBVDImU6eYf26GaQRl3LnMAhLePMTaRnrzXLxOcy+wbRlsJcce2EpzzTzFc+XVk8zBZO5kXBlbnhsT2zxfq7bQhLge6/PCVDUfKpNvw3Slt56/rLkwNnX2n8ytlwFq6ukyd25thlxcZ6qNCXush1z/VKxkxWSGNiZendiXeeC5ic6Z5FzgzMO+tTTOqx/Nh55PbmfPQRdYZh1z40Xm1kC7vqejc7Nva3xuR+cnH1uyQp237Js3ziAwVRmUa+XvQ60xOccH+Peht4cyz032n/9G6PNVjYnn/YWJ9ryJxmvhYrFzU9pnzUV0PARMWU85/9y/k+78mThJ/Hb7kbn158r9njem8DkTAdMxNgNXnc+ubRl/47f6GgHAtGOWBxgIFIACUAAKQAEoAAWgQCcBU75oHzZsBPGLnPgW/E3fe5jmzVmYvPTpyrkLTRkfm3PFAho6dASAqcoM0YuesvvtB0wjWJrAvmSRGy0mQwtwAzkFPClAM87sW3DIbQV+unYsMLULfgtXiyxuzcLdgR1hiGEX/dGinRfrSVsBQCEwFNsOAd0srRK/YygqYMPAkeDi3QdnCnzpeVAQNOmDjxswy7fMWzsRNBhG47iNgi6OD3wsuZ03gjcRjGPgp3zI6lf7VmufQZPMk6pr54XjjOdG5s/Okxkrz1Hc3m0TAZoIxkUZvglwNwC+dra00SSBoRGEkTlzdNY66H01Hq6faO+Vb5gea5q0tRmEDMAsCNU+RPsWWNs2zlyquXd89nwofox1Ffip56WHxiXnS/S3wZ0PgU96XmRuxZ5/TNr0mHPSgjRbj/swYC4Glkuusv4lx8xYbRs91hQw9eLR2FCgNTymgA4D+fvAcRA8N13gHv3nSRQ7UaxqiK/+46SuuQ7rpbULa2HnzIkHLzYK2VH/KZecuwUe9eGeM9afSCP5++X9LatLI2tbjydvX18vAJhiXQEFoAAUgAJQoCIKrNyyhT51/TI66KuzaOhlM/CpoQHrxHqxbvgHBUSBTgOmcuH+qdPPpJtuWEmPbHk8uf2e97nsYyeeAlDaIFAqercVMDWAMx8suaAzWkA62ZS9DFxj2Mn2BKTyAlV9d+00BpjazDUXaLhZUJIxZ+skEEUW+bxVGXFmPwD58hbKzjE/Q8z57kMRWeDbrMEUtIsBrIYspj+xe9IYemHOySbzjKEBt+etBXFe1loC7jwg4Jf73+uBDh6gSnTS5Vc9rZ6FaecpqivfI8Djz5ONAW8sBXz1NdLfed9m+yo4lTUX3B/rxRnCHhyXrEAGp5x5vIyfQ2mAmQXdoov1IX0squOX+9/L6xABa505KIBTtI9tyvkSaxsGal6b3giGmnnSc+7Mj4WgooPYlq3JajXnpK2bHMvxJznXVR0/hnQ2pG/T+NPgvw92jmNd5TwWTfzvUt4b/Y1I/X1Qx0W/mtvMubDxE9KCyxz9BDazPf4bGvq7KfpJ3Xr8TdrY/zjwx+jq2ojzwmrh95X1Xa4DeAtgKlfX2EIBKAAFoAAUaJECP3/9dQP+Ll23jnbs2kW/f+edFnnSXt2yTqwX68bglHXEPyjQqcBUX8Bjv9zt9fXo1VbA1CxC68swtVmWOcCUM4higNo0YGoW55Kt2EN20W9BTgJRBADJNlmU24Vy3RmmKoNMZ3syPLNALbyoN3UWB269TcG6GB5MPJZemDiCXpg+giSb0YUHFQSmBqRFYO7iPjtfbrZpT3z7Nx+3oCwNK+rPMNVQOclcMzpbkG3mz4OgJruX4aieZ4kfD5xGczGCdk4fQxumHks7J/IjG9zMYBmTnbdwbOhs4qhNVj0bw2I7a2v+gyGBWVpne86Ytt55Ys8t3ZfXponAlMdhs1Qjn5JzPZ6bsM/W/+Bxb9xax3r+Ptg5jvv1Aan/XeKq1cDUQFGB6emMY6NLGXBaV4YpgCmu1qEAFIACUAAKQIGCCjDsu23rtoK1US2kAOvHOuIfFAAwHXyYWA+AbLc27QdMedEeQVPnGabxIt0FndECv2iGKdcTm2xH354/826d2cr96+8WYGg4ofddEKIgDcONJMuJywWi2DpJ2wSE8DEFAhSg0H0W3veARwLiYuCRQDoD1hSYU/2moEpyTAODCJa9wCAuvjX7DXljOttWMM8BtXzMB4Bs34BCedkM96Phbu05CepjAIoGosqOySzdSksSWMfH7DyxPQZYkgGo94N9JRqpPnLKXI15vPFcODqwxlk66Lnw+tQxYPQ+lnbyG7wnHks8R6K/jg15A3qUQZgNQnUbHoN+vEI9ujigkc+J5FzQ5wXvv53MhT83tl8GrupFSw5ki2yEsoIdH0wMRDYSgMl2cjNMta92LpJzXeIgLx69eLNjCtu2x21/hcryzk05D9W5q23y3Dckw1RprO3r/UT7oHbRPMu5qdv557BzLJnHkpqJD/EzhJO/oUm5n1Wfff44/qj2jSjX1yvIMMW6AgpAASgABaBACxXg28k5QxL/Bq4A64jb8weuY7tbADAFMNWLnXr32xOY8uLVvU3eAE7vZUySVZoLTHUb53l0EZQ1z6ozL4ZyAanTn9MuvLB2QQgDDYFy8ULe3GL/NM1d8bp9mVBcJ2mbANM4W0rdlu9nqpVaTBvgpp43qOGkPmZeDCXANAaUyUufBFxGIEDfHq5hgQGhMVyJ4JltZ46JPQ1gsoBpDHSjvo6lDTn1yujBesttvK6uIYAWlUl9C785DvTcsk2Z83CM1PIx0svOkwZRVruTaSe/eCmeQ79Nai5Eb50hHM95ZD+aZ9vOnXdbngN8VAy9MXUE7RRIXi/8MRAxniPzYiX7nwcGUpvzIn5RWgpuy9zaNv5LoRxAqvvarsBqDPBk3iVOEmiXgDaOgagv61vkg+5Hx1xk0/qX1859PIFtY57X2ai/D855FshS5vnV56ua18YBU8nelvmzc+Hrw/qJtlZXNx78NjJ/fA7aNul5qnWOho+Hzxk+NwudP0rPsP36/p6wLX3dAGDa7qsC+A8FoAAUgAJtrQBnRfJt5fg3cAVYR2SZDlzHdrcAYApgqhc79e63LzCtf5GYLDrVM0uTskFcnFa2jxzgUVmfWzFPCQTTsafhty5v/L4LWBpvH3M9uJoypNNgDnoPrt7Qt7a++roBwLTdVwUt9v8Xb/+Grtm9k478l7X0108up0Oe+iZ95aWt9MPfvJLy7K/++QbK+nBbtsG22Cb+QQEoAAW6RQF+cRGeWdqY2WYdWU/8624FAEwBTPVip959ANMtNKEV8K1KfQKY/v+PeciBC0mWYShDFMA0V7s8XbvsGIBpzjnWZbFQlXNGXzcAmHb3mmJAo5/3i8cyASiD0bOf/y49t/ffkz6yYGmonG3jHxSAAlCgGxQYetmMbhhm08YIPZsmdWU7AjAFMNWLnXr3uxqYYpGeDwqhD/RBDCAGEAMdGwP6ugHAtLKX+9V27IznNuTCUoGgf/vjWxJoKmVFt9wH/kEBKAAFOl0BAL7GzjD0bKye7WgNwBTAVC926t0HMEXWU1WyneAHYhExgBhADDQvBvR1A4BpO64EWuzzql89VQiWChidtOt7xmP5XmbLfeEfFIACUKCTFQDga+zsQs/G6tmO1gBMAUz1YqfefQDT5i1OAQKgNWIAMYAYQAxUJQb0dQOAaTuuBFrs85j+O0sBUwakT/z21dJtuB33hX9QAApAgU5WAICvsbMLPRurZzta61RgesiBw+iqMSPp8RPG0Z5PHk9vfHI8PTb+aFPGx/QFPvYHDo0BTLF4r8riHX4gFhEDiAHEQPNiQF9DAZi240qghT5vffPlusDn5S8/Wlc7hqbcJ/5BASgABTpVAQC+xs4s9Gysnu1orROB6eQRh9D//MRx9NtTxtOd446ga3tHmw/v/+6U8fT6J46nL44YAWi6/8BBqSyUAEybtzgFCIDWiAHEAGIAMVCVGJDrAN4CmLbjSqCFPi/4xeN1gc/D+9fU1Y6BKffZ9H8vbaCLR46g939gFE2cuYlefGeAHrzyGN160SQ66aCh9P4PRJ8vrH9tgEbRHApAgU5QAICvsbMIPRurZzta6zRgunpsL9FpJ9C1R4ymjxwwNAVFDzpwGF1/xGhTh+vqC33s1w9QAUzrXLxPPJbeXXwsbcALURr+QpQN08+gd+eMoWXQtuHaVgXUwI86/+7gnMA50cAY0NdOAKbtuBJooc+fe35jXeDzff98A/GHAWjZD/dZ/N+TtCQGkgImne2QsXT6SRfS127qox0v7c0w+wY9eL4Fm+//wAha8kRG1QLFe3+0kE4K+ARgWkA8VIECXaAAAF9jJxl6NlbPdrRWJWDa05MGnPpCvNb+Px52qAGhlx1+eE0QOmvk4abuBYceWrNurX5xfAh1CjBdNvVkemPqsOYtppsETJs+rlKL8RH0wuIz6N3FJ9POk0oAoJPG0BumXRiMpoHpMNo5h/sJ9JVpS3yL200fYWPjs1vo4rtfo7M+O4/OWrWXLp4zzx4rNf4aY77qaVq7/W3zWbniysHpo5H+whbmCDHQVTGgr4EATNtxJdBCn+sFppxhOrLOLNNyGaY1gKkHLkdOXUP/uscXtIHAdO9jtGCIhq92H8DU1x3foUB3KgDA19h5h56N1bMdrVUJmB56aC+tuPl2Gjf2+NIQs/dDH6bfnHI8fXNclDX6jd5RdOtR6QzS247qpUW9o4z9teOOoH//xPE0+kMfLt3fww89Qi+/+Kr57Hz8J6Xb6wVGJ+wDmNaAXi0GCJUFpgZUcoYtg8kSwDRpV1x3BqgJDHfau32zVu/GYNRp08vAVflogGk/ndY7yMA0jp2JK16nhgDTxO/i2iGTE1ohBhADWTGgr2EATNtxJdBCn+sFppe//Ajxp2x2Kdcv9wzTcsDUZJ8es5B2/NYT9aVN9LUJ8S35V26hPfXekv/EtTRcQdqTrnysfluei/gKBaBAZyjQNMD3+2fo2rkzaMTiTdTJT4Zump6dEX4dOYqqAdPHHtlJj279EU2dclEpCHnTkWPozU8en9yGf1182/2NR4xJ7HAdvl1/ae9oUzbiwGH01inj6YYjbR194Z+3f++3NyZ2GZiuunVN8j2vXaceazdgarIPJTtR3RLvgEWT/XkGvTAxWihHx8bE2ZA6q1FnLuryvAW2buPeks/9vDBVZU+qrMYN00+mnVP5Nv4o49EBgOr282QcOnMyGa+CfnkgNx5/1Jf20c26THzo7SHuV3wr96gBF1omC/MMH3j+ZF6SujwWf7yJJmxfjUHPLe87GrO2UV0zHrHhQNYeGqfA42lL99KUi/Lmm4+tpSXbX6e5F9h6GoJe3BdlkUbZpE/Txd7c6LoyZm6z5Cqxx/ZVO5WZuvaBrTRR27uon2bezbBX2mIrmmKLWEAMlIsBfV0DYNqRS4XBG1S9wPSJ375K/CkLTMf031lyMB4wPbuPXhUL7+ylPS88SWu+fLoDMRmaDj9/E6USTaXdALavrp+SPLOU+1nyowEYQ1MoAAU6UoFGAr43nttKC6+fT2NnziC2O3Tm5XT67TvoDVbu98/QTfNn0Kjrt1InP0G5kXp2ZMB1waCqCEwZmvLn+qXLadTIIwuByGc+dgxtPPYop+6KoyJAyi99YkjKsPTGIyNYKhf4PzhuLP10wjFOOzlWdMvwVAPUou06qV67AVNnQayAmQsaXbAYwUAL3bKgXWKjEIzyQF4CHaUfFyQa0CsAT2dlMsxLyiNw6YNM/d0Zf8hPHw6qOtnjS4+lZj+JXXecpl2mD3GmZwgcJ/ZieCqaKH3MPM4ZQztj6GrHE0HsN6YyFBf9e2icQFuxpfsoue9Czytp7gMuQE30YtjZt9a5rddtGwGNTGB6wVZaqSApt/XtRcCXHylQDo4kPpYcO9pBZ8RAZ8aAvpYBMO2ChUMjh1gPMJ2063uJC7xfBpre/qunkrbFdnKAqTLw4vopHjQ9nm4s25Wyl7ULYJqlDMqhABQQBRoF+PY+dQedzJB01ny69Jvr6dq7+LOKLrypswGp6CjbRukp9rBtPwWqDEwZmm5+YBud8/lzawLN350ynjiDVF+48/4dY48woJRhadYt+pyZ6rcr851vz8/KMGWQGrp1n8vk2AXnX0KcpSrfxRaXSdtn+p9PfOR6Upf7XnT1kmC9MmMYaN12A6YGmiUZl2ckGYa23IWlvNC3YC296HUzVtWt3wZqxs+/XKzLxUYaMrr9xHAwfranD2mT7woIhnx1bUrf2dvc+gIQVVZmBEIkazatnZ/5mc4OTQPTbB+4rp2zcRoca4inNYn3N3i327MfUT8jzPNNI7/UnJixqmxTDVJ1X0X3NcjU+709ZKBm/KxSk2U6AGCassV2PXtmzkyWbJHs2OxYieYex6EDYqBbY0BfPwCYtt86oKUelwWmH/jxzfTc3n9PfOb9v/3xLYWg6RnPbUjaFd8pBkyJ9tK2mXzLvX2m6Om3PZd0s+NKW/7+D0yhb72SHCJ65w168YHb6LKJp9NR8nxSfpnUxEvpxg3PEb9Kygelup9ofyHtUCZ599Uf9dGSL51OJx0kfY+goyZcSF9bvYVeHIz0V69/fIUCUKA1CjQG8L1Jm27irNLraIP9k9uaAbW418bo2eJBoPsBKVBlYPrg97fQ58+enIBCfVHu7zMwvSXwzFKGpAxLs4ApZ6Hys099e0W/M9zMeoYpH2OgKbYYcgoMFWAqx9iGtsPt/LZyXGCptGWYytBVvrdi21bAlOGZfl5mKsM0uu3eh3qZAE9BNV4wZ9YLQjUF5+Ljbvs8YBoBSuOnhoMBH1ybtcFGofr1gNOgBuxPGWDqasKaJ+BY23c08SGr0i4eRzLfJj4Ykqo6sV3up1SmrvYn3r+4L8oqZaiZ3E7P8FTfrj/ADFO2XfN5pwaWIsO0WyEXxl377yA0KqaRvuYAMB3QJXn3NS4DTM9+/rsOLBW1GJrysbxM03m/eEyql9wWBaZE9OhCB5i+X92WnwlM33mZvjXJBa0ODI0fAVAKmP72OVozdZTriwK5xv6QM+nGnzCKxT8oAAU6TYHGAL53aMttDEwX0ZqfZyn0FC3kDNRvbLa35O97k5685zo6eRa3vZxOvmkjPff4HeZ2/ikP/TI2ZNs998JmmnfV5eb4qKtW0abd0peto2/3f3IN272G+mJTrz10jWm78Mfc7zXxowMupzNv20zPvSW2BrZtjJ4D8wGtW6tAVYHp0iU30mGHpV/apC/M9T7fkv/9j451oKF+Zmnomabc/qHjxlL/ifXdku9DTe0P7/NxyRCVrUBQ/q7rMwzlTFEpC0FQaSMZplJX+pHvrdi2HzCVW64jKCbPsLSgMAJsCUQLQMhkMc3ALbldO2pXHKpxffElWpxaH/i7CwcdMJiAPXl2Z2zHlLtgj23KGBO/AzAvOeZB4KTcb+NASXdx7fjqt0t9Zx28zNQcH1xwGWjL9j3fHH8c2+4ccD3Ryu0nDVAzdUmNT2lz1dO0csVamvuAet6oAabynW/VT2eEhiAo35IvYDR6Bmpsw7Gn+ha/8AxT53EHdc2jaIkttOzyGNDXHACmrb2mb7veawHTQ576Jn3lpa30w9/olMzwMLkO1+U2f/3kcjryX9bSN3bvpF+8/Ztwg0KlJYDpK330BQ0m1fNOs4BpTRBaGpi+RhvyAKz2b8gU2lBb1kIqoRIUgALVUaBhgO9n99Lp/OzSmfPp0nuepJd/748xDTX7/2lOBD+/cQf1Pb6D+tYIxJxBKWB6xRw6/aoVtIbrfXMRjWD4unBj/AKptG3uPQuYnrlwEZ35zc205cdb6bYb5htbI256LHrWqu92ye8N07Nkv6heHQWqBkz5hU9Tzj0/AYf6Qjxvf3n80qcPHzDUtE2eWape+iTPNNUvfeLMVP+5pnn9yDEGnJItKmX+lkFmVh2Bn9KmCDCV2/J9YCo22KbUkbJmbdsKmMYZidHLieKXKMW3lzuw0gOPzjFngRxDV3OL/7G0c+rJBbIQGdLZW/WNLzF0dftJA1P7UiUXMBrQl+mD7s9tlwWLDGRNfLRQ1/YT+Z9A5VivxL8EIgeAXaKf9ivWQ7XL8iECyVa/xIfEbhqYRlms0sbTwADUdP9uGxdCZ+lWu5xfzpQGohHw5Bc/vU5zV9hnmIZur3czU6OXRa1csdV56ZPfLmmjXlZV29e8ucMx6IcYQAz0ONdrAKbVub5vS08YbjLkZNjJ0LNeYJqXbcqQtvi/wQWmLkidRw/+Nvbsnb306rNb6MYrN9iXTAVuzfdf+rR36zznWarDT7uWtr0UZ5K+8wb99Db3WavDr3yyuBSoCQWgQFso0FDA96sn6aZvRBmgnDE66Z5n6I19IoMHNX+/g+aZjNNN9HJSh+i5DYvCGaYzV9GWJAv0l9T3Dc4evYk2mTdKebbjLrOA6fF9z4hTRPQmbbhe21KH6thtqJ519I8mrVegSsD0qKM+SvypB/Id8aEP09unjqfb4tvyF44ZRQxIfVt8iz4f4/J1Rx9hbscf86EPp+r57fR3zgSVTFFd7u8zLM0CmLWAKdvXfTAkle9ZwJT7D2Wm+n4NxvcQMB07BovpRi+mGVYG4aAGhdiPMt4Ygqaes4qYbHRMwh5iCjHQvTHAv/P6mgLAtPXX9W3rAd82nwc6B3JLvrY7aMD0pfIZpj+9/njn1vnhEy6lWx94jvZk3C3vZ6T6wPSni/Xt/WfSmhf8cHiNvnW2PNN0KL1/yLX0U78KvkMBKNDWCjQe8L1Db/x8RwJOT17zlHm2MpEHNX/2LTr+shk0aZPceh/L+FT2LfnZt9t7tmNTWcB0ofeSvZc3RZD22n8Z+FQ2Xs+B+wQLzVWgSsBUX3TXs7+od5R5VumC0SOdC/iQLak7/fDDatb12zMIZeCpP1lglCGnrie33dcCptwnZ51KW94XP3xgyn1LPT4m9Zq5DQHT0YcdgFs1GwwvAUzzwUR2Rmp+OwAf6IMYQAwgBsrHAP/O62sNANPmXsN3TG/8QiYNNbP2+QVP/kuf+EVQWfVD5YMFTPdsuNSFn4tt9qabSape+vTKBjpPXvSkb5f/wCiaOLOP/tV7OVM+MOXb8RUM7b0pCENdX9Ivi+qYoMJAoECXKjB4gO+t5LmmfeZZox7UTIHReAJ+3HxgGj0aYH7O81eLB8fg6VncB9RsrQKdBEwP7BlCP55wjIGm/DzTQw4c5lzI80X94R8cRg98dKyp84Pj3Gee6ot+7A9JaZenSQiYfmTYBwFMGwxMsaAvv6CHZtAMMYAYQAwMTgzw77y+NgAwbe01fVv2fvuvnioFPCft+l4yTt4PQdG8ssEBpl7m5gdG0IKtNk3UhZQKmPJIfvkY3XrRmTTSAaYx+DzmWvqpNUMApsnUYwcKQIEMBRoD+H5JmzbuoNfecTvp7+NnlAqI9IDpLzfTFL4l//qt6tmhb9Fj34yea5p6hql+WVTq+aS/pL7FfFv9KtqSPDtVbttPv/TpzA0vWkf3vUhrFvKzV1fRY0lbe7jsXmP0LNsr6ldJgU4CpnzRPvyAYfTgcREQfefUE+jJCUfTHWOPMLffM0z9j9NOMLB09dhe+kj8vFN9sY/9cqBU9AoBUz52yMEHApoCmiIGEAOIAcQAYqDDYoB/3+UaQLYAplW6wm8TX8b031kaej7x21eJP3lgNOvYYADTF+90nw36fs7uVKAhF5jKPO19jf516xr62gR9W/1QumyDeaCfqZUPTIncW/IvpA3/U4zL9mVa80mVhXrSGlKYQSphCwWgQBsr0BjAF8PJWfPp0m+up2vvWk/zllwevUxp6eb4GaUeMKU3adNNDDln0MnX30sb4hcwTVqY8QzTXGBKFMFZZev6+TSCX0J1WRqYjpg5ny68Zys99vhmWhg/c9WBqAOYz8boOQAH0LTlCnQaMJWL9skjDqGHjx9LDE0phqS8z2VnDD84dZEv7bBtLDBlPTkDhW/bwzNNByfDB5lT0BUxgBhADCAGmhED/DvOv+d+ZqlcOwGYtvyyvr0c2Prmy3VBz8tffoT4kwVF88obBkzf2Ut7XniS1nz5dOdFS+//wPG04FGVFkpEWcD0p7dcSrfe008v6oeWvtRHF6ts0y+st0/5qwVMUy99mrSGfvrL2JfAS5+Ou7a/vQIG3kIBKFBTgUYBvtd+fC9d+o05NIqzRi+bQaPmXkOX3vOkyjr1gSkRvfUi9d02P2oz83Ka0vckvVbXLfmerVnzad5DL9KWNWFguvBx1a+p+5x6OVVNyXIrNErP3E5wsNIKdCowlYt3bOsDoGV1y8owLWsH9ZszX9AZOiMGEAOIAcRAo2MAwLTSl/zVc27BLx6vC3qO7F9Dh/evqavtgICpApnvD+6PoPPufDkldBYwdctV5mdi+2S6Vb38uRYwpXdepm9NcjNUw37yC5/m0bbfplxFARSAAm2uQNUA32sPX2eAq/9ipkbI/NpD1wyabfGvanqKX9g2TwEAUyyYGrFgAjBFHDUijmADcYQYQAwgBto3BgBMm3f93hE9MbzMywbNOva+f76B+JN1PK980IDpQZPoxkdtNqieIBeM2meYuuU+MB1BE6/vj99GHVmrCUy52m/76cbTakDTgy6kb72gPcQ+FIACnaJApQCfPE/0sutow783XmEA08ZrCotpBQBM23dhUqVFJYAp4qhK8QhfEI+IAcQAYqD5MQBgmr7ORkmOAvVmmDIQ5SzTPDCadYz7LP7vSVqSZHv6QHMoDR95Op3+pXm05oHnaI96Zqlv3wWjFpju+Ukf3XjRJDp9pAWcbPMLF91GDz5rn10q9goBU678zhv04gNr6GtfOp2OGiJ+j6KTTrqQlqx/kl7N8VX6whYKQIH2VKCVwPTJf1pEl35zI2348ZO05aH1dOn8+Jmmdz3j/OdPo5QFMG2UkrCTpwCAafMXFJ24iAMwRRx1YlxjTIhrxABiADFQPAYATPOuuHEspUC9zzBlpWrDPwAAIABJREFUGHr5y4/WBUy5T/yDAlAACnSqAq0Epi9vuYkmzb3c3CbPfoydfx0t3Na454n6cwZg6iuC74OhAIBp8YUAFk3ZWuUBU7z0CS8jacbLSNAH4gwxgBhADAxuDOClT4NxJd7lNsf031kX+Hzit6+Wbsd94R8UgAJQoJMVaCUw7URdoWcnzmq5MQGYZkNAANLi2mQB00MOPpCwgB3cBSz0hb6IAcQAYgAx0OwY4N93/zoJGablrsFRm4hW/eqp0uCTM0z536Rd3yvVlvvCPygABaBAJysAwNfY2YWejdWzHa0BmBaHgv7CAN+tdiFgypmlzV7AoT9AA8QAYgAxgBhADDQnBvh3Xl8LAZi240qgAj6f8dyGUuBTgOlze/+d/vbHtxRqy33gHxSAAlCg0xUA4GvsDEPPxurZjtYATC300xf92C+nSwiYjj7sAADT3uYsWgEHoDNiADGAGEAMNDsG+HdeXy8BmLbjSqAiPs/7xWOFwKe8zEncZmh69vPfzW3LtvEPCkABKNANCgDwNXaWoWdj9WxHawCm5cCgXhhg32oXAqb8rLNmL97QHzRHDCAGEAOIAcRAc2KAf+f1tRCAaTuuBCrk8y/e/g1ds3snHfkva+mvn1yeC0F9t3/4m1foKy9tpUOe+qZpyzbYFtvEPygABaBAtyhw0Fdn0e/feadbhjuo42QdWU/8624FugGYTj52FPFHX9Rj38LORmgRAqbVXrBOpl1vrqddfc1ZVIa1qIIPrRy/9A0dwvEh+mALfRADfgycs3wPbd64nc5pcRb/rHVUCT98fZr5XV9DAJh295oCo4cCUAAKQIEWK/Cp65fRjl27WuxFZ3TPOrKe+NfdCnQ6MB1y4FD6t6+dZj68ry/ssd84aNo6YBrBtn1vrqd9by6i+3nx3LeI9u2eQcv0QnrxDNojx015SUjHNk0f62nPtvGFM2eXbVuZU7+kD3o8/r7yb1//5ML+jettoA/GVjwHiX96fniOoo+rYSN9qA8s3d+fDc95DlPxlIzP74/H4mvg16n/u44n41es56CDfz5//HMqU4P88ekxFIc6fhytpB2LpR99TJfLcWyL69xcrRh63rd8QYm/V9a/2sB0AS3duIeWTrNtBkOHxgBT9pVo85bos3q+8nnadrovLufjab3uotV8vIXwWF9LAZh295oCo4cCUAAKQIEWK7Byyxa6dN26FnvRGd2zjqwn/nW3Ap0OTK8942h6d/EZ5sP7+sIe+50CTH1AxQDFBScGLpUCiWrBqsBQWdhTtv6AF/QMTkuNM4JNjQFubMufC9FxPO3YnQ0lBzxuNUf12GpHYCrjzPNd6gx4WwlgGo4tPsckfs153iCwO2DNBhiT3dD/QIBpbX2aA0xr+yF/A3O285+1IHT+s7R5y7M0y8RPBFItQGU4Ksciewxs71v3LN0HYNrdF/MYPRSAAlAACkABUYCzIm/buk2+YluHAqwfskvrEK4Dm3QyMD3yoOG09+rP0KZpJ9ID0040+1zWCFD6TP/z9PBDjzi2Ljj/EuLyRthvtA327eUXX6VFVy8ZFP9am2GaBikMkWwWowvrDFTJyMzTx0JZhXzc2o0WrNyXZE4mWa4mo1WX876FuLofgT2y8NbHtA9cvmsbZ8rGdkNgtDQwZW2sX0EfHAgaaSnjFd9dDUL+uXMQ6kds8TEDAfujrN4922aYxydYLcI+GJs601b57c6bGrNTX+bLi6dSmkbQeAdnpZp5Utp6MaHj6P7+lbRjW0YWs+ejbpdo5T9awulLjceMZYaB15F/6lgQ8Llay7xbHyLgLuV6Dk2mt8Rq1lzEY3PaBf3Ig/EKRCmwa+a8f1F0vvTLmGW83rhC51LQD9UXjteVGSrnPm8jYLo9ypDkLMl1dyU2U8cSIBhnVGZkVZqMzyQjU2WYGhBpszg3b7HHdJt0Bmdgzr2sTze7080W1WOSMVsgGrDd60JR45vowmNIdOihcfKd/dHlTY5Nfb2CDNMOXChgSFAACkABKNBeCvz89dcN7OMMSb6tHM80LTZ/rBPrxboxLGUd8Q8KdDIwffB8C0kFnnKZvrivd5/BqA8gqwxM6x1n0XZVA6bObfkGHgkosQtUA+U0aGJ4o7LTDLj0QIoL3qytBAIYIGVvia9Vv4wPxp8EPDFAUjBOFshe/4lfcrzQNhtOuf76PmS3G9cbAaosMObajYCpmQsD1Hic1rZbV/ngz7OaT3ceFDCN9XBtBua1kG7cjv1Zn2T5mjnzYiiaE9cH7j+JPT0Ovd/bQ+44Ij/TvlutTF9Khwhi2rgJ2QvGDPuhzg07Bp01XHIuzNisL8F+E91jXQXABjWN9JEMa6M9ny+mH/ZTad6Q82QgcYK2PN/mtvokY9LNpnSP9RCDQ5tp2UPjApDQtBG42KszTBlCuoBUwGgEZuWxAK4P+TEZz6HvB0PMxIf0PPvjSvUhEDSJfdHJBcrjDFiNx+T7oNqm7A/CMX2dAGCKdQUUgAJQAApAgYoowLeTM/jjFxfx297xydeAdWK9cBt+RQK4Im50KjD9wjGjzG343/jMuASQXvOZ6PZ8PqYv8OvZZ2C66tY1TkYpgKl7i38zFmoRoErD0Kg8hjEZcMQHTSl4FIBEqToxxJIMO7NVMCdUX+tSxgfXloI/egGcMVbdZ+19tu1mxEZtPGjlZ1AGn2EqwCCyWQaYmrrJeAQC5viQ1JU+pY0PGtPa+fNQWyPpw9/aPo0NxyffdwsL3f6tDXfO/XFEfbtt42f4CliUrcBOxx/f95zvgXMhdO4lvqT6cccUnS92/OX0jmLJZrnGfnOfyX8oKK0S39W8xxA1gdT6HMJ+kuVZbl5y4idDUxdWSsZpBC/9YylfUpBQA1L2RX/PAqYRIJVnh8rWAbMZvif++H7w94zs16RNlk3T1oJdrm8Aa5w9arJN1b5A3xA8rtlXlg91lOtrKADTilzcww0oAAWgABSAAlAACkCBgSvQicBUXvT04uWn0gcPGErbLz7ZfLicy/glUAN9ARQDUwakfFv+vd/eaACsD0z59nfOQpUPA1a9sOB9bivt+Tvbldvmebvz8Z+YNpLRyrakjOvzd27PW+6fj3E/0qd+bACXSf+8r+tp37iNtGfb3LduJ8e4PymvXIap3NbdF9/erTNJ4wVhAnfi7z6cGpeAFgsCgnV0pqcHilL1vcVoGR9cWwr+aJte/wNbNEdgyj5KwEKvsN2845GtxgDTECCPQaGC1Rro1dLOn4fw+GwcZB/3NFDzwX1I9mOUcWuBodu/teH6rSCgmnO3bUgH5bfyJ3sMqr70EzgXtL5iK/El1Y8/pugxC1nxIPaytr4ufuYst0vqJL4HzhmA06bB0dBc+lBUZ5H6x1LtfVDpAFKOYQ1MPTCa3L6u6wTiXuI/b5vyI7ZTFpzG9V1Y64LeaEycacvl+vECsr+nJfMp1wG8BTAd+HU5LEABKAAFoAAUgAJQAApURIFOBKbyoqezxh5ugN5jF59M/OGLeS7jl0AN9AVQAkzZJgNEhocamPK+lMtigr8LDJUyricAlI+xXQGovNUgU9pwfbHDNqU+H+djPuDkPvgY1xUbvC8wVfrlY9yfbs915Dvvh/zhdlUEpgai9C/KfBFRAndkMcyQRzLxYuBqAVe0CE4gjLQxwEUAXgwYFbTj+r4NvfAv44PbdwD+sE8pUFUnBJDxKfDMfrO/qcy+pC5DMQsB9TjruSU/nGGa44MzFxEwk/nU82D2PT/zx1VGQwsGzfjVfDh9cLnywY0DZUPHZAz3fP3dtuxrzjwof9z5qTFGT9uorQfBTZ14/r36RvP43LJxzH7qW/pr+ODEmWqn+03qFASmpr7SW7UvpQ/a1QXqXCjqwkH3WCA2AqCSgatkXXL75Dmlgboyv6Zezi30Jnsz+Hb62Kcc29Ft8+5LmiK/3LKonvfIARNTEei1ENXVSMaADNOKXFDDjWoq8O677xI+0AAxgBhADHReDFTzVwdedZoCnQZM5Vml3zlvQgIHNTBluPfdv58w4BdAMUQUEMkQkUElfxe4yGUCJAVSMtjUcFPKxRYf0/BSbHE9tseQUz4amIod3mqY6n/3galuJ8d8KOqPietJ37p9JYGp9zxJWVwyYHJuoffAVXJMwdMIsrntJDvO2otf3KOAaQSvpJ2FibZNjWOeDxaWDSIwNQBK/FLP1kzgUtaxGFLKbeCODh5ciwFTlg5cngVMXU1d/9x5EpDNYCOCc9EjE/gFQHYuTFw4Y9btAqAmF4558E0DSt2HeQmR9SEZb6Kx+BDpZvzePYPuVy8dy9LOjMcAWTtPSdxof3LHkR637i+xp8fkwc+subDAtIdMFvebeRA+9iOzH6WPxF3sR9IPtzXnkT1nXN8K9F9SK/lbg206jrQmETyU7EgXGPIxgZ+6jQBMuX3ebAV4xlmaXHbf8rto6Ua5vd3LMHVumfePeTAzthn0hePCA6b+mPx2IWBqbrX3MkaTdmpMPC4LT5W2ng+OXk2IXX0tgAzTTlslYDxQAApAASgABaAAFOhiBToNmPJLnX531Wdo9Ec+kglMGapynYG8AEogpywUBFQK5MwCplwubWTLoJTLpa3Y4i3X4WOyz9/lOO8L6BRb+lheXb+dfGdgqoGoBqa6D64vwJjLQ8B07Bi1oBu0RZsHqAatn2aMpQF9DACINXuRjf4aMN/dHu8Yf12ZnV137qVexJSRqVlPPKVsd9d5zb/zcm3AWwDTLl5QYOhQAApAASgABaAAFOg0BToJmMqLnq46faxzAa8v5mV/0afGmVvz630BlA9MJTNUoCfDRB8q+t8TX+JnlUpGqgBSyUbl73JM7ArUFNAptgYKTLlPDWe5XxmT9MFbLme/pCwETEcfdkATFvMqc1C98KXrgIDOKHQyO7tr8d51814P4EGbJvxdwnlX5Fx0skS9DMtGHpNb3rVNydTUZUX2eVxuFmmUkVqkbTPqFNG9kXX4d16uA3gLYNppqwSMBwpAASgABaAAFIACXaxApwBTfonTz2efSj+beYp50ZO+gF99znG06vMfdS7q+WVQz371FNOmnhdA+cCU+/PhIkNNBpryEcipfZN9riMAUqCozuAUG9yvhqJcLjZ4q4/533Vdvc/19He2wd/5wwBVgCmPT8o1VOX2IWD6kWEfBJgAnEIMIAYQA4gBxECHxgD/zvM1gHwATLt4QYGhQwEoAAWgABSAAlCg0xToFGAqL3r69BGHJRfucgHPL3qaeFS4vBEvgJJ+OnHLkNeHo6FxhoAp1zvk4AOxUO7QhXIjs5RgCxmJiAHEAGKgvWKAf9/96wEA005bJWA8UAAKQAEoAAWgABToYgU6AZiOPfgg+v3Cz9DuOacRg9Myn1fnnG7asg3/wh/fh5jsUnk0QJ4eWcCU23AGCt+215xnmrbXghOAAPOFGEAMIAYQA+0SA/w7zr/nfmapXB8AmHbxgqIRQ5e3WDfCFmxAASgABaAAFCiqAH5/iirVffU6AZjyy5s4U3Qgn4G8AEoWCp2w9R8jwLfhFxlXHjAt0h517C2N0AJaIAYQA4gBxEA7xgCAafetIxoyYlmo8hb/oAAUgAJQAAq0QgH8FrVC9er32QnAtB0XFZ3mM4ApFvedFtMYD2IaMYAYQAyUiwEA0+pf91fOQ71ABTCt3PTAISgABaBA1yiA36OumepSAwUwLbcYwOIprBeAaVgXxAt0QQwgBhADiIFuiQEA01KX4N1d2V+YyvfuVgWjhwJQAApAgVYpIL9D/rZV/qDfaigAYIqFXCMWcgCmiKNGxBFsII4QA4gBxED7xgCAaTWu7dvCC39BKt/bwnk4CQWgABSAAh2ngPwO+duOGygGVEoBANP2XZhUaVGZB0zx0ie80KRdXmgCPxGriAHEAGIgOwbw0qdSl9ionKWAvxjV37PaoBwKQAEoAAWgwGAqoH+L/P3B7Be2q60AgCmAaSPAaxYwPeTgAwmLz+zFJ7SBNogBxABiADHQjjHAv+/+9QMyTKt9zd9y7/wFaOh7y52EA1AACkABKNCVCoR+k/yyrhSmywcNYApg6i946vkeAqacWdqOi0D4DHiBGEAMIAYQA4iB2jHAv/P6mgHAtMsXFbWG7y88Q99r2cBxKAAFoAAUgAKDoUDoN8kvG4x+YbPaCgCYApjqxU69+yFgOvqwAwBMe2svOLEoh0aIAcQAYgAx0I4xwL/z+roBwLTa1/wt9c5fdGZ9b6mT6BwKQAEoAAW6VoGs3yW/vGsF6tKBA5gCmOrFTr37IWDKzzprxwUgfMa8IQYQA4gBxABioHYM8O+8vm4AMO3SxUTesP2FZt73ffv25ZnCMSgABaAAFIACg6YA/wbl/Ub5xwbNERiulAKdCkyHfXgU/d3Zc2jOlQ/STSteoOUrXqQr5j1gyviYvsDH/sChcQiYYrFZe7HZPRqNpx2719OebeNbCNGr4EP7xsSybStp3+4ZtKyFWdNV8KEdztn7+9fTrr72jbV20LhuH+c/S5u3PEuzWnge1e17hs/6GgrAtFKX+NVwxl9gZn3nhep//Md/VMNpeAEFoAAUgAJdpwD/BpWBpl0nUJcOuBOB6YQTv0A33Pws3XzrS3TBRStp0hcXmg/v33Lbv9ENy5+jE06cBGi6/8BBqSyUWgdMJ9OuN9fTPvNZRPebBV0ExqIyPraSdizW8EC3sWDBwJg3xUYPMXSwgEjb9O1p23Y/sie+rad9/ZNbCAutX2UXyzyO4qBTa6t1KgsrlZ1cSMf17Jzlj62sD/VrluVHOS0b3z/7Va8PJp5z56Ief3lOdJzk2xgcH/L7TM3l4hm0J/U3p6SNDPCU6quOekYj/bemb5HzN9AcL3zOtHBc07bTfVuINsef+5YvsH8/DXSMj627y5b33kWrVZvNwWN7aOm0rHFxewszz1m+J+l/9fysNiXLGwlME42sz42IobI25DqAtwCmXbqYyBp2FhzV5bw4lQ+AaZaSKIcCUAAKQIHBVkCAqfwm6d+qrP3B9gn2W69ApwHTaRcsp1V3/IomfXERDRlySAqKDh16GH3xS183dbiuvtDHfv0AtbXA1AdmHoQxgEOgjAfN1DEGCXt2L4rh6mTa1b+IdqUAkWc7B2gYe0lGZQQA2zHryx1HPhwoU7fQopznJzUH2ocywFS3a81+w/XJib8sfavgg/Wt+Plk27Rm7qT/Smdvmr9n3t/DvkW0Z/fKOON0PO0wf9e8OnXEkegxONsFtHQjkYWUCmQaSGgB4ax1RAJT9f64XrYRw9GkDdvJBqYMSMWWHhfbtb60Nv4Svxi8btxO5yRja51f+toJwLT11/WV8SBrcemXy8KUF6oAppWZPjgCBaAAFOg6BeR3SH6X/N+rrO9dJ1SXDbhKwLSnZ+iAAOYpp11oQOjpn55e085nzviKqfvxT/59zbp6MYD9MFStNDDtjbJFTZZkAMAJQDIgZNsM2sWQs28R7eoLwbjigEfsygKX7SeZmibry2afapDK7Wx2rAYbEexNjsVZZCGAY8vcNkn/SabhDJuhq8Gk559uJ+MJbW2/avGubKXtuP5pHYz9wHyN63Xb7CuSLZfrQwSzRde0j2osMVi6v38l7djGmXvRHDptVF+JbwZk2fmO2gnET9t3tXX9sxrllO+eQTs4Q9r4F/dTywfHb5t5Pa5X9aNjxJxXOTo4/ek4jrO3kyzNIjrU6UMWCHR8U+dlVv2knGMv5K/y702tXVw/FStcfxHtMnNkNdRxFP0dcHVz4yIdN/7fHK4flc2gXfz3YjH/fZusxuCeS7b/LL/jPnWseDFRy8f08Sgr1AeVDCmTDFGBg7095ELNCKwacBgfk/1xQZCYB0wVlE3mOxpvCJjq7NOkT9Mu9imV6arLLfBlPdjW6uUqo9bJjO2haCwZ0DY4znRspHVvXB19XQRg2mWLiLzhZi0sdbksSnkrC9U8mzgGBaAAFIACUGCwFJDfIf3bpH+zsvYHyx/YrYYCVQKmhx7aSytuvp3GjT2+NMQ8+OCjaPnKF2nahTen2nLZ359/U6qcb9Hn55sedFBv6pheAOTtv/ziq7Tq1jXB9lzOx/Pay7GHH3rE1L332xsL1Zd2VdlWHZga+MDAgBf6+nZVXuDGZQaCLeYMLIZNDCoYGvjAIgYJzi3+4YWnCy8YkIRAC7eN4En0OAG979kN+R4DEQPRGAIZeGF9dCBtDBoFuBlNFGxMYKeBSXbc7jg8n2KwENkSQBdvPZ1DdpI+jZ2ARsmYbL/umHL0in3ToCDkQ6hMtwntsw/J4xq0XnpfYksBpfJ98VxqACc6+OVaO963EJD71DFfzIeArhlzEdTBien4HIt1cP2xsRrSOVVWygfRqta2mA9mzhPIG8V4BBjz5iI6ZvUXXe0cJbHknd9GJ3V+prRIxXd4HGyHz/n7+xcZyM+PJ4n+1qn/SDK29Diy/O4x0FVnfbvzWUvr0PEwMOXxJlBSAUQLL6N2BjRypqXoIbfr6zI5Zm7Zz8gw5XaqH6237TP2XwHcxM+4rfFZ7ARhZhrMRuMUiMrHPR+NHQDTalw1w4tCCmQtKnW5XpAKMH3nnXcK2UclKAAFoAAUgAKNVoB/gxia+r9P+rcra7/RvsBedRSoGjB97JGd9OjWH9HUKReVAodfmnKtAaah2/A/etxEOvajZ6bsDRt2ON1y2y9o8rnXpI7VApECOHc+/pNMYFrLhhy/4PxL6Jn+50v7IO2rsO0cYBplZEWAg6GBBYfRAjoMJfTiWvYj4GEhooBKc9yANXssyURMsicDcFXaKADHtrgfBjfLtvGttxr0pn2Vurqd+CtbXSevntTXW4Y/zjgTUGH9tPUjaCRZmk42pLRLATIBTgJe/O9SHt76YzO+MKhiEOYBXutn2pY7TuWDB71cGB7SIG3b6Tc1fqmv+oy1sj55xzyfghqwDYmvBAp6sR/wxfbJfql+RdPElgBmPyb97zK+jG0ZHySGglv2VZ9/gfMt2C7krxp33MbqEqrvapXU9ebJiYOgL75G4b54vs05yfbjvx3Jfw552bI2NsK22Ceu456z5c6douMyEDGGnibbVO2vnq+gIsNEgaMGlkbg0YWQopVq52iqbt93yqN2PjBl205GrPLB9FsHMLX28n1J6ReEsjLe5mz1NQgyTKtzfd9ST7IWlFLuL0Z5gcoLVQDTlk4bOocCUAAKdLUC8jtUDzTtauE6fPBVBKYMTflz/dLlNGrkkYVA4sJvPE5fnnF3obr64n7W7A20YOGjpduJjUYA00VXLyG2IzbbcVt1YMpQwmSDBYCLQALJurIL0hA0CJWFF6Vi19qTemzDZgA6oClZrEd10i+sUmBLwGkMWjiD7H55lIA5lvZV+6T3tY9+uf9d1/X3E/iTjEPGHIKFadDk2zMQT8ZpbPpt/O+2v5QtBZdDx0ymcUFw6o5T+ZCCXupYrf4DmqXHL+Nz7fJ4rE/eMc+n8HwWiMnAuWP7ZL9Uv16fVm8/Jv3vMr6MbRkfQnrGZey3BeRlfAjVVeNW9qP/OAjVd7VKNMzULEOL1PjCffF8+/+JEfWZrm9jI31M5tDWKepXPfV8sBndzs7PEY1AqMrATLI9bR3xlUGnBZHsh2839i0nu5RtlQGm4wy0tS+rSj/7lH2QbNKofxfAAph2+GV35w9PoGjW1oel/F0WqQCmnR8fGCEUgAJQoKoK6N+i0G9V1u+alFd1XPBrYApUGZgyNN38wDY65/Pn1oSJt9z2MnGWaQg2XjHvQeJP6Nh50240mamhY0XK8oCpBqGyL5mpfKs+Z5ZyOe/Lh79zv/Kdt9ymiC+trFNpYMogIrm1lUGAyoJkAGNulQ8BgqJlYSCQDRZcH7ie9c+1lcCUFBxRkMZApEXm2YQRYOOXV82gZfrZraY9t7Fjz/SP9RJIafTRcNf1T8CEbLP9DQFT/5bggO0UIHO14/6ytBOf9DZzzKJvqr+ATw6c5OPeXCSxFmfjiZaSnVcikzWybefMjsXVIcoOlSxJ5Q+PywNxJt5SPrj2gjEZ0Madb90v74s/robcRp6VGfUTrmfHqtqX8kG1k/mNt9qHCJQX9YF18uu62rlzEarvxkyiYWieVCwF9fDGFYrvxL6qK2WODiaOJday/Jb/sPGyj5XtIn66dRgg+mDTh58KdKpszujFTratC0h9G6y7sqN89oGo618amBooKlmtMVCV2/lr2Yp8KAlMTRYpbskf2NUuWjdNAVk4Zm1Di1C9SG2ao+gICkABKAAFoIBSQP8WhX6rsn7XpFyZwm4HKVBlYPrg97fQ58+eXAgW3nzrS3Tu1OuCdfOA6ZTzrm8aMGX4Kc875WeVCggVmCrAk2/Pl3pcxlC26s82rR4w1bfbeot7hi7J7bgCP0KAoGhZGMyE4EWyEDcQN/JxD79oSsCI45vcxhzZj+CSHZdAJ4Fq0Xf2WWfPMbgKtQkDzMi/2Aa32z2D7o9v+U98V6DBLxMQo8t9v/l2Xpvx5vrng1rn1l+BfEq78Iu50vOR5wP7rPuxvqXtyLjccWpQGEPSRHMv9mIoFfUnsZfdj+nPi4nEv6xyDXB5rjwQJ/GS8kHpmhuTPLZ4LvJ0SDJ2Yy2SeFV+73FeQJSjg2qTzFURH7JiVdvjZxanIGiWL6G/CQIRbRwlc2QesRGaZxsziYbePEUx68dPll9xuRmX2yaxr7SwZe75l8xRpt9RP/75ZMdbwz/lg5xLEUC00DMpjyHh5vjlSTpTM8oyjbM45fZ3YzuCr9LGZpe65ea4AE8HwLr+M/wUW9HWZrY6x8QW++BlmHK7yPdsH2pmmIaAqaeP8c/Rwh1LomtwDgZWV65deItb8jtogVDPUGTRmLUNLUD17fhvv/12Pd2iDRSAAlAACkCBASvAv0ECTUO35fNvWNbvm5QP2AkYqJwCVQWmS5fcSIcdVvxlTHxL/mVf/afSwHTm5ffR1YvZ3k5WAAAgAElEQVQfC7bTi4Cs/bIZpmJHQ1K9H3qeqT4u7au2rRYwHdjiL39hmQFMBmERmu/HYI4RtqE9YqBdY8DATPnPBfxdolrzWDsjtMy5kL6d3sDdFoHMWmNv1HF9PQJgWrnL/OY6JAvGrK0PTHlBCmDa3DlCb1AACkABKBBWwAemIWia9fsm5WHLKG1nBaoGTPmFT1POPb80wPzS1KUmU/RDHzo41TYrwzR66RPfyl/+pU+yQGgWMJVsVOm3atvWAlPJ7HIzqxq1GIzsqKzLjFuNG9tfmUU66kJ7xABiwMaAzSC1ZVXUZ8PG170MTj+js72+s8ZO9itnx8bZp26m6uCMi/VsxTzr6xEA03ZeEQzQd1ksZm2zYKkAU16oIsN0gJOA5lAACkABKFC3AvI7xFmm8h96gKZ1y9kxDasETI866qPEH33xXXR/xIixtPL2V4ifSeq3yQKmF158G91868/poIOPSrXxbWR9bzQw5X5Ct+TrW/SzfGlleeuAabWBQCsWr+gTMYEYQAwgBhADzYoBfe0BYNoxy4PyA8kCpVKeB0xlkQpgWl53tIACUAAKQIHGKKB/iwBMG6NpJ1ipEjDVF9317J99zpW06o5f0Vmfu6ImAJW6p53+jzXr5vkyGMCU+9Mvfar680vZXwBTLM6btThHP4g1xABiADFQnRjQ10gApp2wMqhzDAJGQ9s8WMqLUlmk/v73v6+zdzSDAlAACkABKDAwBfg3SH6PNDAtm2U6MC/QumoKdBIwPeCAYTT/6q0GmvLzTId9eFQKhn5k+GiaMeseU2fW7A2p4/rCH/tDCusDYFqdxStAAuYCMYAYQAwgBpoVA/paCcC0alf5TfQnBEqlLA+Y8q2PskAFMG3ihKErKAAFoAAUcBTQwHQgt+U7RvGl7RXoJGDKF+1DhhxKM2bda4Dorat305VXbaHzL1xBfPs9w9RbV79qjk27YDkNGXJIYSCoFwTYT4PUlgJT83bvwXx+KRbezVp4d28/9q3p3asBzjPMPWKgHWNAXxMBmLb9sqC+AQgYzdoWAaa8UAUwrU9/tIICUAAKQIGBKyC/Q/yfeAMBpvxbiH+do0CnAVO5cJ9w4hfoq7PvJ4amfJs+f3ify4455gyA0v3T0FO0q2fbjsCUX4yy783os2fb+Ia/LINf/nHf8gWZdjPfzjxtO90XvyikaYvnnD4z/WzRG7j1S1VWz88GLK7+/PZq+6KVvHZac93X5kJvur6LVm95lmbF2pj2ReeSwf/uGbSsRbrqcWM/O66gDbRBDLgxoK8ZAEw7Z31QaiRZoJTLa8FSyTCVhWqpjlEZCkABKAAFoECDFJDfIQGmA4GmDXIJZiqgQKcCU30Bj/3GwtGQni0FpvUApsUzaM8gwykX2LkLTF5wZ4LIHHg5WAv1KvlSdIyZPpt4cMEl17Xw2j2W3d9dtDqBndyGqDZoVbbrmEeG+IMB77PHmI5L1IUmiAHEQJkY0NcEAKYVuLBvhQsDBaaySN27d28r3EefUAAKQAEoAAWIf4Pk94hhKYApgoIVADAdfJioFxOdut8aYDqeduyWLFH3lvxl21bSrm0zaE+cQbqvf7Kb6cnZfH5Zbw9xO8k6TWf78W3TxYFWBEy3G9C2eQtRkqE4/1ky37ks+XBWopsFKccE9LG91cu3033SRmc8Ojb30NJpesEfwT6xk1oI54C9NJQM+Ch+OD7YLMtx3rgy/fDAt8nOlLGarbaZA5x7e8iF1eyzq4ke16x1e2jpcjsnWf4lbVgvlUXKeibHegWYpvuUejKvm7e4Ppl5aQLIT82/pzuO63MH+4gHxECtGNDXNQCmXbq2qAeYymKUt7JABTDt0gDCsKEAFIACFVAgBEw1NPXvmMj77avAcOBCgxQAMAUw1YudevdbA0xlIZt+/mMEPgWi8vGVtGNxD41jICUQNdnG9bxboo0NB6qWB6YWijFIcwGZhWwyjnibATAjgCjQMAKXUcZjGM7ZRW4+MHXhovZF4J8tMz4IINXgUO8zgGN4Gmdn8jgthNR+W7vWV6VBAiXDbTL1M4BWa+21N77abFG2I76OM8BTtxUf3flz+9Y6RftLGW57jwtwtEv5KP2oWAXIdP+TA3pAD8RAJWNAXzcAmDbo4rzdzGQtGv3FpX7rsABTvvURwLTdZhz+QgEoAAU6TwENTAd6W37nqdO9IwIwBTDVi51696sITO2tzZyJGgNTWXAHMkwZkNo2MVwdwG37LohMQ00Xugkw66FxOcDUgkc3i9JAv0K3jKt+jBYa9rnHXP+jYw7005CUAamAVMduetwhuw0FpilfYk0lW3Xjdlq6zgWmGm6m5yUCrlp7A4RlvE5/rGeUOaxtRlm2GsSmdYk0CMSqxCy2lYRFqdjFPGGeuiwG9HUDgGmXricaAUx5oYoM0y4NIAwbCkABKFABBeR3iP8TD8C0AhNSERcATAFM9WKn3n0AUxc2MkRxwWAakKXBXGyjIDDl9g7Ei28N51u+XViX9k0gj+ujrpcBUhkOCnjU/TjQkO1I+/S4s/v0+1ePLBA4qUBEWL90fzJWu3XruHb4mNYv+u7CYPaTy6NsX3NLf/IIBBk3b/MAqeuD9S2dLW2PaX2wD10QA4iBasSAvm4AMK3IxX0z3ciCpVxeJsOUF6pvvfVWM11HX1AACkABKAAFEgX4N4h/ixoBTPk3EP86QwEAUwBTvdipd78TgOk475Z8fgGP+5zT8rfkW6CZBmQh4GkAgM7cVIDQBY0+kLMLZ7cel3PdNFxNZz1aG04GpfLBhYuqvucz+yC3ubvjjHxxgK5p6/mXArCqr9ifoC8ZsFmDFeObArCOHW8cfCwNSyNf2M7q+frFUFzO44sfm2DgsjxCIXrOqcSD8cEBqvH48AxTZCeq803HLfbTfwOgSTU00dcNAKadsTYoNYqiwDR0Oz7fli+35AOYlpIdlaEAFIACUKDBCmQBU/0cU/4t0/8ZmPcb2GD3YK5FCgCYApjqxU69+60BphHATF7SxM8kjW+hd2+vD9zmHLglnxffBpLKs01Tt+M3FpiaW++TbE0L1tgPA+riYy5ks1mXFjpGENJmfrq2MoFpJpRMw90ETBgIaH3Q2awRBJRj2gfXPxlPYjMETGPIa8dkwaXWJjpuMzkd+KnBk/ZbwVJfa/vM2fg5rMn8xOOKn8tqfM/024490iT+Htc3Pq/bnnoRFdvk+HMeC6HHgH3AVMQAYqCCMaCvGwBMW3Qx38pu8xaLelEZAqYMS/kjt0Eiw7SVM4m+oQAUgALdrYAAU/5Nkt8ned62/g3Tv215v4HdrWbnjB7AFMBUL3bq3W8NMK1Gdk0C/gZ5IcvwLQUb6+6zBhT1oGI0xnQbAwSDdQc2N6mxepmfQc25jgaaBbXJhKwF2wd9qdk2raWf4Vyf3YHpjj6hH2IAMVA2BvR1A4Bp56wPCo8kb7GoF5V6sSkLUFmQApgWlhsVoQAUaLICL774Ih1zzDH03ve+l8aOHUtf/vKX6ZlnnmmyF+iuGQoAmDZD5fbrA8AUwFQvdurdBzBNL7Kd7Eg/U7Hkd17AaojYSNtFbYkPTv0YUDplJcfmtzWLdZ2NaezZLFK//kC+c18CTAdip2zb9OMQ8OxSM+81QXP6PEM7aIIYaG0M6OsGANP2WwcM2OMsYKphKe/XAqa8UEWG6YCnAwagABRosAIf//jHab/99qM/2X8o7fcHf2D23/Oe99AVV1zR4J5grtUKyO9QmQxT/n3L+h1s9XjQf2MU6FRg+g8XfpnmzVlIPT1DSS7meZ/L/uGi6UmZHMN2YOAYwLS1C1YAA+iPGEAMIAYQA62IAX39BGDamGvztrGStUjk8qLAlF+uwYtTWai2zeDhKBSAAl2hwJAhQ+gP/+wvaP/bN9OQ7z5DH7h6Nf0v7//vBpyec845XaFBtwxSfof4NwkvfuqWWa89zk4Fpl+ZPosee2QnLbx6iYGmBxwwjBZdvcSUffnSWQCm+w8MkOoFEu8DmGKh3oqFOvpE3CEGEAOIgdbGgL4eADCtfd3dUTXqAaZyOz5v+ZZ8ANOOCgkMBgq0vQI/+9nPaNq0aXTsscfSJz/5STruuOMMHOUsU/782RHj6cC+HfQnf3ug+f6DH/yg7ceMAUQK5AFT/s2SOyX8/xDM+y2Etu2vQJWAqc4G1Rfg9e5/fdF1BpAyOJXPoquvBSxtMCwFMG3tYhWwAPojBhADiAHEQKtiQF+jAZi2/7qg1AjyFon+glIWmgJM5fmlGpj+7ne/K9U/KkOBkAKP3j6b9pstn2vojn8L1UIZ/dsGOiXRaTbtd/sTFRLlCZqrfbtmA70ySN7x37G77rqLTj/9dDr33HPpz//8zw0I/Zv/668SUMoZpn/z9Tvpv336S7Tfe95Df/yBHjrw7sfpPX/0nwxQHSTXYLbJCvBvEENTnWHKv1XyuyW/Y/7vW95vYZOHgO4GQYEqAdNDD+2lFTffTuPGHj9gqDlu3PG07Qc/pK0PP0ZfX7SUrl7wDfrBQ4/Qls2P0ZFHHjtg+zsf/wm9/OKr5vPwQ48M2J5ecOh97kN/r+o+MkyxWG/VYh39IvYQA4gBxEDrYkBflwCYDsKFepVN5i0S/QWlLDRl4QlgWuWZLejbU+voIA21rv1eEGq99cgtCmDOpv2uXEchNPfEGoGcvL2G+l4t6IdXDcDUEyTrK4CpUYZBqWSP8vYP/uA9tOTSSfT0t6+jdVf/I/3lX/yZOf6/HTya/u8ZS+ivJn/ZfP8/p82mvzghavvzn/88S2WUt5ECAKZtNFlNdLVqwJQzQR/d+iOaOuWiukDhpZfMJP6svaOPHty0lY444pjEzsiRR9Gm7z1Ma755l6nD9fSFfpl9vr1f6jPU1N+lvBFbANPWLQKxAIf2iAHEAGIAMYAYyI8Bfa0DYNrEC/gqdFUUmAos5S2AaRVmrkE+7HucZmhgOnsVPbovbfuJ9XNdYDo7lPX5Et3xdQVMr76Hnk+bKlQCYFpIJkKGKdF3vvMdAz//+n3/je5edCnd+rVpNPJD/w8tOe/jBpgyNN14/VcTaMpA9YP3/oT+6L/+Ff3p0EPov8++wbT/4z/+Yxo5ciR9//vfLyg+qlVRgaLAlH/L9H8K5v0WVnGc8KmcAlUEpnL7/PVLl9OokUcmYFJflGftS1vezr3i6lRbLtN1suyUKedsUwDTL6a0xiIzf5EJfaAPYgAxgBhADLR7DOjrJQDTctfgbV87b5GoF5O1gKk8Nw635LdbSPyaNixTkHP2ArrlOX8Mz9MtV+s60f55D/3arfjWo3Sxgq8Hre93j5f4BmBaUKwuzjDlv12f+9znDOxkCDrp+IMTQLrpxlk082MfpBWXfDop09CUb8v/o//yl/SH7/3P9JefnUr/x3/5czps6P70p3/yx8Tg9IknQvnTBecE1VqqgABT/k2Slz6FbskHMG3pNDW98yoDUwabmx/YRud8/twUjNMX6KF9bjv9kpnmI4CUv3NWKX8Ptamn7ILzLzG35fttQ+UMVlfdusb0rW/pv/fbG00ZQ1cu588z/c+bMs4w5Ta85Y/U5f64vpRLPfFD25c++Ziu30jI21m35M+js1btpYvnzKN2X8jCf8AYxABiADGAGBjMGJDrDt4CmDb9Mr61HQKYtlb/KvT+yneucbJHUyDUh3IxFH2f/7xM7/b+GT+qf3QApgW18+fGn5OCZgan2uA+w3TFihUGlv6/f/0+mnzqcfTFow+ky049PAGkW26eTbM/MZRWf+XMpGzD0pn0X//8vQlkZdD6n9/7p7Rl5TxT5/a5F5hj55xzzuBIAquDrgCA6aBL3JYdVBmYPvj9LfT5syeXgpu3rbiD+MNQlOHoySedmtx+L/t8TOrpC/0y+wIxBWyG2vKzTQVWMkCVurqc2zHc5OMCQDXIZMCpn5HK3/m4AFneSt9yjPvUbeQ496/riz9yfCBbANN6FuRraMrd/XRabz1tW9jms1vo4rtfo7M+26FgeeKx9O70ETEs5znaS1Mu6qHTlu6lmUvXFIPoF2yllQ9spYktnNvE34v6aWY7xlmudsNo55yTaedJ8XnQxJicuOJ1WrniymJxkDuGxp/D7Nva7W+bz5Krittv6JgGMBfLpp5M7y4+I/ok5yCPYwS9IOWLZd7rPDez5uSqpxPtWje/5cfEmr0xdVhL41FfOwCYtuVSoH6nAUzr165jWj53Dx2tMkPft+YnztB+/dB1CVA95euLkv39vFvuX/m+Bq/X0QYvAdUxWuMLgGkNgeRwFwPTo48+mv7oD95Dj9wWwc4n7lxIl544lBaefXQCSH90+zyad+pHaM3Ms5IyH5oecfCHkmN8+z4D1COOOEIUxrbNFAAwbbMJa5K7VQWmS5fcSIcd1pvAQH1BnrcvIHSwgan4IOBSwKiU85bBJsNQ3ufMUMkOZVCpMz15n9vr+mKHj8m+thOCotKH+CT9cTsp8/vVAFX3U3a/fYEpQz+Gf8XhQuMyddoZmDLo7RZgGsVHAiCzgIsurwgwNVnSXQNMmxOTDYWLOmYauH9x39vUWmBaz1wwFD2WNgR0CENB/vtZx7kZsK//prd2fsuPKaxNc3/P9PUCgGmTLt6r0g2AaVVmooV+7HuC5l6hbrn/+gb17NG36MFb7LEZa/VLotyXOj16m623X+iN6K/3U9/t19HRc229UV+/ka7b+hK95Q2/EDB95Qm6g+1dae3td8VcOuXGDfSEb/D3r9Cj31lFk66eS38jcPiKuXT0dbfQLVufp18Hntsa9OGVx2nRdbGNK+bShJUbqF/A8Jv/asY3Ktbyb668juZuzXmKawk9PHns1xAw3fcaPXr3jTRBdL5iLk26/UHqf9M2k723XuqnvntvoUlXL6APSgwYXVZR37/IwKS22u77NT2/tY/O+7pqN3s2fXDBdTR3+ytxxZwM033P0y2L1LzNnk3nPfSa6qD27pFHHkn/63/6Q/rKxw+i/m8tMdDzqb4lNOuUg2nhOccmEPTJNVfRVZ86mO6afU5SpqGpD0z/4s/+dxozZkxtB1CjkgoAmFZyWlruVNWAKb/wacq55zuQUF+MF91nYNqMW/LZnxC8FD8lq1Nnc0qZ1JFtUWDK/YX6ZEDK5WKPvwuMZTCqfZA6jdq2JzCNsnmcW+8NXNpLM+9O35J/2tLX6Kw5nK3nHeeMqqVbzG380TGbNTphzmvq1n4LZw18i+2IvSLZixf3vU5zV4Qyoa6kuQ9EmWUmwyzJblxLS7Y/TUv6+Jhtm2RQMdiLM9LWbn+aLq4BEwxYMBlk0Rh5HJx9acpPGkNvTB9DO+fEGWIafvCxJEPsDDcjijM6k2OSPcY2OYtQbJ1hsz6dDNC4b1XmZKnNGUPLZEymTjH/3AzTCMq4c5kFJLx5iLWN9Oa5eJ3mXmDbMthKjj2wleaaeYrnyqsnmYPJ3Mm4MrY8Nya2eb5WbaEJcT3W54Wpaj5UJt+G6UpvPX9Zc2Fs6uw/mVsvA9TU02Xu3NoMubjOVBsT9lgPuf6pWMmKyQxtTLw6sS/zwHMTnTPJucCZh31raZxXP5oPPZ/czp6DLrDMOubGi8ytgXZ9T0fnZt/W+NyOzk8+tmSFOm/ZN2+cQWCqMijXyt+HWmNyjg/w70NvD2Wem+w//43Q56saE8/7CxPteRON18LFYuemtM+ai+h4CJiynnL+uX8n3fkzcZL47fYjc+vPlfs9b0zhcyYCpmNsBq46n13bMv7Gb/V1BIBpyy/rm+tAFjDVzy/lfTzDtLnz0tzeXCi63+xb6EEBjg5MvY42/Jv7nNKLH5GK7nNOj/62Cwp//cgqOlqAnABLtR21/EF6XkHLIKxMRHmTnrj7Ggs+lZ39zL77Qqq3nrmHJuX0zW3e9/V19IQHFH0frvvOHeExLFhHT/z6CZq7wAWAkS+z6bPfF4CYDIDK6mFbens+ML1tA91xbdiP/Rasokf1GP22KR1n02e/85LXIRG99CBdHHimrYx3v+SxANnA9Plvq0zl2bNp1O1P/H/svQ/0XlV554u10zXV3taxtzMsnHUvzqzY20IdlUSLoCim/qGSjtbptBQt02LHP4MMl7mDVe4UJEQwxJLCiFAIYiGJ1FBSDKGJNmMkiiGhxA65LLqg2thFc6nFxlhUxH3vs/d59n6effY+73nP77zve/58s9Yv59/+8+zv85zzO/vze845JWhe7ljv+d3f/V37+PzPv/D55pJfPskcvOP3LRAlePqBX3qJWfdbv+ABKUHTNW97idm29n1+H0HT5//EjxkAU61r37eaAlP6PZf7fdh3TWC/MV0Cpqed9guGfuTN97TrBEr557JLP1xq64oPf9Qfp3LTtk/l+ZF4rktZpBJU8n5aErSk4/IReVqX21w+B0y5bc4SpaVc5/oER2k/b9NSglUCptyWLNPGev+AqYOlHvb5Sa6bTKYm4BZyMng6ix5LL8CoXQ/gkOoy/NTtBGAaJvwBrtaZ3NqJu4IdaYgRJv1u0k6TdV+XAVAKDBVtp4BuTitvdwFFGWxYOJKcvMfgTIAv6QcBQX0fdNyCWXpkPrTjoMHPmddSHQFdlA10zD/O6+CNg3EE/IQNuX6lbZPWCTSxn0TZ4BeKM/IN+y/4yY6VfFTU13UcoHEwzmX4euBuAfzkbGmriYehDsKwz5TOUge5LsZD5b320f5tFxWa+rohg5AAWACh0ga3HoB1qKN8KXyvbI5sqH+MdGX4Kf3yIvNaf764a4P2B8Mn6Rf2LbcXH+M6L7LnZABpoRz1YcFcASzXXxns88fsWEMdOdYSMI3i0bYhQGt6TAkdlnJ9oDhInpsauLs/nrjYcbEqIb74w0kjX6f1ktqltQg+U/EQxUatdsQf5fy5W+NVH/qcCfY4jfj6FV3LGmkU2pbjqVqX9xAApiObWeQmiHWBKX1Ug37w0ad+B4587P6YS1abqx4qxiPfS2ozT/VHovyHnaIPPq3eL/R46FPm5ASM84CtOPbWuwNYjGHlbX8T2nvs7qvNsZXtCWD6N39qzpoAS9mOY3//T02wwBhtwyXm2Ip2XrpmdXhVQWzbmk8Z9QmhBnqE0UdrNaAnj4+WL90sXrdQq+61ZotM/PxWHgz7fiYB00PbzFulRldvU7A8GmF2k75mT+8gPfYnn2d+9ZSfNv/tLS81D2252kHTLevNB/7tSebj563ygPT+P1xj9tx0qd+mx+/vWv8B80uvPkntQ4ZpVvJeHIiBKX/46emnnzb0I//4F/+ey/0+7MXAYWSlAl0CpvKmu+k6vbeUfjb+4R+Zz/7p583JJ7/GA8RXv3ql+fyf7TG3fvJT/r2mTfohsCkfbZePvsftMdikOvIYwUvZBh3LAVOCq1xWAs/YDu6DynB5WnK/bAsf49cF8PGlLHsFTM/id3DmJ4YadLpyKpvyVAKuApgySKUJKrVfbOt22gGmIXNNAw2dBcUZc6GMhyg8yaelyIiz6wnIVzVRVsfiDDG1HUMRnuCHrMEStCsArIQstj9u98xTzFcvW2UzzwgaUH1aBhAXZa15cBf5Pd4fbzeBDhGg8jrJ/Vc+LN6FGfzkyvK2Azyxn0IMRGOpYWuskdym9ZDtK+BUzhfUH+lFGcIRHOesQAKnlHn8MXoPpQVmAXSzLsGG8jFXJt4fb0+vgwPWMnOQASdrX7TJ50uhbRqoRXVOdTDU+kn6XPknQFDWgdvmpc1qtedkKOuPVdjjz3VRJo4hmQ0Zt2ntafn6EHxc6MrnMWsSb/P+U901onR9EMdZv4nLrC9C/KS0oH1KP4bN1B5dQ1PXTdaPyzax19cJfziIx6h1beO8CFrEfeW25b0DgGnlLffwDuYmiPFEUk4yeeJJXx4GMB1ITETvMT1rh6Nkj30mZAIyHH3szisCHOTH9yVYlRmq5gmz5VqR8fihq82NDxWPej91yGy7UYBGARY1rBQA9InPmfdKcPmhK8yFdx80T3Ki67cOmS9++jazxQLWp8znNoi+L7nEnLFxr3mcy37joLkxysaUoFfbcIk59ve3mceo7jNPmi9+Umhg4d9qc+HnC9z6+G5zoXxNwCXy1QXN9MhGWQJ6nnXnQfPkd6nG0+bxL99izpBw8kO3mC9yJu/ffM5c+PEtZstDh8yT33q66OJp89RfblVAU34E7IHb9bhfePVt5nNfK9JWn3nKPPmXnzMfvIOhbCLD9JlD5rarhU8+dLW5LZHEmh2vOPDrv/7r5lnPepbZdeNlFnh+5J1vMr9L0PTTv+cA6B9fY1b/2snmE//l3ykgSqDU/vzxNeaP3v/vzLYr3qWOA5gKkXu4CmDaQ6fNweShAVO+cX/VqSvN53Z+wXz+z75k1l55tfnoVdeYez//ZQtRTznltR4icnksT1iSJr0CpnYS2izDNGRZVgBTyiCaNzC1k3POVnyRCZP+AHI8RGEAxEs/KQ8T5cYZpiKDTGZ7EjwLQC09qbdl1iUevS3BugIenL3SfPXsk8xXLzrJcDajhgcdBKYWpDkwd+GW4C+dbfqi4vFvOh5AWRlWNM8wlVDZZ65ZnQPItv6LIKjN7iU4Kv3M8ROBU+eLk8z+i04x296z0uw/m17ZoDODeUzBb+nYkNnErk6uXIhhbju3tH9g8DBL6hzOGVs3Ok/CuSX7iurMEZjSOEKWqrPJn+uFb9I2B/uTx6NxSx2bXB+Cj4t+Y0Aab3NcLRqYWijKML2ccWx1mQacNsowBTCdw+0wumiiAIBpE9WGWOeguUpCvk/sNcbobFIPExUcdR93Uh98+tjnjH/75ZOfM+8VwO6MP9GP6hvVVgCLGlYGYKozYSe99/Ir+t2sV20V72YtfBgBR/nBK23DFebGR4XfD/+pOUuMK35nq4LKlwT7TUM9RM96NbL/mBt2lx5tf2CzgNLSlqIleo/p5z671Vy18Rb7TtLTr1itMnhD5m8UI/QqAoav2qpiqwxMv+a+w+0AACAASURBVPgZ+WGwK8zq/fIdAclGsjvPPvtsm2HKwJQg6JW/+QZz2dtOMv/zjwI0veKc15mDReapgqW/8yvm7jXvVLCUjgOYZiXvxQEA0164ae5GDhWYEgD9+Ve8ytAj+Dv/9H/Yn49c8Xt2H+Do0uBoSr/+AVOatDtoqt5hWkzSdWaom+DXzTClctwmtSMfz7/40/KRaepfbgeAIeGEXNcgREAaghs+y4n2M0QJZXxdD0LomAABAlDIPmuvR8DDg7gCeHhIZ8GaAHOi3xJU8cckMHCw7KsE4opHs4/wF9OpbQHzFKilYzEApPYtKOSPzVA/Eu5O9klSHwtQJBAV7djM0i+Y9R7W0bHgJ2qPABZnAMr1ZF9eI9FHxT6tMY238IXSgTTO6SB9EfUpY8DqvdLspy94n73SkI9Yfxkb/AV0l0GYB6GyDo1Bvl6hiS4KNNI54c8FeV7Q+ve8L2LfhH4JuIoPLSnI5tpIZQUrG2wMuDY8wKR2KjNMpa3BF/5c5zioisco3sKY0m2H46G/Wvuqzk0+D8W5K9sk37eSYSo0lu3Lda99UjvnZz43Zb34HFbHvB+n1IxtKN4h7K+hfn+cVZ8/f5Q9on4b++U9ATJM534bv9gOpwWmnF1KS2SYLtZ3bfeuAOFHtprH1GP28r2me80HBSxcvf9pIz/49NbPiJRBBURFZqGo7x/lFjBP2SL2P3C7hH8O1mZ1iKAmZ8jq8hHU84+Tx4/kC+hpG8jXo8OP3y3BoKjbUA9ts9iKgGmAm6GMtuUS48H3k18x18psz6RPLjG+zQj2pvUM/RoTabTmCsMfxCKf/8xGzkSVdeqv79q1y2aY/vTxLzBf+uSVHnyu+Y3XmQ//++XmL25f5/d5UFpkl9512X8w29acmzz+vP/lufjoU303dK7kJGAqH8uPn6TI/T7s3CBh0NQKDBmYypt4rLcPSaWm/QSmNHnVj8lbwBl9jImzSiuBqayj3kfnoKx9V539MJQGpKo/VS89sdYghIAGQ7liIm8fsX/YrL7pG+FjQkUZX9cD0yJbSjyWH2eqTTWZtsBNvG9Qwkl5zH4YioFpASj9R58YXDoQIB8Pl7DAgtACrjh4FurZY9yeBDA5YFoAXdfXSrOtotw0epDe/Biv1jUF0Nw+Lh/gN8WB9C21yT5Px8gkG51ewU8SRAXtVpn99OGlwodxnZIvWG+ZIVz43LXv/Bzqab+H/RXAR8TQkfecZPYzJG8KfyxELHxkP6wU/nhgIbU9L4oPpZXgNvs21Ik/CqUAqezrSwKsFgCP/c5x4qGdB20UA66vYJuzQfYjY861GeyrqqdfTxDq2Pd1tnV9UOdZIkuZ/CvPV+HX9oApZ2+z/4IvYn1IP9Y26KrjIa7D/qNzMNQp+2nSOZo+nj5n6Nysdf4IPdPtN7ueUFvyXgDAdOrb8H5XyE0Q44kkP5IPYNpvf1dZr7M3rzVb/uyWkGmo3u+pM09fevs2c6P/CJB4/yl1tv+W8Ph+BshNA0w1SO0hMG2oR9ZvUwNTzpR9XD0af+xHbzNbvnzQPPbkk+bJf/iiAuIemEZ9TQ1MP3qjufAqAc0/dHXx6oTs6JIH6Jp10UUXmec973nmOc95js0y/df/8lize8PlHoB+9J1vMlf/5mv9tgSm9AGoT/ynNySPIcM0KXmvdgKY9spdczMWwHS2IFFOJIa83l9g2nyS6Ced4p2lft8MJ6ed7aMCeHTW5kX4yUMwGXsSfsv97a9rwNJ++/D1bDUlSCfBHPSerd7Qd7K+8t4GwHRut+/d6KhNYEoTVfrBv54qoIDYFea9N4T3l8ZfvVdZi9dea36LYah8RybJoNoU2YoTJNJgNGRoqn4vucRcuKfqke7okfxrxasCuP+/2qre8SnHmbPBVY2yJ0VmKh3Xdgb7m+rB5paWkb7HRnYY8y2z7QYBKS8pILN6Z+1V+j2iKrNY+iwaM73iYMpH8h+LPnhl3wtb2UZpxGbLli0Wkj77eT9pl8f80A+ZZ//4PzP/8l/8pPmzP/hQFoQyNP3sR9+XfBSfj+OR/LLmfdrDv4foQ4T8jm16GkL+sY//ABj/YTD3+7BP44etaQUATAFM5WSn6TqA6W5zxiLgW5f6BDD9/1/zUAEXfJZhKkMUwLRSuypdR3YMwLTiHBtZLHTlnJH3DQCm6Xvtwe7NTRDjiSRPMOWkM34knyeqgxVr8AN7TGSKSsgWZY2SDrlHy2/8YvQOzei9lx+6yqz+8qHwkSb6UNDXHjC3ffIWlW2YhZUR4DymaO8p+5EjY8w3HjHbNnJb5Y8+2Q8iZT/6tNpc9RfByVkbbJEIHkagMgtMTTM9glXRWgRMj7nkCvPBLxwyTxGE/O6T5oE/uda8kGE2LRkaR5mu791RfLCKPsS1QX/YyWeYmrKeJ9+wzTzwRCHoM0+Zx/98q7mw6qNPxpj4w1Fn3Bm91zYaYrz54Q9/2ILSZTfvND/0o881z33ZK80L/utH7L5//vyfMPd87L9VQtO7P/zbZudV782WATCNFe/XNv8eAjDtl99mbS2AKYCpnOw0XR81MMUkvRoUQh/ogxhADCAGBhsD8r4BwHTWd+0dax/AtGMOWbA5D2yUoLRYj7NGycZnHtAfVCqgXIBrYSD0qP+xEtol10UWpql6f+i3El+oj20WbR3aZs76UHw8vX1sBHtnA0yNaaJHUDNaKwHT9Njcaw9Wm9X7C7hZVe9Dlyh/KZ/W0dPD4wgqX73NWCz7zEFz1RXSzuk+/vSJT3zCwtH/7bIbzHNOOMk865/8iPmZO//c/PD/eqzdT+8g3Xr172SB6J7rf8dsufhXk8f/nz++xvzws3/IvP71r4+ExmZfFAAw7Yun5msngCmAqZzsNF0HMEXWU1eynWAHYhExgBhADMwvBuR9A4DpfO/hF94bgOnCXdApA57ac2P5naPyq/feWv0eUwfk+P2YvlCx8i3zxY1XKAgX3lvK4ExAzkpgSrD2kNl2g86C1O3ptp76i0+ZMyZA0xdeu808xlmqhdWzAqb0mPy0esSK+u0YfF59dRYQn3H7V0T27xNm28dYe708a8c2s1pAbQVMjTET9ZwETKmNA7eZk0Ufx1xxi/li1dsV/ICNefzxxy0Y/bHlrzIv/L3Ndv2fvujnzItu223+1TVbzDE//MPmx5/7o2bzlRemoegdv29u/I+nm/tu/L9Lxyk79ZhjjjG//du/LXrEap8UADDtk7fmZyuAKYCpnOw0XQcwnd/kFCAAWiMGEAOIAcRAV2JA3jcAmM7v/r0TPQGYdsIN3TEi+hI6gcgYmLGx+rHzS8wxaz5lHuCDieWTf7XbXPvxq8zpqwOge+GaK8xbP36b2fLQk6pGNaykok+bx/98m1l97RXmZwQMPfkj15rVd3/FPBm/F/PJx8y2P7nR/NYVqwO4/dBqc/q1t5jb/rx4HF1ZUJXlSgWj7EkPCV0jWhsNcLmbafTgOqVlDEzJjsf3mquuXe0fxT/5ox831345McZnnjBf3Hit/3L9C9dca666/4nS2JL+Jz0//XHz1jXBl8euJl9uMdu+xuQz0ogzTO0gnjIPbNTQ+9gkmC+N2O5429veZsHm8Vd+0vyL3/ovdv2HnvNjNuOUgCf9POef/oi55bL3laAovav0gVvXmD9b/59Lx/6v3/i3tu7NN9+c7hh7O68AgGnnXbQQAwFMAUzlZKfpOoApJu9dmbzDDsQiYgAxgBiYXwzI+wYA04Xcyi+uUwDTxWmPnqEAFGimwGOPPWae//zn22zS/33NBvOvr/+M+YnX/ZL50Z99mQWeJ598svmpn/op8yP/5IfNxy9+VwmM8gee5HL3htU2M/XYY481R48ebWYYai1cAQDThbugkwYAmAKYyslO03UA0/lNTgECoDViADGAGEAMdCUG5H0DgGknb/VnZxSA6ey0RctQAArMToEHH3zQLFu2zAJSAqXHvusD5virbjXHPPvZ5g1veIN56KGHDMFPeifpFee/vRKa3n/bWvOSnz7etnXPPffMzmi0PHMFAExnLnEvOwAwBTCVk52m6wCmDSfvZ680P1i30mzDB1Fa/yDKtot+zfzgslPMx6Bt69p2BdTAjobXHZwTOCdajAF53wBg2supQHOjAUyba4eaUAAKLFYB+hL6Bz7wAfPc5z7Xwk56FP9Zz3qW2blzpzXsL//yL80LXvACe+wdZ77G7Nu4VoHTr/zR1eby//Tr5gX//Cdtmfe9732LHRB6X7ICAKZLlnCQDQCYApjKyU7T9aEA04+9Z5U58p6fm99kek7AdO7jmmoyfpL56rpfMz9Yt8rsP3MKAHTmKeaIrZcGo2Vg+nNm/2XUT6KvbFtsW1HvopNCbJy121z46SfM28+63Lz9lu+YCy+7PBybavwTxnzlw2bzl75nfzbctGY2fRT2nnHZE+biW3abM/zYJtg2xThlDJJvvnr2dG1Tfec754tp67cFV70dMhasDvn4srHIsRr9gcS3R8dFm7P0RVtaoJ3pYnioesn7BgDTQU4V8oMCMM1rgyNQAAr0QwECp5///OfNrl27bGaptPqv//qvzc/+7M9aIErvNX35icv8zz/78R+z+wmyXnjhheaZZ+KX38qWsN4HBQBM++Cl+dsIYApgKic7TdcBTLs9cZawqlOTdgsqKcOWwOQUwNTXq687QSsPw1V93bcFWAW4UnVOJSAmbLRQ8aB526kzBqYFlDz7pm+YuQDTazaa13YUmHr/zekPDfG5wvEgY4TL8DG7LeOLbBWZzvJctO2IY7INC0xTvvBxVz/22UYsodksYkDeNwCYzv8+fqE9ApguVH50DgWgwBwU+N73vmc+9alPmTe+8Y3m2c9+toWklI1KIPU973lPCbLOwSR0MSMFAExnJGzPmwUwBTCVk52m630DpgQmQrZaeCRewozXWigTMuHcsVOKbEiZ1Sgzy+T+qsm5rBP6p8ks9fPV94jsSZF1tu2iVWb/e+gxfme/B0gEaAR48eOw4EaOldYF9KvKECzG7/qSNuqsS29DYTvbNt2rBjS09JP6jA3kv2SGYTxerwm1L8YgfUvrSmPSyJUlHT3skhCMdBPg6m3XfMe8+4Iqf9OxzWb9l75hVp8fykkIeuEWl0XqskkfNhdGvpFlWR+qs/5Kbo/aF/VEZurmz37BnB21x23IpYd0p2407/40weCibavRKSJDt6wl+135RfkvAGvrPxHjMoZqnZsxYI/6YRtsPxe58+XIe4pzl2MiU+e11PZlp5j9/hpRPl9sXIiYsXVy8WXjhttw572zL4pJ0prKFu1mfUHlLjhoLpb+YT9hOdMMbHmuYJ2vOy8y8r4BwLTnk4JpzQcwnVYxlIcCUAAKQIGuKgBg2lXPLNYuAFMAUznZabreN2CqJrsWBrlHrTVoZMjhJoYWkggokoN2vo1a8KIMTXQ/GiRamMTAR0IjAi1+v4OuEkJNZ1MBbsRYpV75tspjkfWq1/U4bdkYUHo9i0zPFDj2ZYoxsCZCH6tvAcQIXIXxOJjlwFoCCHJbso8p1zX0XGNWf1YDVK8Rwc4tmxX80XVdTGaB6flfMBsEJKW63B7B3Ys/rX8mwl4LF8P5EDQL0MTZLmIg8p+s46BooXFUzmtA2qbOTd6f9UewwZ8v3v5wTPVjzyX2OZUJcNfGi4KjLmYkZLegs7DHlhfxFXSJ/lhx9kqX8Wxt42MO1tZ67+4MsoC1JrFvsQ190jEg7xsATBd7Tz/33gFM5y45OoQCUAAKQIEZKQBgOiNhe94sgCmAqZzsNF3vGzC1UMO/UzC8OzDsD3CIJ8l0TEJI3k9LB4AIerifUM7Bl/J+nniWAY7up4CDxbs9qR/OnuN+7bYAgrRft1Helran1uP6qgwDnggivdY+ss7gh8dXLC0UC/rIMbi2SQeted6GQlPff7mubVNqUqxvo4zRoh5r6fo5yWZPOruET+xYHUijcpx5qvSYBppKkCnXT32RsVCzeFepzTJdAjAttUXtRu1NNQbSwetd7VvWKPaf3Gbtg+8ZVhYwsvLcpDgK5b2vZZ3iuO/H2y98G8VkaFOUYTgbjd3GgtxXEV8u+7Q4b4s+Kc6oja+ezec3LWlMUwBTss1C0zrZzZHPpolZlFV/uJjqvBmJdvK+AcC055OCac0HMJ1WMZSHAlAACkCBrioAYNpVzyzWLgBTAFM52Wm63itgaqGFgHMepjBYdI/uxlBPAh81aRZQjfZnyyUnzxGcKdVnoOKAhwdAti06JkCMyLiLbYi3lf0Ju2qVt+MOsDm06eyq/ei/7Z90ED4p6SCBj9aE+tW6FGULiOWy9ah9aavQrhiH97eND4JXokyhEfUTYLi0qf76hVtcVilBTf84PcFT+bj+EjNMqe3c+04bZ5hKQOhjxmkUNAnxHMeQ3Nb+CnVspqaMg9K5SR9kc30GgJu3wffj2+G+8nWSj9dHY6exhP7J9/n4KpUlWy47xRyk12ucyYC0WHo7a8QTMkwBMv15WCNeZlhW3jcAmC72nn7uvQOYzl1ydAgFoAAUgAIzUgDAdEbC9rxZAFMAUznZabreP2DKGWoavgSo4wCIh2hVAK8AIBLMBYA0aSLLACeUCzbQPrIvgEQPgGjy68Feal2DvRK0mTR5pjHFWXypOgpKhjFkIWaqDbuPdAjjtPC1wgYNLhN1qc3INqWdalv7gMoxDNP9uFiRMREgsR575f4rHzYbbtpsVn9WvG/UAlPepkf1yxmhKQhKj+QzGHXvQC3aUO1NYVvOP6RXBA3dGLUmNs44bqgOQ3wbqyEmlS/k4/AypiMwqs4L6z+Ol7wNvh9vP/s6X6cZMI2gvbWvuMZIHYrrCGn5sfesNPvPdHbQHxeOXJbJzk75BO8wBSxNxcWC9sn7BgDTnk8KpjUfwHRaxVAeCkABKAAFuqoAgGlXPbNYuwBMAUzlZKfpeq+AqXqEvviIUgGDFJSJII86piamDD3co8L7Kx7dDyCNwE14RN0+si/egRiAK7XNYCh+9D/sp3Yt6LNtrjRlG2R/ul6wSYM1B7/YRgbMsh93zAPEQi9+/YCHZUor3YfPzJNaMGRjuOSPBRt8lmFxzNsg+yJ7RFu6r0gDC7iKsWbrBOCX06zefvo4UxmIOuBJH376hll9U3iHaerxep2Z6j4WteGmL6iPPsX1fB2pUd11Dxxj/xXvGS38oN//Ks6Ly04x9DoEjmsPMm3/DDFd2yGOK87NIt65Pf5AG8WetMH34+0XfQmfyzpVwFSfE1H8c5ap1ULHVxhT+CgctZWM20k+ER8bqxdvCZ9N6gPHAWSniAF53wBguth7+rn3DmA6d8nRIRSAAlAACsxIAQDTGQnb82YBTAFM5WSn6XoKmL7mFEzU2wYaHgBNMZlt24betOchGeKwNz4bU1yrbFrEKGK0nzFAv+flfQOAac8nBdOaD2A6rWIoDwWgABSAAl1VAMC0q55ZrF0ApgCmcrLTdD0FTF/58p9Glk7LAAjAtBoq6AxAmZFaXQ+wBvosJAZElitlxzbKOG35GrMQHTCG3v6upN/z8r4BwHSx9/Rz7x3AdO6So0MoAAWgABSYkQIApjMStufNApgCmMrJTtP1FDD9Nz/3M72dBAIaAKAhBhADiAHEAGKgOgbo97y8bwAw7fmkYFrzAUynVQzloQAUgAJQoKsKAJh21TOLtQvAFMBUTnaarqeAKbW1/GX/B6ApsqcQA4gBxABiADEwsBig3+/xPQOA6WLv6efeO4Dp3CVHh1AACkABKDAjBQBMZyRsz5sFMAUwjSc8TbZzwJTaogwUemwP7zStztRBJhP0QQwgBhADiIEuxwD9Hqff53FmKd83AJj2fFIwrfkAptMqhvJQAApAASjQVQUATLvqmcXaBWAKYMoTnaUsq4DpUtpFXcQnYgAxgBhADCAG+hEDAKaLvaefe+8ApnOXHB1CASgABaDAjBQAMJ2RsD1vFsC0H5OQrk8WAUwRR12PUdiHGEUMIAYQA7ONAQDTnk8KpjUfwHRaxVAeCkABKAAFuqoAgGlXPbNYuwBMZzt5GMvkDMAUcTSWWMc4EeuIAcQAYiAdAwCmi72nn3vvAKZzlxwdQgEoAAWgwIwUADCdkbA9bxbANH3Tj8nQdLoAmE6nF+ILeiEGEAOIAcTA0GIAwLTnk4JpzQcwnVYxlIcCUAAKQIGuKgBg2lXPLNYuAFNM2NqYsFUB05NOeLFZ+dKXmTNXLDer8AMNEAOIAcQAYgAx0MsYoN/j9Pucfq+n7h0ATBd7Tz/33gFM5y45OoQCUAAKQIEZKQBgOiNhe94sgCmAaWrSM+2+HDA99cUv6eWkEGAXcBsxgBhADCAGEAP5GKDf7/G9AoBpzycF05oPYDqtYigPBaAAFIACXVUAwLSrnlmsXQCmAKbxhKfJdgqYUgYKJpv5ySa0gTaIAcQAYgAx0OcYiDNNAUwXe08/994BTOcuOTqEAlAACkCBGSkAYDojYXveLIApgGkTQBrXSQFTemyv7kTw7a94ubnytFPMhte92mxaeZq54fRXGdpXtz7KATogBhADiAHEAGJgvjFAv+fl/QCAac8nBdOaD2A6rWIoDwWgABSAAl1VAMC0q55ZrF0ApgCmcrLTdD0FTOu+s/TDp73SHH3rG4x525vUD+277NWvBDTFu/4QA4gBxABiADHQwRig3/PyvgHAdLH39HPvHcB07pKjQygABaAAFJiRAgCmMxK2580CmAKYyslO0/UUMK2T6XP5aacoSBpDU9q+FNAUoKCDoKBOfKPMfLPdoDf07nwMrH7M7Nr9mLl8QNc0ed8AYNrzScG05gOYTqsYykMBKAAFoEBXFQAw7apnFmsXgCmAqZzsNF1vAkzPesXLzT+8xWWW7jnjdPPQm1d6eErrXzrjdXb7ybe8wfzqK1ZkoeGGzfuMeWSfOXBBv2DBjp0HzaH1S7fZjn//JrOBJ+Drtxd6nGcO7D9ozM51hXbrzKFHDpqjm89z21TOHwt2UHu+DLV5wSZzVLSft5va3252sB01ltSWeYR/OujDaOxLhTElbWtoRH2WfFyz3lLtRf1wXkCLOWvxrr3mM7uN2VX8fOa6q8PvAAsdi2Ob7gz7V9xpNoo6u5LHjpjr3pUbC9UPMPO91x3x/W9cnasz5f42ganXKNi8iDiV9w0Apou9p5977wCmc5ccHUIBKAAFoMCMFAAwnZGwPW8WwBTAVE52mq43AabXnf4qD0i/9IunWyj6lTNfZw68+XV2/csFMKUs02tfe6qYFMsJKkHB7WbH+u0a8vUAKOXBoxxfnXUHRh18jdf3maM7C5i6frs5tFPo1BFgytC4k1AQwDRz3tWJS5RZBLwaRp9Xm+u2GxMgpQCZFhIGQHj5JmMYpsr1VSuojQKO+jrUTh6YEiDltqSO1G6wpSNxTeB1+17zXj+2xdkl7xsATHs+KZjWfADTaRVDeSgABaAAFOiqAgCmXfXMYu0CMAUwlZOdputNgOnW17/GA1OCovt+0YFSyibd/4suu5Qf0f/j15+WBjcEtChLMgW2bKYlZy/qzEcL5zizUWRPrpJ15P4VRbYm15GZmbJOnUxXVb5sX9a2KghM439kuzlA2bbeNpfxeWDzdpt9u2OnA8v+ONnhy4bJNvWfzDCtsFtnihZjKtqm9g5tJvv0fgISChoXY/AZqrK/Kl/4rNYowzUan7RRjW+Fy7zlTFd3LPJ3YbuuFzSTcEX2Y9g2Ozb2NS+nyKiNxiL7w3raD9ClL7q4rNAYVBKk9BmiDAdXLDcaajqwasFhcYzXVyVBYhUwFVA2utamgKnMPvV92nqFTaVMV7k/AF+KU2pr43Uio1Zlxi43biwZaJsc53x9L+8bAEwXe08/994BTOcuOTqEAlAACkCBGSkAYDojYXveLIApgKmc7DRdbwJM73z9aQqY3l8A0197xcvNA2/WwPSOX3hNEphaGGcfayfAJQBUDN/kBJjgkwJwxeSS6oj9FlwyUMwCq6hf2c+EdQULuWxkm7KBy2SWtqwCtuvMIRrPBZsssDxEY6ExThiTa4ehXrEUuiTttjZFwLKw07XHwNqBSM4qlW2psVb4guoEcCn7lOvLjYXfAtqGOtoG6jcci0BDZMfUEC6Km8q+Mn6duk+0k7xWQMcotjsTJ2lgyiDRPpIvAGKAl66eBY2Uacnj4cf15T4+Zh/Zz2SYUj3Rj4yX0GehoQC43s6irgWp3E4SZpbBrIOvDFHpeGSjbQfAtOe328M0H8B0mH7FqKAAFIACY1QAwHSMXp88ZgBTANOmkFTWawJMf+81p3pgyrD0L9680tDPr7xihaF9nGF61WtSj+RrWClhlFyXE19al5BOHqM6nGXolwwXCZxRlqEAh1yX2qPyDAF5/6Rlyo6S3VMAO2eHgMaUOWntFYCQ2uMxRTCP7Z1kQ8puVzcClgWkiNuT26yd1VtoS2W8D1RmatyH3JbrEpi68cfteX+RDtQH6+LhSvn9raxR1bJku2hXjr2qDRzrKtyDXfOKTQsRC+hps03F+sbVAioSTGQ4amGpA48aQrLfRD15nsvH99V+Vy8GptS2yogVNth+GwDT0J54lUDClpL+SSjL453PUt4LIMN08n33oEoAmA7KnRgMFIACUGDUCgCYjtr92cEDmAKYyslO0/UmwPSsV6ww3/nlN1oouudNp5v/eWb46BNBU3qvKQHTv3/LGwxlnZYmigwxGagJoFkFpnLAr6qO75v7FHCPjzH88yBuwmQ3ZUfJhrrA1EK/4pF7bxsDUzFplu0tCJjSuDmjM2hAsDPsL+ngtYygqH2cnrNXo2N+fBqss79KyxQ4lXp5G4Se8T4bHwJaextcnfy4KtqM+8B2+VoATQamSQw23ePs9B5RB0JFBqbP9gxl+Nwm0BlAJJ1jcbvFeVeRXUptTQNMV1loGz5WVX73KdnA2aSufw1gAUyzN6w40D0F9lONdAAAIABJREFUhgpM96050Ry35sGk4FXHkhWwEwpAASgABXqhAIBpL9w0dyMBTAFMm0JSWa8JMKWJ6H8/PWSZcjZpvLz01a9MwoAyfBLAzMIvBmkaRlG9VKaofVyd3zlZCWBEP1G5sk26b57I01KCQ7+f7PbA05VJZj6qfsmekOHq203BPrkvgnlsQ2kMsk7ObmsP2SFgYWGjbk+XCcC0+BI862/BY8p/Ilu2sMW/J9TCU+7facLaWZ+LTE8ea2kZjbV+TBR+VnYXma2i39p2KP/mY6hkP+olrxXQqcsxRAAxBpsx/BSgU2Rzug87hboakMZtkAaiHXGuxEA0jpfScQ9pna50nB/nL5UV/bh2GwBTm0WKR/LnfoOMDicrAGA6WSOUgAJQAApAgX4oAGDaDz/N20oAUwBTCT6brjcFpjSBvO70V5nv//Kb/OP3DEy/9dY3mjWvPiUDQDQ44wluGcDxuzg1fKNy/hFtASgt0BIZq5wtGu/nDMlV0QeDAryrASgsXGM7gn0523iM8dKWF1DOQb6D5tCn9TtZbT0JBC1U5v5p6WAjjTWML/FYesZual/pVNik9gmwS+Wlv1YVH9bKac775Ye5jm7eZA4xZFX97zP0sSsGpty297moo/SO7GMbuZ7SpQRCnM9De7ENdLwAuTbGGO7WiJVMX9anOJa5RkDXfsRHCpiGDx3Zd5ju1rDQZZkWWZz8+Ls9D1xbXCdkl+r99jg/xq8ArI4ZC0Llx5vEu0XVMW6LbIgyTKkvl2Wat2FihmkKmBb7eKx2qbTQY5llLMj7BjySP++7+AX3B2C6YAegeygABaAAFGhNAQDT1qQcVEMApgCmcrLTdH0pwJQmcuec/HJzw+mvMptWnmZ/Pn76q8zbU4/hAw71Dg6VAGyrPiQAGWDzLKEA2p4fgIHW0HpeMTA5I3QaX5Qfp7dwd0Egc14ayvsGANNBTREmDwbA1Bjz+BZz7vEnmuP455wt5rCQzj7Cz8eOf7e543Fx8P615rjj15p9dnmiOc7WfcLccc6J5tzbnzCqbtRurX7XPKjaoDaNce2zvW6fsMkYVee42GZdFFtQAApAgcEoAGA6GFe2OhAAUwBTOdlpur5UYDqviR36mWby305ZANN2dETsQsehxYDKjlSZnOEdoH0qQ/5R2a80piL7dF7jWESMyPsGANNWb9G73xiA6YNm/fEnmvX3s6+eMHesCcC09L5TC0YFNGVQqt6XGoBmaNf1I+HmvjVrzT7uliGoaIdhq2+D+5L2xvYwLBXtmEQZ3y1WoAAUgAIDUgDAdEDObHEoAKYApnKy03QdwBQwZxETdfSJuEMMIAYQA4uNAXnfAGDa4g16H5oaPTC12aUCgEqn2WMSatLBkD1qiyZhZAFMJbQ0xhy+/d1FBqrsJKzHx0uwNgFVS/bUsTl0iTUoAAWgwKAUADAdlDtbGwyAKYCpnOw0XQcwXeyEFcAA+iMGEAOIAcTAImJA3jcAmLZ2e96PhkYPTDkjkx65jwCny8wUj+r7x/Ld4/bWwxaYToCqRSjEQJR2cxYpP17vHul3FXLAVGaploCptWeCzYU9WEABKAAFhqYAgOnQPNrOeABMAUzlZKfpOoApJuqLmKijT8QdYgAxgBhYbAzI+wYA03buzXvTCoApuyo8Ru/BKcHH+L2jXJyXTYEpvzdVQNoYqDYGppNsZtuxhAJQAAoMTAEA04E5tKXhAJgCmMrJTtN1ANPFTlgBDKA/YgAxgBhADCwiBuR9A4BpSzfnfWlmqMDUwkf6GFPJEfE7S6MCEoBWPa7P1WR53hc/tl/sl0BUrnO1eF8jYFrHZu4QSygABaDAwBQAMB2YQ1saDoApgKmc7DRdBzDFRH0RE3X0WRF3qx8zu3Y/Zi5fUVFm1MfOMwf2HzRHN59npokj+oiZ2b/JbBi1doipaWJm6GXlfQOAaUs3531pZqjA1BgHRn22aOEQCyFlBubjW8x6++X5ooACoEXWqSxvH6MXIFaVZ69H7zktdisgGtfjjFPRVyNgyu85Fe1Q9/oDU2wnllAACkCBYSkAYDosf7Y1GgBTAFM52Wm6vhhgeqfZWAGE6GvFn7nu6iQMuXyTMRtXtz/pz/epbZVfUp6FHX6CbqGZ++J0rEX7GugxehuqwNK79prPiK9jKxuF7bs23Rn8WLdO8XXqsh0N7EyMIa1f3bZ1uZnEQyNgus4ceuSgObR+unNjx86DxjzifqYFkGX/TNd38/pdAKYpG3RslMZH8Z+J7XRMLl3P/HVtuZF9ziSOE+feqhWkkbuu8VfoWSdpD+9b2nKCP1L21b1GyeuaHBONLXnsiLnuXWV/Lhriy/sGANO27s570s5wgSk5QDxmz+8fFY/AWxcxqOTjpazUchvqHaIx+LSN1gCm8ftLz9li9kUfhWoGTNPjVjZbG/EfFIACUGB4CgCYDs+nbYwIwBTAVE52mq4DmNIkNj+xzgGH9if35ck0wYJU/+33nR9/Glhcba7bLsG1qG+BQ8iOJFsdTK2os4KOcR1XTgHYAmyktEjbl9aSy6b1E2NIgZQJNqTbrLaD7Wln2QCYXrDJHEXGZQD6FX4v+6gPwLQipjPwdm5xnOi//b4rxp/0dcU1Kntdc+A5XK+ojQKO+jpkB4BpG/e9aKNFBYYNTFsUCk1BASgABaBA5xUAMO28ixZiIIApgGlTSCrrLRKYXnfdEbPLZhvJCWaRfcRZSDzRlFmL/lgB2WhiummvhXiuPYZvDKxowsrgjveFZR7E5Sfcqck9teP6NybOnlql7A/2UTu+TiLrNmWb7fu6kOEZJusOsPr2VDab04CPcR3df2FLIkOKyzM4svW4HI2t6Evb6wAEH8vV4TZ5qdtgPyV8oTQVADeCMb69qLzTgn3h2i/FpAIrCRuK49YnUeYz9ct6swZujNoXVMbpW+hl45vtcuOntjYKn+ssNipDAG+fOXAB61VjuX67MTvXRcCwaGfz9kTmqYOEcUYqZckd3bndHKVM1Z2b7OPy5pHtZofSLmWPg7zcXsiOrbCBbM5lxIpjrgzrIfqJAPGOnfvMgeRYU/bqfZSdG2ymY7kYkn4N57v1+aSY3L7XXOevETF0c3EUn5vV55EbQypeqV5yv7JRx2XT69qq6Bz1fYsYl+PKn0uRtsU1yV5r/O+J1HXNjVWfl8W+Ka9r1ja+1npIKmOF/BT7rjiePAdl3dmuy3sBZJgu5FZ+cZ0CmC5Oe/QMBaAAFIAC7SoAYNqunkNpDcAUwFROdpquLw6YhkcX7YSTJ6mZrEqGAMkJvZ2kBmAWt8ePgcoJOLe3ymY3ZiazBAqEXaFOAixQWZ40F2PwdZOT6MREONEfjSW228GAAlzItitsSLUTxuNAT/qdmXkoY3UmKCE0Cv5x9Szki3WJ6gQ7SBMHQEqvO0hoo+uJMZAmUZ9Sw2Cj9IGzl8dSjqHlxsIhMVbZf6nNCl9QWW9PVM61KcZSQEenNcMqOp6J2YmQcrlZRZmlBXRk+BgAZwFFPUgl2OjgJwHC8Ni+K0fA0D5WTGWKdg+tL4BnJbwN9d2YqR8GnHkbWHMLadU7TGX95UbbWvg5kVFrX0nAENXaXwf0yriR6xNiKIpLHgstS/Fj/ejay8dKdFz5ns6jXIxQPY4laX/CDnl9ofZlvMbHVP+i3dS5m9CCNPDv7pVtyz7ja2uqbW9Hfpysubxmsz+aXNc8OBbXHW7P/f7J+ULo5O2e3z553wBgOpTZQc1xAJjWFArFoAAUgAJQoPMKAJh23kULMRDAFMBUTnaari8OmIoJezTppQmrhwTRJDIJFuLJd7wdtREmslUQrAo4lMFCyWZhQ+mYsMdPzjkbKgJyqbpagwAFSmWFDX5CH7XvtAhtKG2EnfF+a3cBByzoEOsbV1N7BSAQNuTqyLZtWyUbM76gtlk3uxQQWYCLWBetH8OJSIMoJivBegJ4xX3KjDrq38d3BINy/tDtZfSo8JfU2K8ns9tysLO8n6ElLy2ItfCxXNb36W0MIJaPhYzNyfV9n6o9Bq7TAdOQJVq2iW2rt5wQQ+JciNurFZMVrw6J26uC+zqWOP7dsmRH6TwIY6xqh4757OrUH0gSWui+K/qRdfkaIM73oEVoI+zT4433W7vFtYyBqrON2itf19y11V173LjF7zYbn6Kej9dqO2K7ZrUt7xsATBdyK7+4TgFMF6c9eoYCUAAKQIF2FQAwbVfPobQGYApgKic7TdcHCUyTECo1Qa0ATyVQoOvryX3iXaNiUp8FC3ayLzKPEn2m6uq+AxQolRU2+Ak39VECGKENX65yYh8DANLRZfg6YBCNyQKIfB3uk8bFgIL32WVCF85E9eBRwqRo3LEuWj/2a6RB3Ge8HekTtxn3KYGp04gfzRZa+TYjW0pZ1xVx69vgcVUsBwVMCbKGD1gZzhqVemQyTHsDTO31IoZxKf9WxUc5tuS5FsdxGbyG+qUYZ61rXNfk+cD9674r+onOb1vf9hlfP0Ib3Ef1ksrL87HOdS2U4bZpHOG6RP6J2035bDH75H0DgOlQZgc1xwFgWlMoFIMCUAAKQIHOKwBg2nkXLcRAAFMAUznZabreVWDKj0bzJJSX5cnochNPvstlaMIaT2LL9bgPWurJe3kyWzpOQE1kOdFxPwY6lnoEVgEQN/H2dQr4kIISum8BBapsYJhByxJwqJrQp7SLIYGor9p25Rw8qKjDj9kK/Sb7QrfnIKTIMGW9C5AiAQbpJ7ddX0JH0igCpFrzpcQD2S2hTLktfhemfEWCjoM6baTajfZNBUzjrE3KxnTv8PTZnh5ITs4Qde9cFe8AtY/Dc4bo5Pq+T45r33c0Rj5Oy0SZkNVK9eaQYcpxKe0qrjeTYtLGuMq+Tp2bqfNbaBLFtTzPktc9dY0q3pHM5+kSrmvla1B8zRXnY93rmvyjidVXXJcivXms8prNf4QJrwMR9bPXNWd38J2+LoVry6RzXvgoYWvsp7a25X0DgOlCbuUX1ymA6eK0R89QAApAASjQrgIApu3qOZTWAEwBTOVkp+l6F4Epv3PUPdIZTTQLAOaOSUDGGXsCVPqJZxosZCGYmhzriSzVUY+aiowkdYyhQmGDA3pcN2SJhTpHzHXXhXem6vKuHk/ktd0CLBTgxdsnbAj96LZ44q36qwtlxOPwbBu1l21L+S68c9bCE9FWybdiHGyvXVpg48bzmev2qvcyhvE+ZuhDTgFoFEDJ98e+0DoqYNpyPCh9rB0c4y5Ovf/oWDF2qhPGsBhg6oBiyOLk95l6eOmB5GTgaf1nIWloL2R65utTX+G9q66uq0d1Qlu2DGeZRv3YY8U7WucKTKPzM/izKib5mhFiIZwDU17XKt7XHM4X7o9jMjqfI+CrY5nPJQcRXRzr61ryXC+uN02ua7r/8h9C1HF1XStsjK8tuWtU1XXNglrWTdqQP5+DD/Xvl3nvl/cNAKZDmR3UHAeAaU2hUAwKQAEoAAU6rwCAaeddtBADAUwBTOVkp+n6YoBpy5PECqCVnYBW1NET95Zt9RAX7WZ9IzTqgi/atSECs9nsQsRHnfjwZUrZspQtyhmrfdWyHCt+vOIcUfsqrmvqjwC5+thvlJ4D10PeNwCYLuRWfnGdApguTnv0DAWgABSAAu0qAGDarp5DaQ3AFMBUTnaari8CmN69/ckoSzNk56jsOp8FWH1cPt7ZpD7qVOsLfdrTh2AMAVilqch8U/snxD+dR2OCO9Vjda8IkNmnIWN1PsD007c/qv06wX+TfC1fzTCpLI5H59QStZ+lnr//kTs6c97K+wYA06HMDmqOA8C0plAoBgWgABSAAp1XAMC08y5aiIEApgCmcrLTdH0RwLQafMwHbsAG6IwYQAwgBhADY44Bed8AYLqQW/nFdQpgujjt0TMUgAJQAAq0qwCAabt6DqU1AFMAUznZaboOYApgMGZggLEj/hEDiIGxxoC8bwAwHcrsoOY4hg5Mjxz9jvnbb3zLHDr8TfPXf4sfaIAYQAwgBtqIAbqm0rWVrrFd+gdg2iVvdMcWAFMAUznZaboOYApYMFZYgHEj9hEDiIExx4C8bwAw7c79/VwsGSowffr7z9jJ/N9989vmO9992vzgB3ORE51AASgABUahAF1T6dpK11gCp3TN7cI/ANMueKF7NgCYApjKyU7TdQBTAIMxA4NZj91+1Z2/1j7wD8jMWsvRtk8ftHpku9mB+OnMuz+HEovyvgHAtHv3+TO1aKjA1GY+fbtbmU8zdSQahwJQAAosSIEj33aZ/AvqXnULYKrkwEahAIApgKmc7DRdXwwwpQ+0zAcAELA6uvm8hU608zacZw7sP2jch2pa0OOCTeboUuFc6WvjaaC8Y+dB0+5HdaQWB43x49D7pS/JhvCRH/1FdAsqH+Hj+libsEP2k9LDHvdjSWvZpj2qLYoHr8FBY3auW+h5oGybCfyb33Wl8ViUT9w5PymGVk0FTCdo0MY1Yia+a35ukH7yutDYNx0b1zzGIe8bAExHNr0YIjClR0Qp6wn/oAAUgAJQYD4K0DW3C4/nA5jOx9996wXAFMBUTnaargOYNp+o153QTp7QT4AcdSfybcCQhQDTAoomgJ6Fon4/6RRArYS2CkzSGOYMKaUtdeNi5uVUPGjtZt533ZhttVxL51GrNunrS1WcVB2r768JGqiY0LbV76Nb9SZfX7tlb5d0lvcNAKZ9mwUs0d4hAlPKLqVHRfEPCkABKAAF5qMAXXPp2rvofwCmi/ZAN/sHMAUwlZOdpuuLBKYHNu8rMgRFBiBN6EVWnM4cctCHswr1sfSk2E2mN1nQZut5+LbcrFJ96QxPghepfnbs3GcObKZHZN3xJdtg4UwKcuQzK2nCbQEh68RwUMGQQis/Xt2eyoZUOtTLRLRwZ3PwFetA+3ndgoE68NL2r/V3UCGhiwC6CjDJNur0WYJi68yh/ZvMAe93EZMrtHZqfEU7yhbv0yKG2D+iz5T/7D7vL45PqYvzaar/JIRR8bDcaN/oMal4IP04th4JOpB9h4TPVcaqqiNsJht2bspkUhcxmjqXrD/5HBTtCQ3lmGlsweZiXWiZ0lvWL69XxIONwcyYKu0mzYOecZ/lGJI+ijWQx+R43TlTvrYmyj8SnatJbeP2wh8syH6pu4pLpYO4ptB+cT6QX0I9baOMSeU/fjoh7sPGUV7fWG9sLzfyvgHAtJv3+jOzaojAlD5GgneWzixk0DAUgAJQoKQAXXPp2rvofwCmi/ZAN/sHMAUwlZOdpuuLA6ZhEm0nwwJuhIksTaDDBFhPrtOANNR1x91Em2GDm5C7ibgDAf69gAKy6X5knQIQ8ITfTti57bw9eRu4TmRLASJikOABgrBVjdfDCGdzqO/s9vVXUH+sq1xfbuzjv0lfsK1uaUEJ6yDb8zaEcqFf3Ya33QKoxOPiUVu2vNgnAZPV2Nvtxk8ATWrg+8uCIVFeaEz9hHZ0PHCb0hbeF9vr94u2/T5rk44DHYekHR2XtmT05PEJrVxd9nlVPND4QjlpXzaOqR+GWNS3HJ89FiCb1LI8Ph6P1kG1x2NLLqN6XEbaw39s8LHCfcbLSGvZBq3788f98cLFR9S/qEPjjoFuiCnXdzaGrN/1dUbFu9Lf2c0wW5UjPVRMxGNObUc6iPraf/K8oDoihkgH1lvUp9iSbejxyzZoXY8/jstYS3kc6ym/un3yvgHAtJv3+jOzaojAlL4AjX9QAApAASgwXwW6cO0FMJ2vz/vSG4ApgKmc7DRdXxwwFRNgOaEuoFCAC9HEm7KIePLNQKRiKSfkaoJuoUcEMSwADLAt2KCBTwCA1RN5nqhnbfB2x+2UoZVsQ4MFMRm24MSNSQMEaj8aKwMNpf10wDToIAGctN1l6W3w4xS2in00tqRPI7hi9RT7FITy8Fb2wb4UMST6Zf+4ZewD3pbjcW1LX3AblT6JbMuWLUC505X6FedI1m453mhdxAPFcvBXRTyIrMFQPj1ur0McQxLwCX+RVr4OjYfPwfh85v0yZiMNWXe9ZJ9pHVSf1G9kk26D68Ztie3SeIs6E+0ux5LsOx8Xou8iDmhM/pyxfuZYicrGttYaO2tAy6g9H4d8bunrio2ZuE+5HfUffEP96LYClOa+0udxaEPajXUZW7l1ed8AYNqXu/+W7AQwbUlINAMFoAAUGLkCAKYjD4AODx/AFMBUTnaarncNmFoI5gFKBjAwmPDl8pPjeDLtoYScxHsIQO1k+izK+Pp2OwcTtD1ZG3y/cTtlG2Qb2gbRVwEj7GPlSpu4fVEn1iHe9jaKOgrs0f7I3vXbXUbm+u0C0un6agJPfSaBWMJuYV/QgcrlMy9JOw+XMuMpgSEPoaKxxdCvaC/YEo0zAkQ07mxZaovKk+8u2GQOLfVjZaJvq4HP0kvomtCF7JSgVcYgj8OCeeET51fRvrCBjsVt2PJUX/4hpNRepGnC1lK/okypz8gmVzfuQ4yB/cL65ezL7fe2lGNJ9p2Pi8gWao81KyBjgNtR2dimWmOXWkTt1RlL3KfcjvoPvsn1I20h/SgmNTgNbciyWJexlVuX9w0Aph2+4Z+FaQCms1AVbUIBKAAFxqcAgOn4fN6XEQOYApjKyU7T9S4CU58daaGAnhz7iV808fb7/YTeTZj1ZJom5dyeXNeTa6qTA2waatSZ5MeQKNVvuR3qx+tQZN0yFLH2pQCj0MTCLgFNdXtivFSHQRBn94p6OV2VDqoNapvf/8hZb6K/yD+ufRq/HG8or+125VgHaYPVxI8j1Kf2qVzOn2F82gcyBqps4PrSFt5nl8InvD/rP6sNQaHt9j25By7Q43BQN60Tt62Wqm+tsR5T3E/YJls5DuW6s6U4lyL/q/EpG+JzIfSjsz7JVj5PRZlk7MjjmXp0HRHny1LjwcLK5DmS6d/b3R4wzcZbnBEqYSXZEflKxYu3M9Y0fR5bP6d0UH24uPPnnzxm10M8143JeOxZO5LjkWPDurxvADDty91/S3YCmLYkJJqBAlAACoxcAQDTkQdAh4cPYApgKic7Tde7BkzdhL54NNN+LCaAEws6xGObDM6qJv12Mp2rY4FseAyUwZDLmAz7jQBxerJOMCANE6RNeRsKmCDsC2BHHwu2uUm+0oJhEAEIXucPFflt3V7opwCK1obtZkcMWDLQQfWfgFv2eAqmZNpjGOhfg5CxW/pc+8Jln9HxWG85VukXvZ7XJ7ZN+kLrILLfChjkx0P6Cj1UPT9W51trf7TP2epslP3rMUQASMVD9G5RhuMce76/SAcR37Gu0hf6mDgnIhuoHNuvNFCvDChnUHKdyvEWGaxe85p6p9uMdPD6FLaJtlX97DWFfJMGprEOIYMysoF8xXZE/dCYnT+ojtA/cT7L/ibrGrWnzl93znm9Rb+hj+IjeUKvcIz+MBDiIT7P/Fjjc4k18LZIncLvC+UXXzY6R0a+X943AJh2+IZ/FqYBmM5CVbQJBaAAFBifAgCm4/N5X0YMYApgKic7TdcXA0wxaR32ZD4Nhro95iowNN94JaAkYWRXdJOwsys2zc6O7sRDeYzl88sCawEly3XmG8Oq/wS0VcdHDi0XqYW8bwAw7cvdf0t2Api2JCSagQJQAAqMXAEA05EHQIeHD2AKYConO03XAUwXCBIGBwpCxlkXgV81mFg8IOPMu8lZf4uJWQDTxeieilsLSDk7WGaedvGaAmBqUj7swj553wBg2uEb/lmYBmA6C1XRJhSAAlBgfAoAmI7P530ZMYApgKmc7DRdBzDtDgTpwgQaNiAeEAOIAcTAOGJA3jcAmPbl7r8lOwFMWxISzUABKAAFRq4AgOnIA6DDwwcwBTCVk52m6wCm45gYA4DAz4gBxABiADEgY0DeNwCYdviGfxamAZjOQtUabd6/1hx3/Fqzj4vG27wfSygABaBATxQAMO2Jo0ZoJoApgKmc7DRdBzDFBFpOoLGOeEAMIAYQA+OIAXnfAGA6sokEgGne4Ydvf7c57vgTox8BOfNVJx+JAWm8PbkFlIACUAAKdEoBANNOuQPGCAUATAFM5WSn6TqA6TgmxgAg8DNiADEwuhig96c+st3smOrdrvQ+425+eK1t/8n7BgBTcYM9hlUA07yXLTA9Z4s5LIrsW0MAtQVoGgPSeFv0iVUoAAWgQB8UADDtg5fGaSOAKYCpnOw0Xe8EMF3kR0EyE+pxfeBmgCDpgk3m6P5NZsNUoCSjg42Rg8Y8ctC08UEm+rhTmx/FarW9YqzBvnY+hmU/UpTyB/mpJV3bhkmV7YmYoLgIemViaEIctufD8OG1qUFh0hcOHtIYTew/oUEb50WV3uojV7EdVdpaG+cBTJ3us9ahSqMmx+R9A4DpyOYSAKZ5h6eAqTEPmvXHv9vc8Xi+Xq0jMSCNt2s1gkJQAApAge4oAGDaHV/AEq0AgCmAqZzsNF0HME1nIAGYNgM/TSbtM6nTJjAtgExbMdEeHHM+arU9Akz795mjO9cVX/aeLTAlTQ+tX2cOTQPBqgDZPI5ZCLfPHLigvXOkVR9aDab3W6UvKs6nts6L7HUggp6klfHx2Z4Psv3XiikAU32Hiq3OKwBgmndREpg+vsWcGwHT+NH9c29/otSoy0zlx/vXmn0xIOVt2z6XO9Gsv183pdspH9eleesJc8c5J5pzb3/QLuk1A9xuZXs81vtpzGxTkV1r7Y32cXfGmMp2a45VNIdVKAAFeqAAgGkPnDRSEwFMAUybQlJZb2HAtMhmsplLlL3kJ8AyQyrO6NPHZFYXTdp9W+IRTAsBNrssNnvc91NMtGMQENtFtj1SA45QvZ2bzIH9LhNRZXdFbaosJAsDuI7sR4816FMFCKI6EYRSGqljup60z8IJq0HsC5F5FmUIqn6EL6qBRM6G3P7lZsfOfebAZgLeMvtTl9fHlhuy7ejmTfaRW3tM6qB8Uc5Kc3XPK0BilR/4mNaI49XCMRFN6onkAAAgAElEQVSTUu9VKlYiGzL2SdjmtJdxRDolsgNzEIj62LnOaWuBoARvWltld6493l+0q2OA2qMx0lLbvMru4/Miir2MDlXa5WNS+6jOmEjPbLkq21LXB1Wex8t+L3QpxTjF1yRfSL9xPFYtq3yx3Fht5bnCfl3B51R0XqhxReNRoDnle22njG8XP2Js1E9KV6UP9x/a1fFAursycj+fr7bPqut7oUXZztCfjvvu7Jf3AsgwHdlkAsA07/AyMHXg8bg1D4pKD5r1crsAngwkqaCFh/LRfg9FxaP9DCBFOQdiRZnHt5j1EsbaOnWyXQu7I9BrJrXHdnqbuJ0TzXHxvkiDSjvrjFUojFUoAAX6oQCAaT/8NEYrAUwBTOVkp+n6YoApTXgFILGTXpfRpmGEgwI8cdUTUtmGmECLiTxNUt0EmCfMsk71pJXqZaFI1IefUItHc22/MZy19SQgkOuRPUKTppNtNQZqLwM8tObBDlW/ABDsC30s1Fm1Iu+LqnHkbND7y/Hgx2RBI/s5D3isXwTE9TEV10/olR+zHD+va1vl2KlPBjQO8rHdkXbShtg+EYN+DFRejI37tP1lfM9l/JLaoLhdv72I/2ATtRPOifz4fFvCxuQ+C6HceR9rq/tiTQu/JsZYijupXUVMxv0m7VTjqDhnYx9JG+yx8Oh+PD7a5nMr2OA0Dn8smcYXoWxoT+ioxlToWlyvkpqQ/ZkYKpWv0MH+kYOAKcdZhW+c3Sm9xT5qR/wuKdmSal/Z5zSOtS/5Y4L/amkca96BbXnfAGA6spkEgGne4XHm6HExcExW5WzOIsuUszTjR/g5y5LbSMJPevw/ZINy0bCcdJxLpkAvH5PLqL2U7Sk747HIJu161G6qDfuqg6qxlhrFDigABTqmAIBpxxwCc7wCAKYApnKy03R9IcDUT5aLCbzfFhPhYjIZJsAEADgDi5cMXd2kV06ceQIb6lNf5fa5XLzU9SpAA096Y6CgtmPb2e4i+0+AVm9HMUH3QJD7mbCkiT5nVdKSAVcJAPh2cmCFNdXtebBgQYXMDGaNuF4Yox+T75PL8rLKBt2O9IseU9SG0p/7yWTDkV0+Brls1F4uky43pkz/pEXWbtZUxnkBqeS4Yz2Dzxm88hgaLL0O5Edqj3UonztVNsU2prZVfaUX91m2X9WR2ldoF7IxdSxZm7he4o8b1Fc4l1hbsi3RzqQYUuMrx6GOCR53WXOnY3l/WZe0hiFWdNaxqh/ZavtM7Sv0V3Un6MDjJHBKGfkbKL4YxFIfIvbdtaY8VnUd9/HKmsXLhA62H/YntV+G1Wynj9to/KUxy1js0bq8bwAw9bfX41gBMM37WWeYFtDRZ1bKeg4I0qPu/OMfyyc4mKoTQ8Z42zYfgUbax1mfoi/OZi0BXp/1GUFcaXpFe66vKIM1ZWdqX1W7qfIAptIrWIcCvVQAwLSXbhuF0QCmAKZystN0vV/AlCe58aSYt93kV4JTPbFNTb65rl7qevqYn0TLiXE0obYArgABFlJ4IJO2gUGGB5LcNkMEhgq8P7W08CdoJMdQAgC+fgIo2GNpO0tjzwKnsi9KdRvYkB9TNI7YH0Vfsr6ypwReovbmBUx9nOiYy9rNANY+4p8BeV5n3aYaP5cROlCf9v2iNqOzHA9VNiXb5j7skuNDAnm2v6w9t5ftU9jNZctL7pP7EXpk41iUEXaXzlM6VrJBjCOKx3gc6fOzrLkbU3l/3F4p41Zpnx5TgMPkk0ijyH6pbanvCh1c2XXmwM5NZsfm7ebAenqVCb8vN7bLbZe1EbqW+orbEGW9BrRPxF2i/1Kf0fhLY/Ztx/13e1veNwCYjmLqEAYJYBq0iNc0MKWjZYDJkJKhpTERnCQ42BIwde8FlQCzbE88Brcd2VQUmtheNsNUvCaA2ooA6MR2o/LOnLpjKYzHAgpAgc4pAGDaOZfAoEIBAFMAUznZabq+EGBKk0//WG0xeS0mrTRR5axIN+kP2T/6WH4iKie7emJbBg1y4i/XqV54FDbfl68TTailrXLdQpUYRhSTbW2r7DM16ZfHi3WCBx6sOl1ZSzsef0zWdRCJy/nx8OsMEjBBlrHr0djlcekLuV+v521Q2tlsRx0PAVxFGqkYC+PNahyVT+mVrZuEJU7/YF+wQWsi7ab1CFRx2+Rbf86EtkhH354dQ7k+HQ9xoetqP8TQb505tHO7OVT0W+WLUjtsd26ZiBk/juL1D6mYdOdP+KNA6LdCu8iG0E+kRcKm0H4oa2Mj5YuqGIrajmNJa8t95a9Xunwq1mRccXuZZWQbjbmkUaIMaxOPRb9mongtCl97LODcbg5sPs+99mF/jeusuq4VWfl8XbLtVQHXhA4T60wef2nMUYyxNl1fyvsGANORTS8ATPMOLwNTYxwgZWCYApHRPgsHJeR0/el2ytDRlZIQUa6zzal9fEwuI5vsoVTdaF8jYBq1keoLwFQ6B+tQYDAKAJgOxpWDGwiAKYCpnOw0XV8IMC0m5C6jabvZoSawbvLP2U4amuhjHgJZUCEyhnhyXsoKzAOI8sRW9lWGUKXysQ08oaeJtDxmP1DC7ck+yP4AghyUCWPSOmTAR/ShkwPRe1gJgrCuXjs70dd2hL4cyPR1hH2qLflKATlWyuISvihppiBDzobc/hhqULmgH/UlbeQxVYEOrXloS+93GqZAaGl8kRZcR8OoyG46F0T2G9tNbWs7gn2qvaI+9+V1qOsHdS6yhtxX3helsSvfluPVjkWeI1Re9Z3vK6eDg6khxr12kR9kTMoYId2lblVj0jaEeno/61Z+py6V8/bR2JWNXK/qepXTR++3sTTB99bmnC+UXYW2RVk9Vn1e6GM8njBOp7OzVemQiRvlJ2mrihkZZ1U6JI4Vbap+7HlYXKtJB6FjyX8Zu6tiqAvH5H0DgOngpgnVAwIwzeuTAqacQcoffrLZlP7Rdwaq9EX64h2mRcapyjL1j6szeK0DTMvQ02Vy1nnvZ7kujyPYGb5s77NlGwHTcl8lOwFM80GHI1CgxwoAmPbYeQM3HcAUwFROdpquLwqYdmGy2KoN0YS61bZ7OhmHBhLgYB3xgBjoQgyUYKeFwgLqjuh6K+8bAEwHPmmIhwdgGisSttPAlOEmg0qXURneXfqgueMcCUypPQcRuYyFpzE0jLetGVG2pget7l2p6++PjgfTo7UyxLQFJrXXCJiW37NasrPOWKMRYBMKQIHuKwBg2n0fjdVCAFMAUznZaboOYNoSxAAwNV2AIbChpXgeETRCzIwsZiwgDZnIpfe1jij25X0DgOnIZhMApiNzOIYLBaAAFJiRAgCmMxIWzS5ZAQBTAFM52Wm6DmA6MlgwIhgAEIbYRgwgBhAD+RiQ9w0Apku+Le9XAwCm/fIXrIUCUAAKdFUBANOuegZ2AZgCmMrJTtN1ANP8ZBITbWiDGEAMIAYQA0ONAXnfAGA6snkFgOnIHI7hQgEoAAVmpACA6YyERbNLVgDAFMBUTnaargOYAgYMFQZgXIhtxABiADGQjwF53wBguuTb8n41AGDaL3/BWigABaBAVxUAMO2qZ2AXgCmAqZzsNF0HMM1PJjHRhjaIAcQAYgAxMNQYkPcNAKYjm1cAmI7M4RguFIACUGBGCgCYzkhYNLtkBQBMAUzlZKfpOoBpExiwzhx65KA5tL5JXdQZKnzAuBDbiAHEQJ9iQN43AJgu+ba8Xw0AmPbLX7AWCkABKNBVBQBMu+oZ2AVgCmAqJztN1xcDTAk4bjc7ZvQBog2b95mjm8+b4VfbxwNMZ6/lZMCSs2HHznFB65wOdQHNUuvX7QflJsc0NIJGXYgBed8AYDqyeQWA6cgcjuFCASgABWakAIDpjIRFs0tWAMAUwFROdpquA5hi4l41ce8CZMvZAGA6XezmdKzyP45NpzH0gl59igF53wBguuTb8n41AGDaL3/BWigABaBAVxUAMO2qZ2AXgCmAqZzsNF1fJDA9sHmfMY8cNOaRfebABWGiTSDM7T+oM0XXb/f76bh6JD46JjNM0+2dZw7s32cObA5tyjq5SS9BJ7ZN9b9iuZHHTK0M2nXm0P5N5oAfr9CBxrNzkzmwn7WQGblkO+/XOuRtyNXJ2HDBJnPU+ib0E/upjkZm/yazocgk3rFzSr0n2GCB6eZgp/KfjAdhQ87mVSuq4yEdQxSzWlfvd7Jd9Kthpa6j4kjazefFBB1iG/LtRedTMsO7oQ4pu4v2VUwKTaz//GstZNZ5tQ2rVF/ivFA6if3JcYbrTT4mUAbaDDsG5H0DgOnI5hVDBKaHDn/T/OAHI3MkhgsFoAAUWKACdM2la++i//3jP/6joZ+nnnrKfPe737U/3/ve98zTTz/tf77//e8b+nnmmWfUT+734aLHhP6XrgCAKYCpnOw0XV8cMD1ozM519rF5C1TEegBfDiwpAOThhwAsFpQEQCLhlFxnsOTaK6BV0e+qFaI930d+sqxhD5Wbrr4DEVRHQCwCQQyULBQKAFWOQ/dNbXC5vA3VdYIN0hdko+y3FjyRY2CIXGhMNvjxRT6rajtng22PwbRsj9ZZx8iGfD/5eND965gkG0K8Cv0TNnC5vC+obfZlOfa0HeF4tj2pSW1fNtGhwu4J8RDObaEdQ+jUuRmNKfhT1l9uLFQVMRDKBd2wD1qMPQbkfQOA6dLvy3vVQm6CGE8keYIpJ500CeUJKU1OeaK6aAH+9hvfMt/57tOLNgP9QwEoAAVGowBdc+nau+h//HsIwHTRnuhW/wCmAKZystN0fXHANABOCzcsHClgTZTZ6KGKhSUy49G1EYOksF3VXgXkaQRMua888CpPziPII6ErgSYPjCTYoDpSA1rnPnM2VNWJbIj6DVpKG/LrpfICHJbBnoiBCs1LbRZlc+1Rec4C9suklnIcuXhgTbXmLiYj7aT/xLjJ72EMVb5YbmhMpezpYryhDWl3vr24fLxdjkdqt4kOebtLfQpdcv7L2yB1lBoUgDQ+LwBMZ/ge50j/ivM3HWeo3wVd5H0DgGm37vFnbs0QgemRo98xf/fNb89cO3QABaAAFIACTgG65tK1d9H/AEwX7YFu9g9gCmAqJztN17sHTBn+xRNqB644S09mdMZQJmzn4A+1XXUs7ru8rWGPPO7sDBBTHovXI+BmgXABESNwGSbXUZ0kqIhtqKoTHYv6DVrGtqe3S+VrAbJ0WzzmUps1gGmIk+q2uY98PFTFSaRdbWA6GRSnwGlah9iGMN64fLwdxh7qNNMh1I/tLvVZKx7ympfa4/iP4jY9tmAnjkMLxMByI+8bAEy7ea8/M6uGCExJLMp0OvLtxU/eZ+Y4NAwFoAAU6IgCdK3tQnYpyQFg2pGg6JgZAKYApnKy03S9W8C0eA9oMhvQQUDONiVw4t8XSbCEs8ksdAyPSdty2fZycHYyTMgDU1d30nE3WdewS9laAYCo7TpAUNqQr6NtCNm+bhzKJoZTVUvpixVF5mGhv7RHAu9J4CJnQ7Y9CZ6rbFXHqiFdOttXxyTZ42NS2hDFZN4XOu5o3NLPVTrIcl5P6YvIBl9GaUD9N9Ghwm5pQyIe2G6lXYUN7v2lKeBMcVx9Pus+tM15PVAO2gw3BuR9A4Bpx27yZ23OUIHp099/xk7gKeuJHhXFO01nHUloHwpAgTEpQNdUurbSNZZgKV1zu/APwLQLXuieDQCmAKZystN0PQVMzyxBlLYnjFWQzkEo/yg1v6OSbCL4Ujx2e3TzJnPIHxN19m8yOxRoEsdsXYYteTBUBQgcdJGPZxeQpgBSbJ8HuJVakg6iLYa+PNYk6CVfZOpV2pCpI7Mik/3KetVAinVTGokx0X4G3tMAUz3eYENVexYuCm1Dv7lYroqHXAxVxWR4TJ0gKn3gjOGgHo94r2vsVx/fbHPOF3K/bE/YXTovuM142USHqP/I7lw8rBLxWj6fg585rnipfcvns/YFnYdBbzdGZ4coX3luxrpgm/XHchixQL/n5X0DgGn37vNnatFQgSmLRo+I0mSePkZCX3DGDzRADCAGEANLjwG6ptpM/g48hs/Xe1oCmEo1sM4KAJgCmMrJTtP1FDBd+dKX4d13c4EpBJoAcIYDYODP4fhyGFAM/oAfczFAv+flfQOAKd9dj2Q5dGA6EjdimFAACkABKABgihjIKABgCmAqJztN11PA9KQTXgxgCmCKGJg6BgBMc3AG+wHuEAPdigH6PS/vGwBMMzfbQ90NYDpUz2JcUAAKQIHxKYAM0/H5vM6IAUwBTOVkp+l6CphSW6e++CUAZlMDs25NiAEo4A/EAGIAMYAYiGOAfr/H9wwApnXuvAdUBsB0QM7EUKAAFIACI1cAwHTkAZAZPoApgGk84WmynQOm1BZloNBje7N/pykmtPGEFtuICcQAYgAxgBhoKwbo9zj9Po8zS/m+AcA0c7M91N0ApkP1LMYFBaAAFBifAgCm4/N5nREDmAKY8kRnKcsqYLqUdlEX8YkYQAwgBhADiIF+xACAaZ077wGVATAdkDMxFCgABaDAyBUAMB15AGSGD2Daj0lI1yeLAKaIo67HKOxDjCIGEAOIgdnGAIBp5mZ7qLsBTIfqWYwLCkABKDA+BQBMx+fzOiMGMJ3t5GEskzMAU8TRWGId40SsIwYQA4iBdAwAmNa58x5QGQDTATkTQ4ECUAAKjFwBANORB0Bm+ACm6Zt+TIam0wXAdDq9EF/QCzGAGEAMIAaGFgMAppmb7aHuBjAdqmcxLigABaDA+BQAMB2fz+uMGMAUE7Y2JmwApoijNuIIbSCOEAOIAcRAf2MAwLTOnfeAygCYDsiZGAoUgAJQYOQKAJiOPAAywwcw7e/EpEuTSgBTxFGX4hG2IB4RA4gBxMD8YwDANHOzPdTdAKZD9SzGBQWgABQYnwIApuPzeZ0RA5jOf0IxxEkcgCniaIhxjTEhrhEDiAHEQP0YADCtc+c9oDIApgNyJoYCBaAAFBi5AgCmIw+AzPABTOtPBDBpymsFYJrXBnEDbRADiAHEAGJgDDEAYJq52R7qbgDToXoW44ICUAAKjE8BANPx+bzOiAFMMYlrYxIHYIo4aiOO0AbiCDGAGEAM9DcGAEzr3HkPqAyA6YCciaFAASgABUauAIDpyAMgM3wA0/5OTLo0qQQwRRx1KR5hC+IRMYAYKMXAxY+aXbsfNecva0+b8281Ztfd95kzW2yzZHeP2gYwzdxsD3U3gOlQPYtxQQEoAAXGpwCA6fh8XmfEAKbtTZz6PMlZqu2LAaaXmrseOmy+/rXw8/DWS81SxzL7+jebPWTzvTd7W2+497DZc/3kWPzg1kfNzMf4/nvMww/dYz441SS9r76YrPns4wE2QGPEQCkGCG7eusVfI0vHp7o+Ffr2GJieec0Rs2u3MTddzLGyxdy029h9tH/X7iPmynfwscUtAUzr3HkPqAyA6YCciaFAASgABUauAIDpyAMgM3wA08VNLFqZADaZNM6gzuKA6aPmrvf3zYcETB81Dz+019xQ+GIYwLSPvuhb7MDeIV03MZaKeJ4FMJ3B7765+PAd95mtux81N90aA9N2s2XbGAuAaeZme6i7AUyH6lmMCwpAASgwPgUATMfn8zojBjCtmLD1dXK1ALs7B0yv32u+fu89IgM1wEmXpXmPy/KkTE+RTUnHfMaq2L+soj2aZLp6oY/qiScB073mhuv3+mxRBUypL86aZRso65P3+aUDlKpuCcDqzE+ZnZrVQWWYlrNh02OjfjLAtEK7rA1e0yJ7mHUo9j+8Ne2/tG04x6ELYqB3MVABTDnb0mZWqsfh15or75ZZl6bIUpX7NWSktm66hoBkUa9OVqsFmKKfKhu4PZvdGrJA3RikLS5jdOs1a6OsWmc7ZZbS4/86w1TW70aMA5jWufMeUBkA0wE5E0OBAlAACoxcAQDTkQdAZvgApt2YZPRuMhtB2cUB0/A4PkFGDwQtdAwAz4E597h+DDc9cKQ6EZjzj81XtEe+i9us9mcBTJfdbPYU/XkbFKws2hWP7stxcB+0zz7O7+sGeEntek2WOXjKj/7HNpdtcOVD/apzxZX1oHeGvsjaHcUk64Nlld9wDPHR0RjIAVPaLwClBY8FlJTry4qsTP2+UoKSGjJqcEnHA9SsFRvUj7BnWc5uuj75Y2U7li1LA1M5pjIwFdCWweyCr4MAppmb7aHuBjAdqmcxLigABaDA+BQAMB2fz+uMGMC0o5PFBU96ak0UhY2LA6YBiiqbbVZjeEeoPJaCjnS8tN8DyBOMyzBNtyfbrrfOwNT1SQCTYaWDgRoCe2ibslHs++DWvcVj/gQvKduVllofOUa5ruymcRdZrPVgKZ1D5b58my37Imu3iEffN/ZF2Wq43iE2ehIDHi5qewkgqixMASwlXJwGmIb2KJtzicCUs08lRBXXIfuRKPUuUj0+FZ8R9NXAVNZzWahhHPLYfNcBTOvceQ+oDIDpgJyJoUABKAAFRq4AgOnIAyAzfADT+U4m1GRITKL6vh/AdJo4CsB0GcHJe29WwLQKUiZhYQEkb7jXPea/53rOXC1DTFlfrqv4K0DxXffqD1OpMqXYLfflywOYAlqW4mWa8wVl/bk0Jh0bAFObwcmP1iehZDmzUwPYFoAp+ygDTs+/9Yi5iX78x5vy8W0BsBiP+7gTv2ZA19Pj0MfmGT8Appmb7aHuBjAdqmcxLigABaDA+BQAMB2fz+uMGMB0cROLeU5iZt3XEICpzSIVj+RT1qfP7qyAfqQtwcev03tJebJcuRTAdBlll+41e+49HB6rr2jH9iMe0bd+tYBzr9mz9WZjAexD9EEp95V7/Ug+9Vv0IzJTS7FRANMPWtuEBpVjaheYVvkiC3or7cN5XvIz9ALI7nIMZICphaIie9NmbBaPo+czMPn8bwBMC/CZzd6k48IefZ7p/kIGLO2PM1lpn9HZs5F/8uNzdetAWG0f69LeEsC0zp33gMoAmA7ImRgKFIACUGDkCgCYjjwAMsMHMG1vojDriUiX218cMNWPr/vszArAWQXcLCTljyoJeDrpkfylAFPbdgQy5btA+Z2jzv8Oerrj/Li92+fGTuBSQk5ZXr7PNPEKAp6cC2DqHrXXH8ZKx2HRL2sXv8M0hrxFX018UVUnbRvOceiCGOhdDBAwVdmVATBaSMrHJKws1eGPJDmgqNor6unMzESG6ZTANM4K9aDV2iben2q3w5hy7zCVflPAlDNYCx26AEvJVgDTzM32UHcDmA7VsxgXFIACUGB8CgCYjs/ndUYMYIqJtJyQNV1fDDCF75r6C/UQO4gBxMCwYqAMO0NG5wx9TeCzIx9c6oI/AUzr3HkPqAyA6YCcSUO5f6057vi1Zt/AhoXhQAEoAAXqKABgWkel8ZUBMJ3hRIoz9kawBDBFHHVhsg4bEIeIgf7HwE2fOBBll4qvwXNmabQkv8fZnbuKLFKVWRrVm/ZYuR+XNTptO7Mqv+j4BzAd2TxiqMD08O3vNscdf6L+OWeLOTx0/wKYDt3DGB8UgAIVCgCYVogz4kMApv2fXC56gkT9A5gijroQh7ABcYgYQAwgBhYXAwCmI5tQDBqYKkD6hLnjnBPNcWrfAJ0NYDpAp2JIUAAK1FUAwLSuUuMqB2C6uInFkCZ1AKaIoyHFM8aCeEYMIAYQA9PHAIDpuOYQZjzA1Bjz+BZz7vHvNnc8PmAnA5gO2LkYGhSAApMUADCdpNA4jwOYTj8hwCSqrBmAaVkTxAk0QQwgBhADiIExxQCA6cjmEqMCpuZBs/74E836+52T48f2z739CeX9fWv0I/1cz5giW9U/8l9A2ASsdH3od4pSu7Kv2I7j1jxYtmPNg4btkXV5n3v9wFqzL2GDagwbUAAKQIEBKwBgOmDnLmFoVcB07dp1hn64TLzN++US4Gyck0P4fZx+HxMIwFgR44gBxABioDoGAEyXcEPex6qjAqYqw/RBs16CSXssgqny8f3713rQaiGlqHv49rVF1qoGshKsBtiqyzjgKYFq+dUBDEVDGy7S7H5pYzEGfPSpj2cibIYCUKANBQBM21BxeG1I2Bmvb9y40dAP74+3eb9cApxVTyaGOtmC38fp90XH8w33HjZ7rof2rfrhHfeZrbuNuenivuh6s9nztb3mhhF8XK9VP0MvAz3bP8cBTIc3T6gc0XiAqQOVcfZmEMeBSs7ejKForlzY79aoHrfhXgGw1qxP7LNfsVcAV7QU7S+BUSoalfG1kWHqpcAKFIAC41MAwHR8Pq8zYgk74/UYkMbbcXnaBjhrfwLSh0nduP3ebWDzwa2Pmoe3XjoFHKDxHDZfFz9dhJI0rq/fe/MU42r33Dz/1imh4sWPRl/+dl/X7tz53Row3WJusl8kP2KufEesPR+jr5/X1KGwK1n++r3m6w/dYz4ICLiw86FzcYxYWEgsAJjWufMeUJlBA1P/yLx7tN6DTO+/AqKKcr6Mz9ZMvPPUQklqU2aGukbt4/Wc9UnlKBOVlsU+e5yzU8V+b5JdcfCWM0qT8DZXl/Yn7NLtYwsKQAEoMEwFAEyH6deljioFPXlfDEjjbS4nl+MGZzEUGM/2uP0+RGDa8Yy9999jHl5wVmEjYHrrloVAjLnDLAs3CYQSGI2BaWrfhGslwea77zNn+nbL5SnbeLo/DJTbmLtOgHrjOB9G5GcA06Xelfes/qCBKYPLhE/4vaEMJfnxeQ9MuY4FkARHy+CU21CAUmR+Euh07ROYpfoahEqQyt25pS4HYKrVwRYUgAJQIKcAgGlOmXHvl7AzXo8Babwdl6ftcYOz8U7AB+93C+hC1iWDGYI0MhPTrtfMerQZkpzF6bPjHHy9i7Ini2Myu1P2xzYQ5JH7v84gMbLZtfeouev9HKeXmrseCvaHfvIA2GWr3hMyUL3d1Naj5q6te73dwT7dT9h/gsm3xzaml65eKmt2rbnybspadD9br1nrgAwBt0GFdPMAACAASURBVFvvE8dkVqOuEx5F1/stsCPwUcoUjbIkfSZktN/akAamZ15zxGy95r4iI9M4OGghC8HFR82V1xzxYwr2ySxNme1Kdh8xV14TMlq9DhXghgAw60bL0M8JhuwLx6R2J5hlxXhl+QAey3DUjbXwS8Ie11fUB5erAKbLKN59PKbjJtiF49ACMTCLGAAwHdmcYpzAVD9+71ye2sfBUHVMv5OUwev6+2l/yEB18FTvyz5WL6ArWZAFplmIG/rlEWAJBaAAFBiDAgCmY/Dy9GNMQU/eFwPSeJvLyeXgwRlP3LFUmUHj8nsBBz14zAPG7IQ0+wgxtSUy5QQE0pDQQcgAOcXkn9oW0FbXC+UIsob61C/DVGcDA1tacjlqywPZAtS6YwUU9f0GTaifAEm13fn2gp1lDWP9Q1mCfkk4aCFnyHSU0E5nipYBH/cv69A+XY9tcIDzfL4+UL+UGUnbJdAaoGAMCUPbDor6MREwtO05mBsgpbS7AL0+mzWyiW2rWIb+aVwT6k8JTG3b17j3pFoI6+10GsZasP52WQVMl8kYZn9gqfSr8DnKIVbaiAEA0+nvw3tdY5zAtAwhOVuUM0z3rZHQUQLTJ8wda7aYw97rMTA1htuS70v1+6KsVwtDBVhl4CrrJoGpcTbxo/7WHP8aAWm7NxQrUAAKQIHBKwBgOngXNxqghJ3xegxI4+24PG2PC5xhgsUTrOH7PYaIDBcpBgIcZD0mLTWslHGUa6sAkpyRGmWfOvAYskUnA9N4PFSXx5SzgTNCU5mdOYhZ3i8BrlyfpFk4Xm7THasAe9nsTqqjMyt3iUfICe6FzEoNYzVULHxYgqIiWzRrg8vg9FBUQa3cmMr7gz1FhmnpvaEyzqrXQ1tUrgCwQpfgi+p2HGwNoNq3xRC5aDuA3wntVQLTXFxMaFPpjbL1fQutoFU5BgBMG92K97fSWIGpMQ50Hle8v/Tc2x80d5wTPtjkQKZ79ymVYZDqgaZ472l4rL+IgwJcqv3FvtBOiJl8X65MGpjSsQKasi0EY/EO0yAs1qAAFBidAgCmo3N5rQGnoCfviwFpvM3l5HL44Kw8QcCk6YTBg3L7yLvPnozBTB4w5mKjGTBloBnFoH30XhyrlWFaZXP+WB5wxpqwjeX9sg25ntOqvL/cpitThoi+bhZWTqgjPkhUK8M020+RYRplU7J9cdu8P5/dWbY7QM62gSn7sgk4JTslMC1n5ubHzv2KZSUwzcdt0FO0BVCqnhKARoiNNmIAwLTWrfdwCg0VmA7HQxgJFIACUAAK1FUAwLSuUuMqJ2FnvB4D0ng7Lk/bAKbjnHQN3e/qsXICkj4bk/xNoEYAyxoghkBh+qveeehj63hoK+LMAlP+SBPBxMOlR/JlxilPitWYlM3VNoTH64UNy3IQ071fNdShtvUj/uGYbK96PQ1aHdBLZmpWgEwCjdk6PhOSwJ8ul65XBoSst30kvzVg6sbqMzMtSGQwOQmYurHsythC9gb4WvZD6ZjtW7/z1I858dEn+8i97zsaxzJ+X2p4XUFoi9+XmjkmXl+h6qjYLo8HZaEJYqC9GAAwHdccwgCYjszhGC4UgAJQYMAKAJgO2LlLGFoKevK+GJDG21xOLocOzjCxSk+sBu93CyWLR97vvcd94Mi/w9Q9qu7f+ZmCmgloY7NW+RF7/7GaPKxcZqGkeOyeP+6kPvpUfHhJ2eAgZfmjT3L/YQFwo/21AGcemDqgHOyWgDQNPtMxps49BYll+QIGJj/6lP7gksviFI/ee0jqYJ57JN99eEmB1QIU8nH13lLxmL+vQ9BW7N9Vkb0axkrjyQBC1b8Eli0D06gf/05WjukkMNV+sOP2ujogy1p4fYr2LFCNxxzbQDp66Or8n/8DgIwPrIfYghbQov0YADBdwg15H6sCmPbRa7AZCkABKAAFUgoAmKZUwT4JO+P1GJDG23F52h48OGNIgKV6nBN+b3/iicl8tabZjFucm+rcnD6OJgHXar9M318L7WU/otZC24inJcYTfLCQc2JBcQtgOrJ5BYDpyByO4UIBKAAFBqwAgOmAnbuEoaWgJ++LAWm8zeXkEuBsnJND+H2cfl80CKCswj3XO+3v2vb3UQanyBpVmZ3Yz9mdvIyzbDnrk493cUn+dvFXlZWN83LR5yj6H1cMApgu4Ya8j1UBTPvoNdgMBaAAFIACKQUATFOqYJ+EnfF6DEjj7bg8bQOcjWtyxJNh+H2cfmf/Ywn/IwYQA4gBxACA6cjmFQCmI3M4hgsFoAAUGLACAKYDdu4ShpaCnrwvBqTxNpeTS4CzcU6Y4Pdx+h2ABH5HDCAGEAOIAY4BANMl3JD3sSqAaR+9BpuhABSAAlAgpQCAaUoV7JOwM16PAWm8HZenbYCzcU6c4Pdx+p0nyVjC/4gBxABiADEAYDqyeQWA6cgcjuFCASgABQasAIDpgJ27hKGloCfviwFpvM3l5BLgbJwTJvh9nH4HIIHfOQbk+2R531yX77jPbN1tzE0XD8An9BGre2/Gx5YW9OGiucbtwMYIYLqEG/I+VgUw7aPXYDMUgAJQAAqkFAAwTamCfRJ2xusxII234/K0DXA2gMl6gwncuP0+5Udn3n+Pefhrj5q73s+xQvUPm4e3Xmrsl9+/ttfcUPiAINTXH7rHfJC2qR6vSx+V4Iq2h9qktlMQYFrIZe352mHzdfsjx8BjWfRSjz015njftBrE9Su3pW9ovdAu549yWy42uB4t+SNX5bKL097GbU3Ad+Y1Rwx/VKrVMbQGTLeYm+xHwo6YK98RaVr0sWv3o+Z8fw5yefkxsURdXz60SVrYD2rduqV0flJc1o+T0GarmiZsRvvQuioGAExHNq8AMB2ZwzFcKAAFoMCAFQAwHbBzlzC0FPTkfTEgjbe5nFyOG5yNdyI1br9PD+kkYIrXH35obwFTbzZ77t1r9jAk7QgwZWBn7WbbOgNWpvfF3IBpoRHpVh+ETT+eKpgxk2P2DwAB8k/qY2bAtI0YtECUYChB0Ah6Xvyo2XX3feZMXyZ3vae6Eqimy51/q7Hg2ELTBDBdtox838U/SqTHM8nvOD4O3QBMl3BD3seqQwemR45+x/ztN75lDh3+pvnrv8UPNEAMIAYQA23EAF1T6dpK19gu/QMw7ZI3umOLhJ3xegxI4+24PG2PG5yNY0KUmvgO3u8WCnFmZcj80hmXxfFamXaXmrseOmz2bKVs0wCbLLzbeo/ZQxmh1+81e64XwGxaYBrZrLJCRbZjyF4s7KB6995j7XPHIvuuL+Lcth+O2QxYn30q9i87wWidAgTSsFKMleCXtFGBWSrXni9Y84dL2Z/OR14fYcMN9z5q7tqayRiNdY/iIQ1MdV8MpR0001ry+efauSdo4e2jtnL26X4kuM23V31dS46H4KIAji6T0kFEB0zvK7I4jdnlYeFac+XdR8yV11Bdl61ZJxOVwCOXp6V6JN/awccjAGqhqIOWrGlYJoApA9kJwDQFhOX4Qx9OV3vMa6C1TmrLdmBZysqNtcW2jqd56AFg2p37+7lYMlRg+vT3n7GT+b/75rfNd777tPnBD+YiJzqBAlAACoxCAbqm0rWVrrEETuma24V/AKZd8EL3bEhBT94XA9J4m8vJ5eDBGSapyUnquPxeACn1SH0aalVOUAuwJqGVBXHvv9TcRcDyXmqT+irapvIeiomJsASLHiQGe6qgiwaWRZuFXQztqD6/T1GWl/tLYI9sKmzV5bR2sj3VRjRW2QatS820xhF0rXG+kg1fZ2htxx60k23Lfm0d9oWqQ/0HIGyhbw1gWtaB29BwmOCt8gvbXUBpd6yAor7foAn1E7Rz5Sa3J2KtpKf2p9RrGcFKCwJ1xqWDhwwvJZgkYCoBqq6n2i7Z4WwkeBqAaQFg48fqfV1qv21gmra5KTC18cNx5u2u8geO1YkTlJldnACYdu8+f6YWDRWY2synb3cr82mmjkTjUAAKQIEFKXDk2y6Tf0Hdq24BTJUc2CgUkLAzXo8Babwdl6ftcYGz2U06+jahG77fY3DFQItiIACpqfxWgM4AsCgT07UbACEBqRrA1MOxsj0S9MX2aVBXxHMEK+W7Uy0oZCgrQU4K2trjMVDT27r/oKMdP/fDSx4j98XbCiSFNuKx5rZzNlB5Nd7iPbO8n0Gj8j/ZJu2Kt5edYN9TK33u6oeMWZfRyvGVH0/er1rjMO7yftmGXA91Jl3jym3Kupz9GSDmCYbgYcgclVBTrk/qN31cA9MTTKp/aV9+XYLcqK+KDNOqbNFcX5V14nNRxXpkF44l/5iX0x37ZxM/AKYjm14MEZjSI6KU9YR/UAAKQAEoMB8F6JrbhcfzAUzn4+++9ZKCnrwvBqTxNpeTy+GDs9lMMvo+eRu63y048yAshkR5qJX3K9WhbEFaMhwLwDTUE33l4EkJyml7qkCYhoVFbMf9UPsFHA3lnf0e/JVs4PNE2G+Bjt4O7VH5YHeVzV4b6pNgqveLbsOXmwCScja4VwKEbFNpU2UdaU9CF9mOszGMu2xz/li5nZzm+f2yDbletoPbiJfan3G98289Ym6in4tDvXkCU7ZnenDaBJhW1KmIwUpgmogfHhOWIaagRXe0ADDt2yxgifYOEZhSdik9Kop/UAAKQAEoMB8F6JpL195F/wMwXbQHutm/hJ3xegxI4+24PG0PHZxhYpaemA3d7wTIFBwUkNOBvgA968QItedBH0GRZDYmaS2AVAwyGcKUoIqGbATCfF9cp1iqcfGxqB9ZhtY5s9K26x8Jpz7TGsj6rk4oJ4/Rep1H45W+ka3VviAbhe5CAx6ThLb6cWhXl2NA6qDqkD1Kk3J/KTApdVDjExBZ709lqvK5KWKGfSrGymNwdmt/hmPc1uRlajxkawCBGiQuBZg68Jn/oFKcYSo10/3SuMiu9h7JD+Mta2aPZT4EVVUvp60cF9bLekOTxWkCYNrNe/2ZWTVEYEofI8E7S2cWMmgYCkABKFBSgK65dO1d9D8A00V7oJv9p6An74sBabzN5eRy6OAME7H0RGzwfrcgrHhs2n4QKUA/igkHAvn4zdWPhhLg9FCN9CTARWDtf7iP9fh3o/Kxoi9pQ/GYugV9E4ApgzH9qHfhR9WmePSfH4OPAKMGhc5uDxvtuMKj5R6+yT5i7cSxh+ljV0IXpal4d6cDq6Ef338BBVU9me1p4WMZYOoxSdhc+MVqsdfcJd6dmq8jH+Pfa24QvlF2Sf9ZuwuYy7r71x1E+4UO1J7XWIHRPDDVsSD+CJB8VUD6XC9dA60PQyauPW4/tiTApvgIlAaX8jF8uZ7uezpg6oBo+CCUsMfqlQKmcR1jdt19nzmTyttH8fkDUsXSf6yJ6vF7Wcu2p4Cp26fbk5m4zlf6OlPSXvm93C/KQ5N5xwCAaTfv9Wdm1RCBKX0BGv+gABSAAlBgvgp04doLYDpfn/elNwk74/UYkMbbcXnaHjw4wwQ1CQPh9wFNzAmAeWDX9riqYF7bfaG9ecESC4MVnF6E9pOB67z0aKMfgvJpIL4IbdFnGz4dQxsApn25+2/JTgDTloREM1AACkCBkSsAYDryAOjw8FPQk/etXbvO0E9um/fLJcDZOCeW8PuA/A5gmvyjwBhgx1LGKLNu79r29yZkduosyjb382P13CZ/TIq3+7Yk3awPRGbyUnyCugO6Lvfkj7UAph2+4Z+FaQCms1AVbUIBKAAFxqcAgOn4fN6XEUvY2cY6wNk4J2jw+zj9DiADvyMGEAOIAcQAxwCAaV/u/luyE8C0JSHRDBSAAlBg5AoAmI48ADo8/DYgqWwD4GycEyf4fZx+50kylvA/YgAxgBhADACYdviGfxamAZjOQlW0CQWgABQYnwIApuPzeV9GLGFnG+sAZ+OcMMHv4/Q7AAn8jhhADCAGEAMcAwCmfbn7b8lOANOWhEQzUAAKQIGRKwBgOvIA6PDw24Cksg2As3FOnOD3cfqdJ8lYwv+IAcQAYgAxAGDa4Rv+WZgGYDoLVdEmFIACUGB8CgCYjs/nfRmxhJ1trAOcjXPCBL+P0+8AJPA7YgAxgBhADHAMAJj25e6/JTsBTFsSEs1AASgABUauAIDpyAOgw8NvA5LKNgDOxjlxgt/H6XeeJGMJ/yMGEAOIAcQAgGmHb/hnYRqA6SxURZtQAApAgfEpAGA6Pp/3ZcQSdraxDnA2zglTld9POuHFZuVLX2bOXLHcrMIPNEAMIAYQA4gBxEAvY4B+j9Pvc/q9ngLkAKZ9uftvyU4A05aERDNQAApAgZErAGA68gDo8PDbgKSyjSpwlrq5xr5hANac30998Ut6OSkE2AXcRgwgBhADiAHEQD4G6Pd7fA8HYNrhG/5ZmAZgOgtV0SYUgAJQYHwKAJiOz+d9GbGEnW2s58BZfFON7WGAUvZjyu+UgYLJZn6yCW2gDWIAMYAYQAz0OQbiTFMA077c/bdkJ4BpS0KiGSgABaDAyBUAMB15AHR4+G1AUtlGCpwxVMNyWJBU+jPld3psr+5E8O2veLm58rRTzIbXvdpsWnmaueH0VxnaV7c+ygE6IAYQA4gBxMAQY+CXXvHz5jfO/HVzwbmX2p/fePNZhvZ1Yaz0e17eCwCYdviGfxamAZjOQlW0CQWgABQYnwIApuPzeV9GLGFnG+spcCZvprE+TGia8nvdd5Z++LRXmqNvfYMxb3uT+qF9l736lZ2YFHZhYgobAINGEwOrHzO7dj9mLsd7Lkd4/bvaXLfdmM9cd3V7Y3/XXvOZ3cZsXN2va8gvvXyFOf+ci80f3PSYueXW/9dcs/5+c9WVu8wfbPgru++8d1zUnkYNzzX6PS/v6wBM+3L335KdAKZVQj5o1h9/ojmOftY8qAoevv3dbv/x7zZ3PC4PoY4xTTSQGmIdCkCBPioAYNpHr43D5jYgqWwjBc7kzTTWxwNM68Cdy087RUHSGJrS9qU1oSlNLuv0uWrFOnPokYPG+J995sAFPJE+zxzYH44d3XyeaDOqt3OdPbZjZyjv29y/yWyonIDeaTZWAKH3XnckCwwu3zSbiX++T20rldu129ifmQIIC81cPzE8aV8DPcZacVRAGNZC2Shs37XpzhBDdets32vem4yfBnYm2knrV7dtXW4m8QBgGmIm4b9a8TmPehTP2Vjla+q0yx4CU3m+l8CsG4+7Thwx172rvh5rLrnTfOLWJ8zH/vtfmEsu+qSPibeeepr5z7/5u+amDV8zl118u9+/qLiQ93UApuOYO/hRAph6KUor+9YUsNRCUwFGH99izmWQGsFU1DGmiQYl8bEDCkCB3ikAYNo7l43GYAk721gHMB0mEJUTotR6yu+TJm9nveLl5h/e4jJL95xxunnozSs9PKX1L53xOrv95FveYH71FZNh6FkrV5pNN99mfuvMVRMmkAQ+t5sdBVDYsHmfMQXgtPCzAKEMVg+tpwmuA6luPT3hte34uukyQRMNncJ+Vy8PL5ebNOya1N+k43l7crbMxo6ynan+2+87P/7YN27bQZAAjEV9C0VDdiTZ6mBqRZ0VdIzruHIKwBaxmtIibV9ZR1kurZ8YQwVsy9mQbrPaDmkT1nuo1UyAaQ91kOdL9vxfblZFx6pi/j/+ynstEH3HL/57c8n7/1AB03e+7bfNub/8TnP2G3/Z3PSJQ+adb3vXhN95s9VU3hMAmI5m+uAGCmCad3gT8Ic6AKb5iMIRKDBsBQBMh+3fPo+uDUgq20iBM3kzjfVhAtWU36smg3TsutNf5QHpl37xdAtFv3Lm68yBN7/Orn+5AKaUZXrta0+dOCEkYHrfnv3mS1+433zo//yvFeU1MF11wSZz1ALUaP//197Z+F5SlXf8r2lICrVVwbf6QgkFrAi+UHwByosiKL7E2jatq0RTqbawaUEBX+IKasA0wdYmhETaahc1BBeCRUiwWVtgWZZdQFzA3WVZT/PM3GfmmZkz997fvWfmzjnnc5Obmd/cmTPnfJ/vnXOez+/MXEmCr73DuQKCDgNMb6xma85mHhUJdTmrUmcu/mDn7LPWLKby8xlkk+Nuvae4lbWxvUrkBYYpuOsmz30Q7KyT+iGaD5BJOVW92zPPGvVXOFgC4OoYz6xbX92Kc99Y3mYrx1q42F+HUgM9lx4jZem2amlnhRYaNM8h/i2O0/2kbbP2Nutbwk/9rO+Y9nelWYbGyxOLhqZm5rH4wehfldfav2yvxqIsv+PJykNSD08dZp8XMWnd8rxsLKQeFio361W2X8q6xcS8MXO3UUfVi2XbV8H/bvmsWX7z+1b/c+FE1/BFMVt95kHjT/1+lmX+q7vljnvcjdV3dbmZmu3vdn8d9Dsw+77q99rz3S/rrvt7PGauBZ3vy6x9th5NzeryZFbpxy7+VNGPWWB6ydsvcd+4+YnifcnZF7k/v/Rv3fVf+tmc/q4us+9c62634zqAacwZwQp1B5jOE22VW8s5hlvy53mKz1AgXQUApunGNvaWWdgZYt0HzuxgmnWAqSZn3zvt5AqYChTd9ZYSlMps0nvfUs4u1Vv0/+W0Ny1MCBWYCjSV981f/rq74LTTPMc1wWg1M1TAaftWertN4GlxG389O1XbIsuqnKXgzQwmzBLzIgmvkvQSKDSBQZ30+sBUOXOpBmbt8srEXaFUXVZZf4EEPQBCEnxTL9veTj0aoGAGRfTYAgTPgQyqmed80pa2FiUImZVny55TB185dXv6QeA87QqdBfhoO2cgtQQiZYwLyNeClwUQNMfU9ZDYlNCmA1U82jSPM21ogax22zuxK/Sf78niXHPq0ClzTixk3yqmrf3KNpm2zLxRaq0eks97PKteYum59rW/+2v+3fJZ7ce2h0287Pe1x+ttv7a/g4UXer8//jY1/dn1V7Pupbe69VDYqz6sz1X6U/75Ynxp9Ck+n0Hfzne75dULz3xPAUTf/prXFjFUYHr+6e9wO25+vHp//aY97qKzznc3fXu/u+CMc4aPd6ueqpkd1wFMY88Ktlh/gOkWBWN3FEABFEABrwIAU68sbJyAAiEgqS0DYJomELUJkW/dF3dNpvqW/3ramxrA9KczYPqeV7/K3XdmE5h+949PXpgMtoGpQNP/+o8fu09dYZ9DKgmuAFPz3FGFpBaOamLo26bgtHX7/daBqUm6WyDKl6irjs3Ef5awm8S82K/9t7bHt2ydW89TgjuT/LeObdejU2dTh85npqwCJMyeieoDib5jm+eu4UdnX1OHs6SdLbhZt7Uuo95WwxDftqLeMxAq9bGzSG/5XAsQmdmndj9dt+UXZXVgUA/UlvZZ7XSGrm33SV0A39RP29nSoOOLnjrMYtkuc14sZN9VgGl1TAHa+r1p9WRd4zvAsuWzWuuWl+w/EgrP6rWvDVbLOna8057Z3PHm4rY1/VmetwE3zTVJ/wHl+37Wbew5Z9G+mTdn+lwlM+9n3+lmPfxlXHHBX7rrrr2n6vM+8zffLm7Jl+d0f/DdH3X69+Xv/qiTbddf/9/uQ+d9otp/YR1tWwOs2zEBwHQCA/sxqwAwHVNtzoUCKIAC6SoAME03trG3zMLOEOs+cGYH06ynCVR9cV+UtP3jya+vgKnC0gfOPNXJ+9xXn+Rkm84wvebk5W/J1xmmP/z3nW7bhz7sSSKbM0zrenq2V7fktxNb2df+WNQqM0wVGpzoCphnIFkXGNTn9ybcbXAhQMHMaqzbWJdTbpsDwRZAiXY9OnU2dep8pkm6hQuyzXNO37HNc9dwprOvqUOlgZyjA07rMqr9tI7epexvgV0NfqQODRBTxaL/GD2ntMsbN48uOhO1hoimDa12t3Vp6qeeMMf7YuGtgx7bfbZu+5wFhLLguAK9Vkctr1WXDvSd41tvvLRcluq1IMuWz+oyu/GrPSefmcdgmOueHt/xTnBgqj7oAafSrlt/WTwGwP/ja3q8b1lfC3RmrMJS/c4ummF6xfmfcF/64n0FDJVnmcoPPsn7snd9uNimf6tecks+wDT20Xik9QeYRho4qo0CKIACE1MAYDqxgFCdSoEQkNSW4QNnQNI0IamNqy/umsz1Ld/76pPc4XeeUUDRH7/5FPfzt9Y/+iTQVJ5rKsD0mbef7mTWaV85ut3OML3phq+58049tecYDxidQRb50afnv6MzUmW/h5z3h55k5unAwLROsptJuYCHGpLNPmuBi+4+JaRYdJxqKcsacDTPr/t0Pq/AYLm/fF61QT7T2Y8WaEm9q+0zeNECKF140q6bgTPz6tA+bwMoSxk+cCdt8WlnoYju05xVVoKWcr9S9znHzICgF5b2xqJZnuhUaWx1Ldabnun6Q9vQD/E78bZ6+urYGwupd5/WpXdKzU1dAKY91zLVa0PL1nVHrw0dMFh4cBZz8UXrO14fV7aj+50333HxXaeM8js6r9x5/m1+Vl8Liu9Uq66N71nrO1C0w3732t8LqXd1veuPmfzQ0ze+9aS78Mz3uh0373Vy6315K/5ed95pb2v8CNQ5r/+j8pb8Pzl3Yx6xYwFmmFbD6zxWAKZ5xJlWogAKoMDQCgBMh1aY8ldVwMLOEOs+cGYH06ynCU99cW8nwb6/rz+lnmWqs0nby8++8XVLJYICTH9y10/dZz++6NbEfmDavl2/hqUlPC2fYVrezl9/Via+IW/JV0hXzIRsg7wZACs/m0GlxjYDKquE3gf92uDRJPBSXgMo1p8JXCjPrcsafjU+ax1fggY9poZh9TEH3Y031jCluX95nM7M6gIOX3nN2Zr1eZplqS8b52tAEr921W27s9lyWjcpr7esVpyqY1rbO7Ftaal1rh4zUPxo0j3uFgNj6vb+0skPOTVgeeN8qp20U9dbUCqwHxr6FPqph0qtG/6atV2OqduwDHStPVvpVX0f+CyIJg0ftb5Xrc8qr8/+AdGI8ez71vWFPpd5jjeLmM580/jeNmPcuGa06lb/o6L8J0TTZ83r2hMiuQAAIABJREFUaVlH8z1pf9/td8jWreHzZt18sbjhhp+7j73vSnfJ2y4qoKmAU1mXffWZprL+ics+X9yS7ytjrG12XAcwXXU0HulxANNIA0e1UQAFUGBiCgBMJxYQqlMpEAKS2jJ84MwOplkHmLaTuBtPeYN76Z1vrm6/V2D63DvOcH/3xj9cCpZKmRef+dbi3S4/i7/nAK3e9s85pgEXgExLe7BX6zU0nEIswtahBb9ms/BqSLUYJg2hM2WOo3sTfJ/oyn88NAFk+FjEB9gv/dPL3dd3POLOO/3t7tJ3XuYuPecD1XVIgen5Z7yzmH168dkXVp+F126xL+y4DmBaDa/zWAGY5hFnWokCKIACQysAMB1aYcpfVQELO0OsA0zTBKI2IfKt++K+lcTtote+yn31lDe4W099U/H+8ilvcBcscRv+Vs4xpX0bs6vs8/xWXLfPhwxdNuXprFiWIbwg30MBsI2yZjMDG9uW/C5M6XudW11Wild7dudsBv0qZc07pjlLv34kxbxjxvrslm89sBTg/IsPfsF97eu/dJeec3ljfwGmX7zu3uKzbZ/4SuOzTXjQjgkApquOxiM9DmAaaeCoNgqgAApMTAGA6cQCQnUqBUJAUluGD5zZwTTraQJVX9w3kbhxzsWzgdAIjfAAHsADcXjgsndd4b76td3uhusfcNf8/Q/c9n/4obvpW/vc13b8r/v4+z/jzn7V4ud7Dx1rO64DmFbD6zxWAKZ5xJlWogAKoMDQCgBMh1aY8ldVwMLOEOs+cGYH06wDTIdO3ig/DhBAnIgTHsADeGCxB97xute7j13yaffXH/mn4rmmF771PHf2q1+z8ZmlGjs7rgOYrjoaj/Q4gGmkgaPaKIACKDAxBQCmEwsI1akUCAFJbRkA0zSBqE2IfOu+uGsyxXJxQoxGaIQH8AAewAMxesCOCQCm1fA6jxWAaR5xppUogAIoMLQCANOhFab8VRWwsDPEug+c2cE062kCVV/cY0z8qDPAAg/gATyAB/DA8h6w4zqA6aqj8UiPA5hGGjiqjQIogAITUwBgOrGAUJ1KgRCQ1JbhA2d2MM06wJREdPlEFK3QCg/gATyAB6bsATuuA5hWw+s8VlIEpo89+az77W/ziB+tRAEUQIEpKCDXXLn2bvr1m9/8xsn70KFD7siRI8X7xRdfdEePHq3eL730kpP3sWPHGu++/nDTbeL86ytgYWeIdYBpmkDUJkS+dV/cp5zgff/Oh9xj14ZIwj/ifnbvQ879on4//52PFM+W2/GdXY3t9nxy/vqYXe5nH1+iLtfeYY6R4+9w3z+pPq48X7Osdh0ax0h5d273PAdvu3vMtEfqWda9vb15/inHm7rVPkELtMADeCCkB+yYAGC6/rg8qhL6EsR2IqkJpk06JQnVhFSSU01UNy3Avqefc4ePHN10NTg/CqAACmSjgFxz5dq76Zf2QwDTTUdiWucPAUltGT5wZgfTrKcJVH1xD5mQhS4rLDBtQkqtq8BKhadnFbCzBoz2/AXUvPdWt8PATy2jsewFnJL8C7i9w33/2jvqc1bllVDXAtui3N7yBIzWda3r0NrealO9HzACLfAAHsADuXjAjusAptMa4w9emxSB6cHnD7unnn1hcO04AQqgAAqgQKmAXHPl2rvpF8B00xGY5vkt7Ayx7gNndjDNOsA0XBK53T12763uZ9VszSa4tLM4m+DSzu7sztQsjvMCzHKGZVVWASQFRjbPq+1rANOT5Nh6PwtMz/r4re55L6BsAYdewHmiK8qQ2aJSVqfuAwHTAtLq7NNWXStYy3b1A0u8gAfwQIoesOM6gOk0x/qD1SpFYCpiyUyngy9sPnkfLHAUjAIogAITUUCutVOYXSpyAEwnYoqJVSMEJLVlAEzTBKI2IfKt++I+fGLYBJjFTM3ZLeZNWNkFhg1g2YJ7WwemTQCrQLVRB4GdBmTa89t6z9WsmNFpzmXKkzLKGaQ+gNttf3GeXgBb6lo/MkChqGxvzjyVdmh759a9pTH7Ao7wAB7AA2l4wI4JAKYTG+QPXZ1UgenRl44VCbzMepJbRXmm6dBOonwUQIGcFJBrqlxb5RorsFSuuVN4AUynEIXp1cHCzhDrPnBmB9OspwlUfXEfPhluAbwKAJaA0AK/+jmcZYJqgeV69fQByvIcBQitngXaBY1V/Qz4nFuXqn3tJLtZhwaorWbBKvQ0x/aW19K1gp3d7QBTo2elE9vm+hidPM8NxjN4Jl4P2HEdwHR64/xBa5QqMFXR5BZRSeblx0jkF5x5owEewAN4YH0PyDW1mMk/gdvw9XovS4CpVYN1VSAEJLVl+MCZHUyzDjANlxi3AF4FAJsA0Xe+sYBpOftyBnDNDyzV55c2LDlLs2pfK7Eubuk3M08F0jYgbHn+4M8w5ZZ8wBfwEw/ggew9YMd1AFMdXWeyTB2YZhJGmokCKIACKAAwxQM9CljYGWIdYJomELUJkW/dF3cfqAy7rQ+YnugW3eY+b2akfNYEjgoofXCzH842ZnoK7Ox5hmk5E7U5A9WrUw8wbZyngBctXfrAZk95ZxXPW/XVp1luUe8GmFWdWHrjB1jKHizhC64NKXrAjgkApj2D7VQ3A0xTjSztQgEUQIH8FGCGaX4xX6bFISCpLcMHzuxgmvU0gaov7m8dHBA1AV7xS/TVLM7ZrM6eW+LLH1rSWZlNOLh1YKrllEt9pmcbZFpIK+v1jM+eGaBt/byA03+sll/CWFs/09YC4trP9EepSjBcPTLgF1rX1nZgKQCw7VH+xhN4ICsPSD9vx3UA02VG3gntAzBNKJg0BQVQAAUyVwBgmrkBeppvYWeIdR84s4Np1vMBpqe+/BVZJY4pzhyiTcyIwwN4AA/ggT4PSD9vx3UA057BdqqbAaapRpZ2oQAKoEB+CgBM84v5Mi0OAUltGQDTNIGoTYh86764v/L4lwFMtzLbyvcs0tkMWZ212pe0sh2ggQfwAB7AA2N7QPp5OyYAmC4z8k5oH4BpQsGkKSiAAiiQuQIA08wN0NN8CztDrPvAmR1Ms54mUO2L++tf9gdA061AU/bFL3gAD+ABPBCBB6R/b4/pAKY9g+1UNwNMU40s7UIBFECB/BQAmOYX82VaHAKS2jL6wFl7UM3faYHTeXGXGShy297wzzRldtHYs4s4H57DA3gAD+TjAenHpT9vzyzVMR3AdJmRd0L7AEwTCiZNQQEUQIHMFQCYZm6AnuZb2BlifR440wE1y7RgqcSTuKcXU76nxBQP4AE8gAe24gGAac9gO9XNANNUI0u7UAAFUCA/BQCm+cV8mRaHgKS2DMBZnskVcc8z7ltJpNkXj+ABPIAH0vYAwHSZkXdC+wBMEwomTUEBFECBzBUAmGZugJ7mW9gZYh1wlnYy1JfsEvc8497nB7bjBzyAB/BAfh4AmPYMtlPdDDBNNbK0CwVQAAXyUwBgml/Ml2lxCEhqywCc5ZcgSVJM3POMO0CEuOMBPIAH8IB6AGC6zMg7oX0ApgkFk6agAAqgQOYKAEwzN0BP8y3sDLEOOMszcSLuecZdk2SWxB8P4AE8gAcApj2D7VQ3A0xTjSztQgEUQIH8FACY5hfzZVocApLaMgBneSZMxD3PuANIiDsewAN4AA+oBwCmy4y8E9oHYJpQMGkKCqAACmSuAMA0cwP0NN/CzhDrgLM8EyfinmfcNUlmSfzxAB7AA3gAYNoz2E51M8A01cjSLhRAARTITwGAaX4xX6bFISCpLQNwlmfCRNzzjDuAhLjjATyAB/CAegBguszIO6F9AKYJBZOmoAAKoEDmCgBMMzdAT/Mt7AyxDjjLM3Ei7nnGXZNklsQfD+ABPIAHAKY9g+1UNwNMU40s7UIBFECB/BQAmOYX82VaHAKS2jIAZ3kmTGPFfc8jTzqS8jw9RtyJOx7AA3hg2h4AmC4z8k5oH4BpQsGkKWsrsGPnTnfu9Te4l3/6SnfCJ7dl9ZY2S9tFA14oEKsCANNYIzdsvS3sDLE+FjgjaZpW0rRK3F/xyje5Sy692h1//ElLQ1CA6bTizveQeOABPIAH8IB6AGA67Jh9cqUDTCcXEiq0AQUeffrpAhbmBkn72ivgVDThhQKxKQAwjS1i49Q3BCS1ZawCznSgzTLepGuVuB933O+5P7voc+7yD13nfvf4E5eCpgDTeD3C95vY4QE8gAfS9gDAdJyx+2TOAjCdTCioyAYVEEDYBw9z3S6a8EKB2BQAmMYWsXHqa2FniPVVwBkJVPwJ1KpxP+64l7mLLvn80tAUYBq/V/i+E0M8gAfwQJoeAJiOM3afzFkAppMJBRXZkAJyC3quUHRRu7k9f0Om5LQrKwAwXVm6pA8MAUltGauCM5KnuJOndeJ+3HG/797/ge1LQVOAadw+4XtO/PAAHsAD6XoAYJp0ytBtHMC0qwlb8lKA2aX9z2pllmle34UUWgswTSGK4dtgYWeI9XXAGUlUvEnUOnEXYPq+S68GmP5OvPHnu0vs8AAewAN4AGAafpw+6RIBppMOD5UbQYEcf+Bp0cxS/Vy04YUCMSkAMI0pWuPVNQQktWWsA85ItuJNtlaNu9ySf/H7vrAULBV/MMM0Xo/w/SZ2eAAP4IG0PQAwHW/8PokzAUwnEQYqsUEFFA6y9M803WBoODUKbFkBgOmWJcviAAs7Q6yvCs5IouJOolaJu/zo04UXX7U0LBWPAEzj9gnfc+KHB/AAHkjXAwDTLFKHupEA01oL1vJUAFDqB6WqS56uoNWxKgAwjTVyw9Y7BCS1ZawCzkie4k+eVon7K195srvk0qvd8cef5Jb1AMA0fq8sG2v2I9Z4AA/ggbg8ADAddsw+udIBppMLCRUaWQEFgyz94HTkcHA6FFhLAYDpWvIle7CFnSHWVwFnJERxJUS+eI0Vd4Bp/F7x+YdtxBUP4AE8EL8HAKbJpgv+hgFM/bqwNR8FAKV+UKq65OMEWpqCAgDTFKIYvg0hIKktYyxwRmI1rcRqrLgDTKcVd76HxAMP4AE8gAfUAwDT8OP0SZcIMJ10eKjcCAooGGTpB6cjhIBToEAwBQCmwaRMqiALO0OsjwXOdHDOchqJ2lhxB5hOI95874gDHsADeAAPtD0AME0qRVjcGIDpYo3YI20FAKV+UKq6pB19WpeaAgDT1CIapj0hIKktYyxw1h6k8/dmE7ex4g4w3Wyc+Z6hPx7AA3gAD/R5AGAaZmweTSkA02hCRUUHUkDBIEs/OB1IdopFgUEUAJgOImv0hVrYGWJ9LHDWN1hn+2YSubHiDjDdTHz5XqE7HsADeAAPLPIAwDT6tGBrDQCYbk0v9k5PAUCpH5SqLulFnBalrADANOXort62EJDUljEWOFs0aOfzcRM74j6u3vgbvfEAHsADeGBqHgCYrj4ej/JIgGmUYaPSARVQMBjFcscut/uoc+7QbnfdJ+eDzlDtCSg1RaHA4AoATAeXOMoTWNgZYh1wlmcCR9zzjPvUknXqgw/xAB7AA5vzAMA0ylRg9UoDTFfXjiPTUGB9sHiHu/uQaLHf3TY0xFRgevBhd/XQ55qVn0aUaUUuCgBMc4n01toZApLaMgBnm0tUNpkkEvc8475Jz3FuPIcH8AAemJYHAKZbG4NHvzfANPoQ0oA1FYgKmI4ESa0ma8rL4SgwqgIA01HljuZkFnaGWAecTSt5GSuZJO55xn0sf3Ee/IUH8AAemL4HAKbRDP/DVBRgGkZHSolXAQsHV1sfcYYpwDReo1HzURQAmI4ic3QnCQFJbRmAs+knNEMkncQ9z7gP4SXKxEt4AA/ggTg9ADCNLg1Yr8IA0/X04+j4FVgNktrnhy4Gpqd/5y63c/8hd/jYTK9jh9yBPfe7q7abcrb/s7tlT73P4WcfcTc9uL844ODuO1xZz11ut2w5tHt2S3597tu/d7/b/UJd/kM/uXl2jDnHCsB1ViILFIhCAYBpFGEavZIWdoZYB5zFmeSsm5wS9zzjvq5vOB7f4AE8gAfS8QDAdPRh/GZPCDDdrP6cffMKDA5Mvzn7oSZ31B3Y87C7/b6H3UMH5ZebnDu8f5f7YAExr3E37S23uUP73d0PPOju3l88GLXYbzEwPeoOHznkdj98v9u55zl3uDjqGXf7jvVgqWjDCwViUgBgGlO0xqtrCEhqywCcpZP4bCWJJe55xn0rHmFfPIIH8AAeSNsDANPxxu+TOBPAdBJhoBIbVGBoYHrd/5UgdM8Ddsbnd93Og9LoQ+7u27e5E3Y86PYUf+52V1ezTq9xX3m0PHYZYHr/f14zm1F6jbutnJjqHvoRwHSD1uLUG1AAYLoB0SM4pYWdIdYBZ2knQ33JLnHPM+59fmA7fsADeAAP5OcBgGkEA/+QVQSYhlSTsmJUYFhg+m/u7uI2+Wfc7RUILSHm1bvLGaS7d21zJ/xobyFdDUZnoHPX8rfk32Zut2+Ubbav0tYYY0qd81UAYJpv7Oe1PAQktWUAzvJLkCQpJu55xh0gQtzxAB7AA3hAPQAwnTfiTvAzgGmCQaVJW1JgFYjYPKZ+jqiFluU+SwLTDhgtgenp9z1TtKUGqf3PMLXnBphuyQLsnJACANOEghmwKRZ2hlgHnOWZOBH3POOuSTJL4o8H8AAewAMA04AD9BiKApjGECXqOKQCTfi5yi3s84DpNndTOXnU7bnP3pJ/s7vzWWnVc27nbdvcCbfvdsUd+gcfdldWM0Jvdrc/VbYcYDqkAyg7JQUApilFM1xbQkBSWwbgLM+EibjnGXcACXHHA3gAD+AB9QDANNz4PIqSAKZRhIlKDqhAOGB61B3Yt9/tNu8779zmTrjtQXfgmDTA86NPe+5ypxeAVJ9p6tzhg3vdztkPQx08suwzTPc7ZpgOaBKKjkYBgGk0oRq1ohZ2hlgHnOWZOBH3POOuSTJL4o8H8AAewAMA01GH8Js/GcB08zGgBptVIBww7bajeD7pJ7e50793v3vo2fpX791R+UX7u9wHq9mk29wJ37zL3f1MCUilpIP77ndX3cczTLuqsgUF+hUAmPZrk/MnISCpLQNwlmfCRNzzjDuAhLjjATyAB/CAegBgmllGATDNLOA0t6PA+sB0ldv4lzvmqv8xPwxl4eqI6x3B2IACE1YAYDrh4GywahZ2hlgHnOWZOBH3POOuSTJL4o8H8AAewAMA0w0O6DdxaoDpJlTnnFNSYLLAdPsP3P1HRKnZc05HhKRWkynFirqgwCIFAKaLFMrz8xCQ1JYBOMszYSLuecYdQELc8QAewAN4QD0AMM0slwCYZhZwmttRwMLBTa7ftveQO7D/Ebfzvvvdnbv3uwOzu/MP79vl3rchWCp68EKBmBQAmMYUrfHqamFniHXAWZ6JE3HPM+6aJLMk/ngAD+ABPAAwHW/8PokzAUwnEQYqsUEFNglJ7bmve/g5d7B+hKnT55z+1fblbt+3ZYVc32BoODUKbFkBgOmWJcvigBCQ1JYBOMszYSLuecYdQELc8QAewAN4QD0AMM0idagbCTCttWAtTwVCwsUUy8rTFbQ6VgUAprFGbth6W9gZYh1wlmfiRNzzjLsmySyJPx7AA3gADwBMhx2zT650gOnkQkKFRlYgRcgZsk0jh4PTocBaCgBM15Iv2YNDQFJbBuAsz4SJuOcZdwAJcccDeAAP4AH1AMA02XTB3zCAqV8XtuajQEi4mGJZ+TiBlqagAMA0hSiGb4OFnSHWAWd5Jk7EPc+4a5LMkvjjATyAB/AAwDT8OH3SJQJMJx0eKjeCAilCzpBtGiEEnAIFgikAMA0mZVIFhYCktgzAWZ4JE3HPM+4AEuKOB/AAHsAD6gGAaVIpwuLGAEwXa8QeaSvw8k9f6UICxpTKEm14oUBMCgBMY4rWeHW1sDPEOuAsz8SJuOcZd02SWRJ/PIAH8AAeAJiON36fxJkAppMIA5XYoALnXn8DwPST27waiDa8UCAmBQCmMUVrvLqGgKS2DMBZngkTcc8z7gAS4o4H8AAewAPqAYDpeOP3SZwJYDqJMFCJDSqwY+dOLyxMaaboqm0RbXihQEwKAExjitZ4dbWwM8Q64CzPxIm45xl3TZJZEn88gAfwAB4AmI43fp/EmQCmkwgDldiwAswy7c4wZXbphk3J6VdSAGC6kmzJHxQCktoyAGd5JkzEPc+4A0iIOx7AA3gAD6gHAKbJpw3NBgJMm3rwV54KPPr00w5oWkNT0UI04YUCsSkAMI0tYuPU18LOEOuAszwTJ+KeZ9w1SWZJ/PEAHsADeABgOs7YfTJnAZhOJhRUZAIKyC3oAgtz/CEoabO0ndvwJ2BEqrCyAgDTlaVL+sAQkNSWATjLM2Ei7nnGHUBC3PEAHsADeEA9ADBNOmXoNg5g2tWELSiAAiiAAnEqADCNM25D19rCzhDrgLM8EyfinmfcNUlmSfzxAB7AA3gAYDr0qH1i5QNMJxYQqoMCKIACKLCyAgDTlaVL+sAQkNSWATjLM2Ei7nnGHUBC3PEAHsADeEA9ADBNOmXoNg5g2tWELSiAAiiAAnEqADCNM25D19rCzhDrgLM8EyfinmfcNUlmSfzxAB7AA3gAYDr0qH1i5QNMJxYQqoMCKIACKLCyAgDTlaVL+sAQkNSWATjLM2Ei7nnGHUBC3PEAHsADeEA9ADBNOmXoNg5g2tWELSiAAiiAAnEqADCNM25D19rCzhDrgLM8EyfinmfcNUlmSfzxAB7AA3gAYDr0qH1i5QNMJxYQqoMCKIACKLCyAgDTlaVL+sAQkNSWATjLM2Ei7nnGHUBC3PEAHsADeEA9ADBNOmXoNg5g2tWELSiAAiiAAnEqADCNM25D19rCzhDrgLM8EyfinmfcNUlmSfzxAB7AA3gAYDr0qH1i5QNMJxYQqoMCKIACKLCyAgDTlaVL+sAQkNSWATjLM2Ei7nnGHUBC3PEAHsADeEA9ADBNOmXoNg5g2tWELSiAAiiAAnEqADCNM25D19rCzhDrgLM8EyfinmfcNUlmSfzxAB7AA3gAYDr0qH1i5QNMJxYQqoMCKIACKLCyAgDTlaVL+sAQkNSWATjLM2Ei7nnGHUBC3PEAHsADeEA9ADBNOmXoNg5g2tWELSiAAiiAAnEqADCNM25D19rCzhDrgLM8EyfinmfcNUlmSfzxAB7AA3gAYDr0qH1i5QNMJxYQqoMCKIACKLCyAgDTlaVL+sAQkNSWATjLM2Ei7nnGHUBC3PEAHsADeEA9ADBNOmXoNg5g2tWELSiAAiiAAnEqADCNM25D19rCzhDrgLM8EyfinmfcNUlmSfzxAB7AA3gAYDr0qH1i5QNMJxYQqoMCKIACKLCyAgDTlaVL+sAQkNSWATjLM2Ei7nnGHUBC3PEAHsADeEA9ADBNOmXoNg5g2tWELSiAAiiAAnEqADCNM25D19rCzhDrgLM8EyfinmfcNUlmSfzxAB7AA3gAYDr0qH1i5QNMJxYQqoMCKIACKLCyAgDTlaVL+sAQkNSWATjLM2Ei7nnGHUBC3PEAHsADeEA9ADBNOmXoNg5g2tWELSiAAiiAAnEqADCNM25D19rCzhDrgLM8EyfinmfcNUlmSfzxAB7AA3gAYDr0qH1i5YcEpocOHXKSrPJCARRAARRAgU0oIH2Q9EXyPnLkSPF+8cUX3dGjR6v3Sy+95OR97NixxruvP9xEOzhnWAVCQFJbBuAsz4SJuOcZdwAJcccDeAAP4AH1AMA07Bh98qX1JYjtRFITTJt0ShKqCakmqADTyYecCqIACqBAsgoATJMN7VoNs7AzxDrgLM/EibjnGXdNklkSfzyAB/AAHgCYrjUkj+/grQJTAacKTQGm8cWbGqMACqBAygosAqb6zz9mmKbsgm7bQkBSWwbgLM+EibjnGXcACXHHA3gAD+AB9QDAtDvOTnoLwDTp8NI4FEABFMhKAYBpVuFeurEWdoZYB5zlmTgR9zzjrkkyS+KPB/AAHsADANOlh99p7AgwTSOOtAIFUAAFUMAVz9HWR8ToI2PsM0yZYZqnS0JAUlsG4CzPhIm45xl3AAlxxwN4AA/gAfUAwDSzXGJdYKq35WuCyjNMMzMQzUUBFECBCSnQnmEqfRTAdEIB2lBVLOwMsQ44yzNxIu55xl2TZJbEHw/gATyABwCmGxrMb+q0fcBUttsffrKzcuwzTH3AVI7lhQIogAIogAJjKiB9z6rAdF5fOGYbONcwCoSApLYMwFmeCRNxzzPuABLijgfwAB7AA+oBgOkwY/XJljovSVwVmApQ5YUCKIACKIACYyogfQ/AdEzF4zmXhZ0h1gFneSZOxD3PuGuSzJL44wE8gAfwAMA0nvF/kJoOAUzluXG8UAAFUAAFUGBMBaTvAZiOqXg85woBSW0ZgLM8EybinmfcASTEHQ/gATyAB9QDANN4xv9BajoEMH3hhReclMsLBVAABVAABcZQQPoc6XsApmOoHd85LOwMsQ44yzNxIu55xl2TZJbEHw/gATyABwCm8eUBa9U4FDA9fPiwkx9+kmRVklb5mxcKoAAKoAAKjKGA9DkWmMrfMuN02R99mtcXjlF/zjGsAiEgqS0DcJZnwkTc84w7gIS44wE8gAfwgHoAYDrsmH1ypc9LEu0zTGVdf/jJ96NPbWD6/PPPF4nq5BpMhVAABVAABZJSQKCo9DlbAabt/m1eX5iUWJk2xsLOEOuAszwTJ+KeZ9w1SWZJ/PEAHsADeABgmlkyMS9JbCeUWwWmBw8eBJpm5ieaiwIogAJjKiCwVPoagOmYqsd3rhCQ1JYBOMszYSLuecYdQELc8QAewAN4QD0AMI0vD1irxusAU5lpKsmq3PaoM0z1tnxJXp977rkikZXb9AW+8kIBFEABFECBEApInyJ9i8BS6Wukz7HPL7W35OtdEbLUf/y1/yE4ry8MUV/K2KwCFnaGWAec5Zk4Efc8465JMkvijwfwAB7AAwDTzY7pRz/7vCSxnVBepn8uAAAF8ElEQVRqoilLTUDnAVNJYCWZffbZZ4u3/C1wVY7nhQIogAIogAJbUUD6DulDpC/RfkVnly4DTG0f1u7f5vWFW6kj+05TgRCQ1JYBOMszYSLuecYdQELc8QAewAN4QD0AMJ3mWH/QWvUliu2E0iabFpgqNJXZpTrDVJ4lp8BUoekzzzzj5P3UU0+5AwcOuP3797snn3zS7du3zz3xxBNu7969xfvxxx938t6zZ0/1fuyxx5x9P/roo67v/cgjjzjeaIAH8AAeGN8Dfddl2W6v4bJur/F63dd+QPoE6Rukj5C+QvoM6Tu0HxFgKn2LAlP7/FLph7byg0/S1/X1g4N2vhQ+mgIWdoZYB5zlmTgR9zzjrkkyS+KPB/AAHsADANPRhu/TOVFfoijbLTRdBEz1tny5LdIHTH/1q18Vye7TTz9dJL+SAEsyrNBUwek8eNpOuOcl53zWD5XRBm3wAB4YywPt67aCUh8kVVCqsFT6B+kr5C19hwBT6UvmAVN7O778Q0//wWf7MNu3zesDp9NTU5N1FAgBSW0ZgLM8EybinmfcASTEHQ/gATyAB9QDANN1RuSRHjsvWbRJpU02NQGVZFRnmCow1VmmMsNUZ5n++te/LhJcSXQl6bXQtD3TVBJmHzTV5FqT7faynZTzd3NWLnqgBx7AA2N5oH191r/1Oq5LO6NUr/0KS3VmqcJS6TcUlkqforNL592ODzCNdGASuNoWdoZYB5zlmTgR9zzjrkkyS+KPB/AAHsADANPAg/QYilsHmAo4VWAqt0D6bsvXH3+SBFeSXQtN5RZLSYoVmvpmm2oSrYm1LjXhXrTURJ1l/YgDtEALPIAHQnhg0fVXP9frti71uq5LgaQKSqUf0H5B+gj9J5v2HwpL9ceefLfj6y35+s89Wdp/+tl/Bs7rA2Pow6njYgVCQFJbBuAsz4SJuOcZdwAJcccDeAAP4AH1AMB08bg7uT3mJYs2qZR1m3BqImpnmVpgKrfmy8wfC0wVmupz6CQZlrfecqlJsiTM+tZEWpeaYLeXmoizLJ8Fiw7ogAfwwKY80L4+6996HdelXuctJNX+QPsH7S8EmEof0gam0tfIW/sfhaXLzC6Vfm1eH5hch59pgyzsDLEOOMszcSLuecZdk2SWxB8P4AE8gAcAppkmE30J41aB6TKzTPXXjTUJ1tlDmhxrstyGp5pg61ITcJblIwzQAR3wAB6Yqgf0uq1LBaV6ndfrvvYD2i9oP6H9RhuWzptdui4wzXQ4kGSzQ0BSWwbgLM+EibjnGXcACXHHA3gAD+AB9QDANMlUYXGjhgKm+gNQMsvUzjTV5FdvsZSkWBJkTZY1eZalJtS61ETbt9RknGV5eys6oAMewANje8B3bdZteh3Xpb3W6/Vf+gLpE7R/0P7CwlLpTxSWtmeXhpphurjnZI9YFLCwM8Q64CzPxIm45xl3TZJZEn88gAfwAB4AmMYy+g9czz5gKtv7ZpnqLfmytLfl6yxTvU1Sklp5W2gqP9Yhya8kwpoU60winVmkybMubWKt65p0syyfA4sO6IAH8MDUPKDXa7vU67ou9bqv/YD2C9JHKCiVfkP7Ee1XtJ+R2/Gl7/HBUvv80nZ/Nq/vC9zNUtwGFQgBSW0ZgLM8EybinmfcASTEHQ/gATyAB9QDANMNDug3eep5SWM7wVz0HFNJWA8fPlw8T06TWU1u5ZmmkvQqMFVoqjOINEnWpFmWmkjrUhPsZZY2QWf9QPWsWLRACzyAB0J5YJlrse6j13Fd2mu9Xv+1P1BYaoGp9CHan2j/IrBU+pw+YGr7rHZ/Nq/v22SfzLnDKmBhZ4h1wFmeiRNxzzPumiSzJP54AA/gATwAMA07Ro+mtHlJYzvBtMnnvFmmPmgqya7+EJS9Rd+CU02aZWmTaR881aRbl5qUsyx/TAsd0AEP4IGxPaDX475l+7pur/kKS6VPUFCqs0q1/xBguiwstbNLpe9q92fz+r5oOnAqulCBEJDUlgE4yzNhIu55xh1AQtzxAB7AA3hAPfD/1YLRHMgq17QAAAAASUVORK5CYII=;" vertex="1" parent="1">
                    <mxGeometry x="1040" y="1390" width="1356" height="422" as="geometry"/>
                </mxCell>
                <mxCell id="171" value="Error Due to CROS" style="text;html=1;align=center;verticalAlign=middle;resizable=0;points=[];autosize=1;strokeColor=none;fillColor=none;fontSize=21;fontStyle=1" vertex="1" parent="1">
                    <mxGeometry x="1040" y="1330" width="210" height="40" as="geometry"/>
                </mxCell>
            </root>
        </mxGraphModel>
    </diagram>
</mxfile>